Eczar-Semibold.ufo
<glyph name="exclam" format="1">
  <advance width="332"/>
  <unicode hex="0021"/>
  <outline>
    <contour>
      <point x="214" y="238" type="line"/>
      <point x="256" y="675" type="line"/>
      <point x="217" y="703"/>
      <point x="123" y="701"/>
      <point x="77" y="677" type="curve"/>
      <point x="117" y="238" type="line"/>
    </contour>
    <contour>
      <point x="117" y="140"/>
      <point x="87" y="106"/>
      <point x="80" y="57" type="curve"/>
      <point x="99" y="18"/>
      <point x="131" y="-8"/>
      <point x="176" y="-20" type="curve"/>
      <point x="214" y="-1"/>
      <point x="240" y="30"/>
      <point x="253" y="71" type="curve"/>
      <point x="242" y="112"/>
      <point x="207" y="144"/>
      <point x="161" y="163" type="curve"/>
    </contour>
  </outline>
</glyph>
<glyph name="numbersign" format="1">
  <advance width="622"/>
  <unicode hex="0023"/>
  <outline>
    <contour>
      <point x="130" y="0" type="line"/>
      <point x="211" y="-11" type="line"/>
      <point x="292" y="521" type="line"/>
      <point x="211" y="530" type="line"/>
    </contour>
    <contour>
      <point x="332" y="0" type="line"/>
      <point x="413" y="-11" type="line"/>
      <point x="494" y="521" type="line"/>
      <point x="413" y="530" type="line"/>
    </contour>
    <contour>
      <point x="85" y="334" type="line"/>
      <point x="566" y="334" type="line"/>
      <point x="566" y="407" type="line"/>
      <point x="85" y="407" type="line"/>
    </contour>
    <contour>
      <point x="56" y="128" type="line"/>
      <point x="537" y="128" type="line"/>
      <point x="537" y="201" type="line"/>
      <point x="56" y="201" type="line"/>
    </contour>
  </outline>
</glyph>
<glyph name="percent" format="1">
  <advance width="828"/>
  <unicode hex="0025"/>
  <outline>
    <contour>
      <point x="211" y="-29" type="line"/>
      <point x="664" y="543" type="line"/>
      <point x="600" y="595" type="line"/>
      <point x="146" y="24" type="line"/>
    </contour>
    <contour>
      <point x="167" y="340"/>
      <point x="139" y="387"/>
      <point x="139" y="436" type="curve" smooth="yes"/>
      <point x="139" y="466"/>
      <point x="150" y="496"/>
      <point x="169" y="516" type="curve"/>
      <point x="231" y="534"/>
      <point x="262" y="484"/>
      <point x="262" y="432" type="curve" smooth="yes"/>
      <point x="262" y="401"/>
      <point x="251" y="368"/>
      <point x="228" y="350" type="curve"/>
    </contour>
    <contour>
      <point x="48" y="343"/>
      <point x="120" y="271"/>
      <point x="206" y="271" type="curve" smooth="yes"/>
      <point x="292" y="271"/>
      <point x="355" y="343"/>
      <point x="355" y="431" type="curve" smooth="yes"/>
      <point x="355" y="523"/>
      <point x="287" y="600"/>
      <point x="201" y="600" type="curve" smooth="yes"/>
      <point x="115" y="600"/>
      <point x="48" y="522"/>
      <point x="48" y="434" type="curve" smooth="yes"/>
    </contour>
    <contour>
      <point x="592" y="49"/>
      <point x="564" y="95"/>
      <point x="564" y="144" type="curve" smooth="yes"/>
      <point x="564" y="175"/>
      <point x="575" y="205"/>
      <point x="594" y="225" type="curve"/>
      <point x="656" y="242"/>
      <point x="687" y="193"/>
      <point x="687" y="141" type="curve" smooth="yes"/>
      <point x="687" y="109"/>
      <point x="676" y="77"/>
      <point x="653" y="58" type="curve"/>
    </contour>
    <contour>
      <point x="473" y="52"/>
      <point x="545" y="-20"/>
      <point x="631" y="-20" type="curve" smooth="yes"/>
      <point x="717" y="-20"/>
      <point x="780" y="52"/>
      <point x="780" y="140" type="curve" smooth="yes"/>
      <point x="780" y="231"/>
      <point x="712" y="309"/>
      <point x="626" y="309" type="curve" smooth="yes"/>
      <point x="540" y="309"/>
      <point x="473" y="230"/>
      <point x="473" y="143" type="curve" smooth="yes"/>
    </contour>
  </outline>
</glyph>
<glyph name="ampersand" format="1">
  <advance width="689"/>
  <unicode hex="0026"/>
  <outline>
    <contour>
      <point x="243" y="372" type="line"/>
      <point x="195" y="394"/>
      <point x="173" y="438"/>
      <point x="173" y="478" type="curve" smooth="yes"/>
      <point x="173" y="520"/>
      <point x="198" y="561"/>
      <point x="237" y="578" type="curve"/>
      <point x="423" y="506" type="line"/>
      <point x="468" y="626" type="line"/>
      <point x="400" y="655"/>
      <point x="327" y="668"/>
      <point x="267" y="668" type="curve" smooth="yes"/>
      <point x="114" y="668"/>
      <point x="37" y="582"/>
      <point x="37" y="498" type="curve" smooth="yes"/>
      <point x="37" y="424"/>
      <point x="96" y="351"/>
      <point x="217" y="339" type="curve"/>
    </contour>
    <contour>
      <point x="404" y="377" type="line"/>
      <point x="447" y="335"/>
      <point x="471" y="273"/>
      <point x="471" y="214" type="curve" smooth="yes"/>
      <point x="471" y="162"/>
      <point x="452" y="112"/>
      <point x="408" y="80" type="curve"/>
      <point x="376" y="64"/>
      <point x="336" y="58"/>
      <point x="307" y="58" type="curve" smooth="yes"/>
      <point x="227" y="58"/>
      <point x="154" y="99"/>
      <point x="154" y="177" type="curve" smooth="yes"/>
      <point x="154" y="243"/>
      <point x="206" y="297"/>
      <point x="299" y="296" type="curve"/>
      <point x="313" y="362" type="line"/>
      <point x="182" y="404" type="line"/>
      <point x="179" y="380" type="line"/>
      <point x="91" y="367"/>
      <point x="16" y="302"/>
      <point x="16" y="200" type="curve" smooth="yes"/>
      <point x="16" y="64"/>
      <point x="146" y="-27"/>
      <point x="310" y="-27" type="curve" smooth="yes"/>
      <point x="490" y="-27"/>
      <point x="595" y="84"/>
      <point x="595" y="223" type="curve" smooth="yes"/>
      <point x="595" y="288"/>
      <point x="572" y="359"/>
      <point x="523" y="420" type="curve"/>
    </contour>
    <contour>
      <point x="379" y="294" type="line"/>
      <point x="543" y="402"/>
      <point x="610" y="362"/>
      <point x="685" y="316" type="curve"/>
      <point x="721" y="429" type="line"/>
      <point x="640" y="500"/>
      <point x="537" y="473"/>
      <point x="344" y="357" type="curve"/>
    </contour>
  </outline>
</glyph>
<glyph name="quotesingle" format="1">
  <advance width="181"/>
  <unicode hex="0027"/>
  <outline>
    <contour>
      <point x="61" y="477" type="line"/>
      <point x="109" y="549"/>
      <point x="144" y="653"/>
      <point x="146" y="732" type="curve"/>
      <point x="48" y="748" type="line"/>
      <point x="8" y="709" type="line"/>
      <point x="10" y="670"/>
      <point x="8" y="592"/>
      <point x="-25" y="508" type="curve"/>
    </contour>
  </outline>
</glyph>
<glyph name="parenleft" format="1">
  <advance width="331"/>
  <unicode hex="0028"/>
  <outline>
    <contour>
      <point x="294" y="-108" type="line"/>
      <point x="222" y="27"/>
      <point x="176" y="165"/>
      <point x="176" y="305" type="curve" smooth="yes"/>
      <point x="176" y="427"/>
      <point x="215" y="555"/>
      <point x="299" y="686" type="curve"/>
      <point x="215" y="732" type="line"/>
      <point x="85" y="590"/>
      <point x="28" y="444"/>
      <point x="28" y="300" type="curve" smooth="yes"/>
      <point x="28" y="136"/>
      <point x="96" y="-16"/>
      <point x="208" y="-155" type="curve"/>
    </contour>
  </outline>
</glyph>
<glyph name="period" format="1">
  <advance width="260"/>
  <unicode hex="002E"/>
  <outline>
    <contour>
      <point x="216" y="-19"/>
      <point x="247" y="21"/>
      <point x="260" y="55" type="curve"/>
      <point x="242" y="80"/>
      <point x="202" y="116"/>
      <point x="168" y="129" type="curve"/>
      <point x="139" y="112"/>
      <point x="110" y="72"/>
      <point x="91" y="35" type="curve"/>
      <point x="111" y="7"/>
      <point x="157" y="-27"/>
      <point x="187" y="-39" type="curve"/>
    </contour>
  </outline>
</glyph>
<glyph name="slash" format="1">
  <advance width="416"/>
  <unicode hex="002F"/>
  <outline>
    <contour>
      <point x="111" y="-122" type="line"/>
      <point x="417" y="684" type="line"/>
      <point x="328" y="723" type="line"/>
      <point x="20" y="-85" type="line"/>
    </contour>
  </outline>
</glyph>
<glyph name="zero" format="1">
  <advance width="589"/>
  <unicode hex="0030"/>
  <outline>
    <contour>
      <point x="31" y="149"/>
      <point x="120" y="-14"/>
      <point x="293" y="-14" type="curve" smooth="yes"/>
      <point x="463" y="-14"/>
      <point x="555" y="142"/>
      <point x="555" y="334" type="curve" smooth="yes"/>
      <point x="555" y="531"/>
      <point x="453" y="665"/>
      <point x="300" y="665" type="curve" smooth="yes"/>
      <point x="134" y="665"/>
      <point x="31" y="506"/>
      <point x="31" y="321" type="curve" smooth="yes"/>
    </contour>
    <contour>
      <point x="258" y="578"/>
      <point x="269" y="580"/>
      <point x="279" y="580" type="curve" smooth="yes"/>
      <point x="367" y="580"/>
      <point x="405" y="451"/>
      <point x="405" y="320" type="curve" smooth="yes"/>
      <point x="405" y="233"/>
      <point x="388" y="126"/>
      <point x="343" y="77" type="curve"/>
      <point x="331" y="73"/>
      <point x="320" y="72"/>
      <point x="311" y="72" type="curve" smooth="yes"/>
      <point x="217" y="72"/>
      <point x="182" y="221"/>
      <point x="182" y="333" type="curve" smooth="yes"/>
      <point x="182" y="416"/>
      <point x="201" y="529"/>
      <point x="246" y="575" type="curve"/>
    </contour>
  </outline>
</glyph>
<glyph name="two" format="1">
  <advance width="581"/>
  <unicode hex="0032"/>
  <outline>
    <contour>
      <point x="160" y="422" type="line"/>
      <point x="202" y="597" type="line"/>
      <point x="53" y="604" type="line"/>
      <point x="49" y="554"/>
      <point x="56" y="472"/>
      <point x="68" y="422" type="curve"/>
    </contour>
    <contour>
      <point x="58" y="0" type="line"/>
      <point x="491" y="0" type="line"/>
      <point x="491" y="111" type="line"/>
      <point x="211" y="75" type="line"/>
      <point x="208" y="83" type="line"/>
      <point x="354" y="234" type="line"/>
      <point x="453" y="337"/>
      <point x="500" y="401"/>
      <point x="500" y="479" type="curve" smooth="yes"/>
      <point x="500" y="585"/>
      <point x="412" y="667"/>
      <point x="287" y="670" type="curve" smooth="yes"/>
      <point x="213" y="673"/>
      <point x="122" y="646"/>
      <point x="53" y="604" type="curve"/>
      <point x="139" y="565" type="line"/>
      <point x="176" y="580"/>
      <point x="219" y="588"/>
      <point x="246" y="588" type="curve" smooth="yes"/>
      <point x="319" y="588"/>
      <point x="350" y="540"/>
      <point x="350" y="492" type="curve" smooth="yes"/>
      <point x="350" y="441"/>
      <point x="315" y="383"/>
      <point x="220" y="281" type="curve" smooth="yes"/>
      <point x="38" y="81" type="line"/>
    </contour>
    <contour>
      <point x="465" y="209" type="line"/>
      <point x="359" y="24" type="line"/>
      <point x="502" y="0" type="line"/>
      <point x="520" y="60"/>
      <point x="531" y="134"/>
      <point x="534" y="193" type="curve"/>
    </contour>
  </outline>
</glyph>
<glyph name="five" format="1">
  <advance width="565"/>
  <unicode hex="0035"/>
  <outline>
    <contour>
      <point x="486" y="511"/>
      <point x="493" y="601"/>
      <point x="489" y="650" type="curve"/>
      <point x="349" y="643" type="line"/>
      <point x="384" y="461" type="line"/>
      <point x="474" y="462" type="line"/>
    </contour>
    <contour>
      <point x="39" y="48" type="line"/>
      <point x="111" y="3"/>
      <point x="205" y="-22"/>
      <point x="279" y="-22" type="curve" smooth="yes"/>
      <point x="429" y="-22"/>
      <point x="521" y="74"/>
      <point x="521" y="194" type="curve" smooth="yes"/>
      <point x="521" y="334"/>
      <point x="395" y="399"/>
      <point x="283" y="400" type="curve" smooth="yes"/>
      <point x="256" y="400"/>
      <point x="223" y="397"/>
      <point x="200" y="387" type="curve"/>
      <point x="216" y="567" type="line"/>
      <point x="447" y="555" type="line"/>
      <point x="457" y="650" type="line"/>
      <point x="104" y="650" type="line"/>
      <point x="72" y="323" type="line"/>
      <point x="124" y="272" type="line"/>
      <point x="155" y="283"/>
      <point x="190" y="289"/>
      <point x="221" y="289" type="curve" smooth="yes"/>
      <point x="312" y="289"/>
      <point x="388" y="251"/>
      <point x="388" y="166" type="curve" smooth="yes"/>
      <point x="388" y="140"/>
      <point x="381" y="109"/>
      <point x="346" y="76" type="curve"/>
      <point x="266" y="76"/>
      <point x="169" y="117"/>
      <point x="87" y="180" type="curve"/>
    </contour>
  </outline>
</glyph>
<glyph name="nine" format="1">
  <advance width="547"/>
  <unicode hex="0039"/>
  <outline>
    <contour>
      <point x="237" y="308"/>
      <point x="176" y="375"/>
      <point x="176" y="460" type="curve" smooth="yes"/>
      <point x="176" y="511"/>
      <point x="196" y="564"/>
      <point x="233" y="583" type="curve"/>
      <point x="337" y="606"/>
      <point x="378" y="490"/>
      <point x="378" y="370" type="curve" smooth="yes"/>
      <point x="378" y="265"/>
      <point x="348" y="155"/>
      <point x="266" y="106" type="curve"/>
      <point x="85" y="140" type="line"/>
      <point x="108" y="-9" type="line"/>
      <point x="333" y="-20"/>
      <point x="519" y="137"/>
      <point x="519" y="373" type="curve" smooth="yes"/>
      <point x="519" y="542"/>
      <point x="423" y="670"/>
      <point x="263" y="670" type="curve" smooth="yes"/>
      <point x="128" y="670"/>
      <point x="28" y="580"/>
      <point x="28" y="450" type="curve" smooth="yes"/>
      <point x="28" y="297"/>
      <point x="170" y="189"/>
      <point x="338" y="253" type="curve"/>
      <point x="327" y="331" type="line"/>
    </contour>
  </outline>
</glyph>
<glyph name="colon" format="1">
  <advance width="351"/>
  <unicode hex="003A"/>
  <outline>
    <contour>
      <point x="244" y="112"/>
      <point x="209" y="144"/>
      <point x="163" y="163" type="curve"/>
      <point x="119" y="140"/>
      <point x="89" y="106"/>
      <point x="82" y="57" type="curve"/>
      <point x="101" y="18"/>
      <point x="133" y="-8"/>
      <point x="178" y="-20" type="curve"/>
      <point x="216" y="-1"/>
      <point x="242" y="30"/>
      <point x="255" y="71" type="curve"/>
    </contour>
    <contour>
      <point x="244" y="420"/>
      <point x="209" y="452"/>
      <point x="163" y="471" type="curve"/>
      <point x="119" y="448"/>
      <point x="89" y="414"/>
      <point x="82" y="365" type="curve"/>
      <point x="101" y="326"/>
      <point x="133" y="301"/>
      <point x="178" y="288" type="curve"/>
      <point x="216" y="308"/>
      <point x="242" y="338"/>
      <point x="255" y="380" type="curve"/>
    </contour>
  </outline>
</glyph>
<glyph name="at" format="1">
  <advance width="1067"/>
  <unicode hex="0040"/>
  <outline>
    <contour>
      <point x="467" y="404" type="line"/>
      <point x="485" y="411"/>
      <point x="516" y="416"/>
      <point x="542" y="417" type="curve"/>
      <point x="570" y="403"/>
      <point x="590" y="378"/>
      <point x="590" y="315" type="curve" smooth="yes"/>
      <point x="590" y="69" type="line"/>
      <point x="600" y="65" type="line"/>
      <point x="620" y="19"/>
      <point x="662" y="-19"/>
      <point x="735" y="-16" type="curve"/>
      <point x="915" y="11"/>
      <point x="1009" y="157"/>
      <point x="1009" y="311" type="curve" smooth="yes"/>
      <point x="1009" y="503"/>
      <point x="862" y="709"/>
      <point x="548" y="709" type="curve" smooth="yes"/>
      <point x="242" y="709"/>
      <point x="67" y="514"/>
      <point x="67" y="298" type="curve" smooth="yes"/>
      <point x="67" y="183"/>
      <point x="117" y="62"/>
      <point x="221" y="-39" type="curve"/>
      <point x="302" y="12" type="line"/>
      <point x="241" y="95"/>
      <point x="211" y="188"/>
      <point x="211" y="275" type="curve" smooth="yes"/>
      <point x="211" y="452"/>
      <point x="336" y="604"/>
      <point x="554" y="604" type="curve" smooth="yes"/>
      <point x="762" y="604"/>
      <point x="867" y="465"/>
      <point x="867" y="306" type="curve" smooth="yes"/>
      <point x="867" y="224"/>
      <point x="840" y="138"/>
      <point x="790" y="98" type="curve" smooth="yes"/>
      <point x="767" y="80"/>
      <point x="735" y="69"/>
      <point x="735" y="112" type="curve" smooth="yes"/>
      <point x="735" y="321" type="line" smooth="yes"/>
      <point x="735" y="384"/>
      <point x="732" y="407"/>
      <point x="723" y="424" type="curve" smooth="yes"/>
      <point x="699" y="461"/>
      <point x="643" y="495"/>
      <point x="592" y="495" type="curve" smooth="yes"/>
      <point x="540" y="495"/>
      <point x="420" y="467"/>
      <point x="344" y="434" type="curve"/>
      <point x="341" y="387"/>
      <point x="349" y="341"/>
      <point x="365" y="293" type="curve"/>
      <point x="449" y="296" type="line"/>
    </contour>
    <contour>
      <point x="343" y="196"/>
      <point x="320" y="150"/>
      <point x="320" y="110" type="curve" smooth="yes"/>
      <point x="320" y="46"/>
      <point x="380" y="-29"/>
      <point x="496" y="-13" type="curve"/>
      <point x="619" y="64" type="line"/>
      <point x="610" y="106" type="line"/>
      <point x="582" y="95"/>
      <point x="530" y="75"/>
      <point x="486" y="74" type="curve"/>
      <point x="472" y="85"/>
      <point x="465" y="102"/>
      <point x="465" y="118" type="curve" smooth="yes"/>
      <point x="465" y="167"/>
      <point x="535" y="174"/>
      <point x="593" y="171" type="curve"/>
      <point x="617" y="170" type="line"/>
      <point x="613" y="230" type="line"/>
      <point x="398" y="225" type="line"/>
    </contour>
  </outline>
</glyph>
<glyph name="B" format="1">
  <advance width="668"/>
  <unicode hex="0042"/>
  <outline>
    <contour>
      <point x="267" y="666"/>
      <point x="132" y="663"/>
      <point x="41" y="658" type="curve"/>
      <point x="254" y="572" type="line"/>
      <point x="372" y="588" type="line"/>
      <point x="419" y="577"/>
      <point x="451" y="527"/>
      <point x="451" y="481" type="curve" smooth="yes"/>
      <point x="451" y="428"/>
      <point x="411" y="376"/>
      <point x="309" y="376" type="curve" smooth="yes"/>
      <point x="235" y="376" type="line"/>
      <point x="235" y="314" type="line"/>
      <point x="317" y="322" type="line"/>
      <point x="448" y="345" type="line"/>
      <point x="557" y="351"/>
      <point x="605" y="429"/>
      <point x="605" y="497" type="curve" smooth="yes"/>
      <point x="605" y="581"/>
      <point x="527" y="666"/>
      <point x="353" y="666" type="curve"/>
    </contour>
    <contour>
      <point x="90" y="65"/>
      <point x="55" y="50"/>
      <point x="26" y="32" type="curve"/>
      <point x="32" y="0" type="line"/>
      <point x="126" y="0" type="line"/>
      <point x="125" y="79" type="line"/>
    </contour>
    <contour>
      <point x="111" y="657" type="line"/>
      <point x="111" y="0" type="line"/>
      <point x="263" y="0" type="line"/>
      <point x="263" y="657" type="line"/>
    </contour>
    <contour>
      <point x="259" y="336" type="line"/>
      <point x="242" y="310" type="line"/>
      <point x="345" y="310" type="line" smooth="yes"/>
      <point x="429" y="310"/>
      <point x="476" y="244"/>
      <point x="476" y="184" type="curve" smooth="yes"/>
      <point x="476" y="126"/>
      <point x="434" y="69"/>
      <point x="343" y="77" type="curve" smooth="yes"/>
      <point x="242" y="87" type="line"/>
      <point x="239" y="0" type="line"/>
      <point x="361" y="0" type="line" smooth="yes"/>
      <point x="558" y="0"/>
      <point x="637" y="89"/>
      <point x="637" y="182" type="curve" smooth="yes"/>
      <point x="637" y="279"/>
      <point x="552" y="365"/>
      <point x="391" y="352" type="curve"/>
    </contour>
    <contour>
      <point x="41" y="658" type="line"/>
      <point x="40" y="607" type="line"/>
      <point x="153" y="593" type="line"/>
      <point x="153" y="658" type="line"/>
    </contour>
  </outline>
</glyph>
<glyph name="D" format="1">
  <advance width="706"/>
  <unicode hex="0044"/>
  <outline>
    <contour>
      <point x="254" y="666"/>
      <point x="149" y="664"/>
      <point x="41" y="658" type="curve"/>
      <point x="251" y="572" type="line"/>
      <point x="408" y="588" type="line"/>
      <point x="482" y="544"/>
      <point x="532" y="438"/>
      <point x="532" y="328" type="curve" smooth="yes"/>
      <point x="532" y="207"/>
      <point x="471" y="83"/>
      <point x="339" y="83" type="curve" smooth="yes"/>
      <point x="307" y="83"/>
      <point x="272" y="90"/>
      <point x="232" y="105" type="curve"/>
      <point x="240" y="0" type="line"/>
      <point x="346" y="0" type="line" smooth="yes"/>
      <point x="584" y="0"/>
      <point x="692" y="164"/>
      <point x="692" y="334" type="curve" smooth="yes"/>
      <point x="692" y="496"/>
      <point x="577" y="666"/>
      <point x="362" y="666" type="curve" smooth="yes"/>
    </contour>
    <contour>
      <point x="90" y="65"/>
      <point x="55" y="50"/>
      <point x="26" y="32" type="curve"/>
      <point x="32" y="0" type="line"/>
      <point x="126" y="0" type="line"/>
      <point x="125" y="79" type="line"/>
    </contour>
    <contour>
      <point x="111" y="657" type="line"/>
      <point x="111" y="0" type="line"/>
      <point x="263" y="0" type="line"/>
      <point x="263" y="657" type="line"/>
    </contour>
    <contour>
      <point x="41" y="658" type="line"/>
      <point x="40" y="607" type="line"/>
      <point x="153" y="593" type="line"/>
      <point x="153" y="658" type="line"/>
    </contour>
    <contour>
      <point x="362" y="325" type="move" name="center"/>
    </contour>
    <contour>
      <point x="181" y="0" type="move" name="bottom"/>
    </contour>
    <contour>
      <point x="342" y="650" type="move" name="top"/>
    </contour>
  </outline>
</glyph>
<glyph name="F" format="1">
  <advance width="599"/>
  <unicode hex="0046"/>
  <outline>
    <contour>
      <point x="108" y="658" type="line"/>
      <point x="108" y="0" type="line"/>
      <point x="260" y="0" type="line"/>
      <point x="260" y="658" type="line"/>
    </contour>
    <contour>
      <point x="91" y="65"/>
      <point x="56" y="50"/>
      <point x="27" y="32" type="curve"/>
      <point x="33" y="0" type="line"/>
      <point x="127" y="0" type="line"/>
      <point x="126" y="79" type="line"/>
    </contour>
    <contour>
      <point x="239" y="0" type="line"/>
      <point x="379" y="0" type="line"/>
      <point x="380" y="51" type="line"/>
      <point x="242" y="71" type="line"/>
    </contour>
    <contour>
      <point x="243" y="345" type="line"/>
      <point x="243" y="268" type="line"/>
      <point x="483" y="257" type="line"/>
      <point x="483" y="362" type="line"/>
    </contour>
    <contour>
      <point x="159" y="658" type="line"/>
      <point x="234" y="582" type="line"/>
      <point x="530" y="561" type="line"/>
      <point x="556" y="658" type="line"/>
    </contour>
    <contour>
      <point x="35" y="658" type="line"/>
      <point x="34" y="607" type="line"/>
      <point x="147" y="593" type="line"/>
      <point x="147" y="658" type="line"/>
    </contour>
    <contour>
      <point x="541" y="464" type="line"/>
      <point x="554" y="529"/>
      <point x="559" y="619"/>
      <point x="557" y="658" type="curve"/>
      <point x="429" y="631" type="line"/>
      <point x="457" y="464" type="line"/>
    </contour>
    <contour>
      <point x="174" y="390" type="move" name="top"/>
    </contour>
    <contour>
      <point x="174" y="0" type="move" name="bottom"/>
    </contour>
  </outline>
</glyph>
<glyph name="G" format="1">
  <advance width="695"/>
  <unicode hex="0047"/>
  <outline>
    <contour>
      <point x="136" y="678"/>
      <point x="11" y="501"/>
      <point x="11" y="316" type="curve" smooth="yes"/>
      <point x="11" y="154"/>
      <point x="113" y="-35"/>
      <point x="384" y="-20" type="curve"/>
      <point x="597" y="69" type="line"/>
      <point x="553" y="113" type="line"/>
      <point x="510" y="96"/>
      <point x="432" y="76"/>
      <point x="370" y="78" type="curve" smooth="yes"/>
      <point x="233" y="81"/>
      <point x="166" y="206"/>
      <point x="166" y="336" type="curve" smooth="yes"/>
      <point x="166" y="437"/>
      <point x="197" y="538"/>
      <point x="270" y="590" type="curve"/>
      <point x="428" y="599"/>
      <point x="530" y="519"/>
      <point x="559" y="495" type="curve"/>
      <point x="589" y="617" type="line"/>
      <point x="555" y="641"/>
      <point x="481" y="678"/>
      <point x="376" y="678" type="curve" smooth="yes"/>
    </contour>
    <contour>
      <point x="357" y="269" type="line"/>
      <point x="394" y="248"/>
      <point x="439" y="230"/>
      <point x="477" y="216" type="curve"/>
      <point x="468" y="303" type="line"/>
      <point x="363" y="303" type="line"/>
    </contour>
    <contour>
      <point x="457" y="62" type="line"/>
      <point x="597" y="69" type="line"/>
      <point x="597" y="303" type="line"/>
      <point x="457" y="303" type="line"/>
    </contour>
    <contour>
      <point x="507" y="303" type="line"/>
      <point x="527" y="225" type="line"/>
      <point x="673" y="255" type="line"/>
      <point x="672" y="303" type="line"/>
    </contour>
    <contour>
      <point x="568" y="447" type="line"/>
      <point x="585" y="506"/>
      <point x="592" y="578"/>
      <point x="589" y="617" type="curve"/>
      <point x="445" y="596" type="line"/>
      <point x="477" y="447" type="line"/>
    </contour>
    <contour>
      <point x="348" y="650" type="move" name="top"/>
    </contour>
    <contour>
      <point x="348" y="0" type="move" name="bottom"/>
    </contour>
  </outline>
</glyph>
<glyph name="I" format="1">
  <advance width="382"/>
  <unicode hex="0049"/>
  <outline>
    <contour>
      <point x="263" y="0" type="line"/>
      <point x="263" y="658" type="line"/>
      <point x="111" y="658" type="line"/>
      <point x="111" y="0" type="line"/>
    </contour>
    <contour>
      <point x="126" y="0" type="line"/>
      <point x="125" y="79" type="line"/>
      <point x="90" y="65"/>
      <point x="55" y="50"/>
      <point x="26" y="32" type="curve"/>
      <point x="32" y="0" type="line"/>
    </contour>
    <contour>
      <point x="354" y="0" type="line"/>
      <point x="355" y="51" type="line"/>
      <point x="217" y="71" type="line"/>
      <point x="214" y="0" type="line"/>
    </contour>
    <contour>
      <point x="35" y="658" type="line"/>
      <point x="34" y="607" type="line"/>
      <point x="172" y="587" type="line"/>
      <point x="175" y="658" type="line"/>
    </contour>
    <contour>
      <point x="247" y="658" type="line"/>
      <point x="248" y="579" type="line"/>
      <point x="284" y="593"/>
      <point x="318" y="608"/>
      <point x="347" y="626" type="curve"/>
      <point x="341" y="658" type="line"/>
    </contour>
    <contour>
      <point x="291" y="1" type="move" name="ogonek"/>
    </contour>
    <contour>
      <point x="188" y="650" type="move" name="top"/>
    </contour>
  </outline>
</glyph>
<glyph name="J" format="1">
  <advance width="386"/>
  <unicode hex="004A"/>
  <outline>
    <contour>
      <point x="37" y="658" type="line"/>
      <point x="36" y="607" type="line"/>
      <point x="174" y="587" type="line"/>
      <point x="177" y="658" type="line"/>
    </contour>
    <contour>
      <point x="125" y="658" type="line"/>
      <point x="125" y="140" type="line" smooth="yes"/>
      <point x="125" y="-16"/>
      <point x="66" y="-78"/>
      <point x="-18" y="-131" type="curve"/>
      <point x="17" y="-186" type="line"/>
      <point x="163" y="-128"/>
      <point x="276" y="-47"/>
      <point x="276" y="129" type="curve" smooth="yes"/>
      <point x="276" y="658" type="line"/>
    </contour>
    <contour>
      <point x="262" y="658" type="line"/>
      <point x="263" y="579" type="line"/>
      <point x="299" y="593"/>
      <point x="333" y="608"/>
      <point x="362" y="626" type="curve"/>
      <point x="356" y="658" type="line"/>
    </contour>
    <contour>
      <point x="203" y="650" type="move" name="top"/>
    </contour>
  </outline>
</glyph>
<glyph name="L" format="1">
  <advance width="596"/>
  <unicode hex="004C"/>
  <outline>
    <contour>
      <point x="35" y="658" type="line"/>
      <point x="34" y="607" type="line"/>
      <point x="172" y="587" type="line"/>
      <point x="175" y="658" type="line"/>
    </contour>
    <contour>
      <point x="247" y="658" type="line"/>
      <point x="248" y="579" type="line"/>
      <point x="284" y="593"/>
      <point x="318" y="608"/>
      <point x="347" y="626" type="curve"/>
      <point x="341" y="658" type="line"/>
    </contour>
    <contour>
      <point x="90" y="65"/>
      <point x="55" y="50"/>
      <point x="26" y="32" type="curve"/>
      <point x="32" y="0" type="line"/>
      <point x="126" y="0" type="line"/>
      <point x="125" y="79" type="line"/>
    </contour>
    <contour>
      <point x="237" y="82" type="line"/>
      <point x="162" y="0" type="line"/>
      <point x="575" y="0" type="line"/>
      <point x="558" y="107" type="line"/>
    </contour>
    <contour>
      <point x="111" y="658" type="line"/>
      <point x="111" y="0" type="line"/>
      <point x="263" y="0" type="line"/>
      <point x="263" y="658" type="line"/>
    </contour>
    <contour>
      <point x="441" y="24" type="line"/>
      <point x="576" y="0" type="line"/>
      <point x="587" y="61"/>
      <point x="591" y="163"/>
      <point x="589" y="230" type="curve"/>
      <point x="502" y="238" type="line"/>
    </contour>
    <contour>
      <point x="195" y="650" type="move" name="top"/>
    </contour>
    <contour>
      <point x="302" y="0" type="move" name="bottom"/>
    </contour>
    <contour>
      <point x="527" y="650" type="move" name="topright"/>
    </contour>
  </outline>
</glyph>
<glyph name="R" format="1">
  <advance width="692"/>
  <unicode hex="0052"/>
  <outline>
    <contour>
      <point x="38" y="658" type="line"/>
      <point x="252" y="572" type="line"/>
      <point x="402" y="588" type="line"/>
      <point x="443" y="560"/>
      <point x="462" y="511"/>
      <point x="462" y="460" type="curve" smooth="yes"/>
      <point x="462" y="393"/>
      <point x="430" y="331"/>
      <point x="328" y="331" type="curve" smooth="yes"/>
      <point x="301" y="331"/>
      <point x="264" y="336"/>
      <point x="227" y="348" type="curve"/>
      <point x="232" y="254" type="line"/>
      <point x="374" y="255" type="line" smooth="yes"/>
      <point x="524" y="256"/>
      <point x="619" y="356"/>
      <point x="619" y="463" type="curve" smooth="yes"/>
      <point x="619" y="570"/>
      <point x="524" y="666"/>
      <point x="357" y="666" type="curve"/>
    </contour>
    <contour>
      <point x="90" y="65"/>
      <point x="55" y="50"/>
      <point x="26" y="32" type="curve"/>
      <point x="32" y="0" type="line"/>
      <point x="126" y="0" type="line"/>
      <point x="125" y="79" type="line"/>
    </contour>
    <contour>
      <point x="212" y="0" type="line"/>
      <point x="352" y="0" type="line"/>
      <point x="353" y="51" type="line"/>
      <point x="215" y="71" type="line"/>
    </contour>
    <contour>
      <point x="111" y="658" type="line"/>
      <point x="111" y="0" type="line"/>
      <point x="263" y="0" type="line"/>
      <point x="263" y="658" type="line"/>
    </contour>
    <contour>
      <point x="38" y="658" type="line"/>
      <point x="37" y="607" type="line"/>
      <point x="150" y="593" type="line"/>
      <point x="150" y="658" type="line"/>
    </contour>
    <contour>
      <point x="325" y="294" type="line"/>
      <point x="482" y="0" type="line"/>
      <point x="656" y="0" type="line"/>
      <point x="469" y="303" type="line"/>
    </contour>
    <contour>
      <point x="542" y="0" type="line"/>
      <point x="682" y="0" type="line"/>
      <point x="683" y="51" type="line"/>
      <point x="545" y="69" type="line"/>
    </contour>
    <contour>
      <point x="318" y="650" type="move" name="top"/>
    </contour>
    <contour>
      <point x="336" y="0" type="move" name="bottom"/>
    </contour>
  </outline>
</glyph>
<glyph name="S" format="1">
  <advance width="578"/>
  <unicode hex="0053"/>
  <outline>
    <contour>
      <point x="167" y="678"/>
      <point x="54" y="602"/>
      <point x="54" y="481" type="curve" smooth="yes"/>
      <point x="54" y="368"/>
      <point x="153" y="317"/>
      <point x="241" y="275" type="curve" smooth="yes"/>
      <point x="325" y="236"/>
      <point x="388" y="208"/>
      <point x="388" y="145" type="curve" smooth="yes"/>
      <point x="388" y="115"/>
      <point x="372" y="80"/>
      <point x="333" y="61" type="curve"/>
      <point x="254" y="61"/>
      <point x="156" y="84"/>
      <point x="90" y="166" type="curve"/>
      <point x="53" y="44" type="line"/>
      <point x="114" y="3"/>
      <point x="219" y="-20"/>
      <point x="291" y="-20" type="curve" smooth="yes"/>
      <point x="423" y="-20"/>
      <point x="539" y="53"/>
      <point x="539" y="181" type="curve" smooth="yes"/>
      <point x="539" y="300"/>
      <point x="445" y="350"/>
      <point x="353" y="393" type="curve" smooth="yes"/>
      <point x="268" y="433"/>
      <point x="198" y="460"/>
      <point x="198" y="518" type="curve" smooth="yes"/>
      <point x="198" y="546"/>
      <point x="213" y="580"/>
      <point x="244" y="599" type="curve"/>
      <point x="321" y="601"/>
      <point x="397" y="580"/>
      <point x="455" y="518" type="curve"/>
      <point x="509" y="642" type="line"/>
      <point x="460" y="660"/>
      <point x="381" y="678"/>
      <point x="311" y="678" type="curve" smooth="yes"/>
    </contour>
    <contour>
      <point x="492" y="459" type="line"/>
      <point x="505" y="519"/>
      <point x="509" y="595"/>
      <point x="509" y="642" type="curve"/>
      <point x="368" y="629" type="line"/>
      <point x="412" y="459" type="line"/>
    </contour>
    <contour>
      <point x="56" y="174"/>
      <point x="49" y="84"/>
      <point x="53" y="44" type="curve"/>
      <point x="207" y="39" type="line"/>
      <point x="140" y="230" type="line"/>
      <point x="68" y="230" type="line"/>
    </contour>
    <contour>
      <point x="297" y="650" type="move" name="top"/>
    </contour>
    <contour>
      <point x="285" y="0" type="move" name="bottom"/>
    </contour>
  </outline>
</glyph>
<glyph name="X" format="1">
  <advance width="699"/>
  <unicode hex="0058"/>
  <outline>
    <contour>
      <point x="170" y="587" type="line"/>
      <point x="173" y="658" type="line"/>
      <point x="33" y="658" type="line"/>
      <point x="32" y="607" type="line"/>
    </contour>
    <contour>
      <point x="209" y="658" type="line"/>
      <point x="222" y="579" type="line"/>
      <point x="258" y="593"/>
      <point x="292" y="608"/>
      <point x="321" y="626" type="curve"/>
      <point x="315" y="658" type="line"/>
    </contour>
    <contour>
      <point x="415" y="658" type="line"/>
      <point x="414" y="607" type="line"/>
      <point x="552" y="587" type="line"/>
      <point x="555" y="658" type="line"/>
    </contour>
    <contour>
      <point x="560" y="658" type="line"/>
      <point x="573" y="579" type="line"/>
      <point x="609" y="593"/>
      <point x="643" y="608"/>
      <point x="672" y="626" type="curve"/>
      <point x="666" y="658" type="line"/>
    </contour>
    <contour>
      <point x="66" y="65"/>
      <point x="31" y="50"/>
      <point x="2" y="32" type="curve"/>
      <point x="8" y="0" type="line"/>
      <point x="114" y="0" type="line"/>
      <point x="101" y="79" type="line"/>
    </contour>
    <contour>
      <point x="141" y="0" type="line"/>
      <point x="281" y="0" type="line"/>
      <point x="282" y="51" type="line"/>
      <point x="144" y="71" type="line"/>
    </contour>
    <contour>
      <point x="461" y="65"/>
      <point x="426" y="50"/>
      <point x="397" y="32" type="curve"/>
      <point x="403" y="0" type="line"/>
      <point x="509" y="0" type="line"/>
      <point x="496" y="79" type="line"/>
    </contour>
    <contour>
      <point x="563" y="0" type="line"/>
      <point x="703" y="0" type="line"/>
      <point x="704" y="51" type="line"/>
      <point x="554" y="71" type="line"/>
    </contour>
    <contour>
      <point x="57" y="658" type="line"/>
      <point x="500" y="0" type="line"/>
      <point x="674" y="0" type="line"/>
      <point x="227" y="658" type="line"/>
    </contour>
    <contour>
      <point x="527" y="658" type="line"/>
      <point x="353" y="374" type="line"/>
      <point x="430" y="340" type="line"/>
      <point x="639" y="658" type="line"/>
    </contour>
    <contour>
      <point x="35" y="0" type="line"/>
      <point x="158" y="0" type="line"/>
      <point x="380" y="340" type="line"/>
      <point x="301" y="384" type="line"/>
    </contour>
  </outline>
</glyph>
<glyph name="Y" format="1">
  <advance width="647"/>
  <unicode hex="0059"/>
  <outline>
    <contour>
      <point x="29" y="658" type="line"/>
      <point x="258" y="230" type="line"/>
      <point x="375" y="302" type="line"/>
      <point x="358" y="336" type="line"/>
      <point x="337" y="335" type="line"/>
      <point x="310" y="420" type="line"/>
      <point x="184" y="658" type="line"/>
    </contour>
    <contour>
      <point x="-1" y="658" type="line"/>
      <point x="-2" y="607" type="line"/>
      <point x="136" y="587" type="line"/>
      <point x="139" y="658" type="line"/>
    </contour>
    <contour>
      <point x="160" y="658" type="line"/>
      <point x="173" y="579" type="line"/>
      <point x="209" y="593"/>
      <point x="243" y="608"/>
      <point x="272" y="626" type="curve"/>
      <point x="266" y="658" type="line"/>
    </contour>
    <contour>
      <point x="505" y="658" type="line"/>
      <point x="316" y="281" type="line"/>
      <point x="387" y="244" type="line"/>
      <point x="610" y="658" type="line"/>
    </contour>
    <contour>
      <point x="401" y="658" type="line"/>
      <point x="400" y="607" type="line"/>
      <point x="538" y="587" type="line"/>
      <point x="541" y="658" type="line"/>
    </contour>
    <contour>
      <point x="539" y="658" type="line"/>
      <point x="552" y="579" type="line"/>
      <point x="588" y="593"/>
      <point x="622" y="608"/>
      <point x="651" y="626" type="curve"/>
      <point x="645" y="658" type="line"/>
    </contour>
    <contour>
      <point x="249" y="0" type="line"/>
      <point x="397" y="0" type="line"/>
      <point x="397" y="306" type="line"/>
      <point x="249" y="306" type="line"/>
    </contour>
    <contour>
      <point x="232" y="65"/>
      <point x="197" y="50"/>
      <point x="168" y="32" type="curve"/>
      <point x="174" y="0" type="line"/>
      <point x="268" y="0" type="line"/>
      <point x="267" y="79" type="line"/>
    </contour>
    <contour>
      <point x="339" y="0" type="line"/>
      <point x="479" y="0" type="line"/>
      <point x="480" y="51" type="line"/>
      <point x="342" y="71" type="line"/>
    </contour>
    <contour>
      <point x="337" y="650" type="move" name="top"/>
    </contour>
  </outline>
</glyph>
<glyph name="Z" format="1">
  <advance width="632"/>
  <unicode hex="005A"/>
  <outline>
    <contour>
      <point x="91" y="562" type="line"/>
      <point x="520" y="589" type="line"/>
      <point x="556" y="658" type="line"/>
      <point x="64" y="658" type="line"/>
    </contour>
    <contour>
      <point x="499" y="615" type="line"/>
      <point x="425" y="603" type="line"/>
      <point x="33" y="68" type="line"/>
      <point x="73" y="-1" type="line"/>
      <point x="124" y="35" type="line"/>
      <point x="190" y="47" type="line"/>
      <point x="589" y="591" type="line"/>
      <point x="556" y="658" type="line"/>
    </contour>
    <contour>
      <point x="132" y="86" type="line"/>
      <point x="72" y="-1" type="line"/>
      <point x="570" y="0" type="line"/>
      <point x="559" y="97" type="line"/>
    </contour>
    <contour>
      <point x="196" y="604" type="line"/>
      <point x="64" y="658" type="line"/>
      <point x="59" y="603"/>
      <point x="60" y="510"/>
      <point x="72" y="442" type="curve"/>
      <point x="156" y="442" type="line"/>
    </contour>
    <contour>
      <point x="435" y="26" type="line"/>
      <point x="570" y="0" type="line"/>
      <point x="583" y="75"/>
      <point x="592" y="138"/>
      <point x="596" y="210" type="curve"/>
      <point x="506" y="223" type="line"/>
    </contour>
  </outline>
</glyph>
<glyph name="backslash" format="1">
  <advance width="403"/>
  <unicode hex="005C"/>
  <outline>
    <contour>
      <point x="396" y="-86" type="line"/>
      <point x="88" y="723" type="line"/>
      <point x="-18" y="681" type="line"/>
      <point x="288" y="-126" type="line"/>
    </contour>
  </outline>
</glyph>
<glyph name="c" format="1">
  <advance width="447"/>
  <unicode hex="0063"/>
  <outline>
    <contour>
      <point x="411" y="111" type="line"/>
      <point x="373" y="93"/>
      <point x="336" y="84"/>
      <point x="303" y="84" type="curve" smooth="yes"/>
      <point x="208" y="84"/>
      <point x="156" y="159"/>
      <point x="156" y="262" type="curve" smooth="yes"/>
      <point x="156" y="313"/>
      <point x="170" y="371"/>
      <point x="209" y="414" type="curve"/>
      <point x="255" y="399"/>
      <point x="297" y="362"/>
      <point x="333" y="313" type="curve"/>
      <point x="442" y="388" type="line"/>
      <point x="410" y="460"/>
      <point x="338" y="496"/>
      <point x="259" y="496" type="curve" smooth="yes"/>
      <point x="120" y="496"/>
      <point x="14" y="392"/>
      <point x="14" y="237" type="curve" smooth="yes"/>
      <point x="14" y="76"/>
      <point x="134" y="-30"/>
      <point x="290" y="-14" type="curve"/>
      <point x="432" y="61" type="line"/>
    </contour>
    <contour>
      <point x="254" y="468" type="move" name="top"/>
    </contour>
    <contour>
      <point x="246" y="0" type="move" name="bottom"/>
    </contour>
  </outline>
</glyph>
<glyph name="f" format="1">
  <advance width="366"/>
  <unicode hex="0066"/>
  <outline>
    <contour>
      <point x="410" y="702" type="line"/>
      <point x="367" y="735"/>
      <point x="316" y="751"/>
      <point x="273" y="751" type="curve" smooth="yes"/>
      <point x="171" y="751"/>
      <point x="82" y="666"/>
      <point x="82" y="545" type="curve" smooth="yes"/>
      <point x="82" y="0" type="line"/>
      <point x="228" y="0" type="line"/>
      <point x="228" y="436" type="line"/>
      <point x="231" y="463" type="line"/>
      <point x="181" y="649" type="line"/>
      <point x="234" y="643"/>
      <point x="287" y="618"/>
      <point x="331" y="575" type="curve"/>
    </contour>
    <contour>
      <point x="166" y="373" type="line"/>
      <point x="189" y="435" type="line"/>
      <point x="137" y="484" type="line"/>
      <point x="96" y="467"/>
      <point x="53" y="449"/>
      <point x="9" y="423" type="curve"/>
      <point x="13" y="371" type="line"/>
    </contour>
    <contour>
      <point x="119" y="0" type="line"/>
      <point x="130" y="78" type="line"/>
      <point x="97" y="70"/>
      <point x="48" y="53"/>
      <point x="15" y="34" type="curve"/>
      <point x="18" y="0" type="line"/>
    </contour>
    <contour>
      <point x="315" y="0" type="line"/>
      <point x="319" y="49" type="line"/>
      <point x="286" y="67"/>
      <point x="243" y="79"/>
      <point x="204" y="87" type="curve"/>
      <point x="187" y="0" type="line"/>
    </contour>
    <contour>
      <point x="177" y="370" type="line"/>
      <point x="291" y="370" type="line"/>
      <point x="341" y="429" type="line"/>
      <point x="339" y="471" type="line"/>
      <point x="177" y="471" type="line"/>
    </contour>
  </outline>
</glyph>
<glyph name="g" format="1">
  <advance width="569"/>
  <unicode hex="0067"/>
  <outline>
    <contour>
      <point x="422" y="546"/>
      <point x="380" y="456"/>
      <point x="391" y="369" type="curve"/>
      <point x="414" y="386" type="line"/>
      <point x="453" y="418"/>
      <point x="500" y="431"/>
      <point x="556" y="426" type="curve"/>
      <point x="531" y="555" type="line"/>
    </contour>
    <contour>
      <point x="391" y="155"/>
      <point x="489" y="226"/>
      <point x="489" y="327" type="curve" smooth="yes"/>
      <point x="489" y="430"/>
      <point x="390" y="501"/>
      <point x="264" y="501" type="curve" smooth="yes"/>
      <point x="133" y="501"/>
      <point x="36" y="425"/>
      <point x="36" y="326" type="curve" smooth="yes"/>
      <point x="36" y="228"/>
      <point x="128" y="155"/>
      <point x="261" y="155" type="curve" smooth="yes"/>
    </contour>
    <contour>
      <point x="288" y="457"/>
      <point x="346" y="388"/>
      <point x="346" y="318" type="curve" smooth="yes"/>
      <point x="346" y="284"/>
      <point x="335" y="247"/>
      <point x="308" y="227" type="curve"/>
      <point x="225" y="201"/>
      <point x="178" y="256"/>
      <point x="178" y="330" type="curve" smooth="yes"/>
      <point x="178" y="364"/>
      <point x="186" y="401"/>
      <point x="206" y="421" type="curve"/>
    </contour>
    <contour>
      <point x="175" y="48" type="line"/>
      <point x="20" y="-92" type="line"/>
      <point x="23" y="-199"/>
      <point x="128" y="-242"/>
      <point x="228" y="-242" type="curve" smooth="yes"/>
      <point x="412" y="-242"/>
      <point x="572" y="-98"/>
      <point x="519" y="52" type="curve"/>
      <point x="425" y="83"/>
      <point x="283" y="110"/>
      <point x="175" y="112" type="curve"/>
      <point x="197" y="135"/>
      <point x="231" y="161"/>
      <point x="264" y="182" type="curve"/>
      <point x="206" y="198" type="line"/>
      <point x="152" y="173"/>
      <point x="92" y="124"/>
      <point x="47" y="75" type="curve"/>
      <point x="67" y="11" type="line"/>
      <point x="208" y="6"/>
      <point x="355" y="-21"/>
      <point x="430" y="-54" type="curve"/>
      <point x="397" y="-104"/>
      <point x="316" y="-130"/>
      <point x="248" y="-130" type="curve" smooth="yes"/>
      <point x="186" y="-130"/>
      <point x="136" y="-110"/>
      <point x="136" y="-72" type="curve" smooth="yes"/>
      <point x="136" y="-36"/>
      <point x="193" y="11"/>
      <point x="265" y="50" type="curve"/>
    </contour>
    <contour>
      <point x="261" y="468" type="move" name="top"/>
    </contour>
  </outline>
</glyph>
<glyph name="h" format="1">
  <advance width="622"/>
  <unicode hex="0068"/>
  <outline>
    <contour>
      <point x="125" y="641" type="line"/>
      <point x="191" y="681" type="line"/>
      <point x="187" y="736" type="line"/>
      <point x="126" y="734"/>
      <point x="61" y="721"/>
      <point x="9" y="701" type="curve"/>
      <point x="16" y="653" type="line"/>
    </contour>
    <contour>
      <point x="91" y="0" type="line"/>
      <point x="236" y="0" type="line"/>
      <point x="236" y="692" type="line"/>
      <point x="187" y="736" type="line"/>
      <point x="91" y="689" type="line"/>
    </contour>
    <contour>
      <point x="121" y="0" type="line"/>
      <point x="132" y="78" type="line"/>
      <point x="99" y="70"/>
      <point x="50" y="53"/>
      <point x="17" y="34" type="curve"/>
      <point x="20" y="0" type="line"/>
    </contour>
    <contour>
      <point x="293" y="0" type="line"/>
      <point x="297" y="49" type="line"/>
      <point x="264" y="69"/>
      <point x="221" y="83"/>
      <point x="182" y="91" type="curve"/>
      <point x="165" y="0" type="line"/>
    </contour>
    <contour>
      <point x="442" y="0" type="line"/>
      <point x="453" y="78" type="line"/>
      <point x="420" y="70"/>
      <point x="371" y="53"/>
      <point x="338" y="34" type="curve"/>
      <point x="341" y="0" type="line"/>
    </contour>
    <contour>
      <point x="606" y="0" type="line"/>
      <point x="610" y="49" type="line"/>
      <point x="577" y="68"/>
      <point x="531" y="82"/>
      <point x="491" y="90" type="curve"/>
      <point x="478" y="0" type="line"/>
    </contour>
    <contour>
      <point x="393" y="0" type="line"/>
      <point x="538" y="0" type="line"/>
      <point x="538" y="297" type="line" smooth="yes"/>
      <point x="538" y="377"/>
      <point x="535" y="403"/>
      <point x="525" y="421" type="curve" smooth="yes"/>
      <point x="497" y="467"/>
      <point x="441" y="489"/>
      <point x="403" y="491" type="curve"/>
      <point x="342" y="476"/>
      <point x="251" y="420"/>
      <point x="164" y="343" type="curve"/>
      <point x="174" y="311" type="line"/>
      <point x="222" y="348"/>
      <point x="283" y="385"/>
      <point x="326" y="387" type="curve" smooth="yes"/>
      <point x="366" y="388"/>
      <point x="393" y="357"/>
      <point x="393" y="289" type="curve" smooth="yes"/>
    </contour>
    <contour>
      <point x="313" y="234" type="move" name="center"/>
    </contour>
    <contour>
      <point x="133" y="710" type="move" name="top"/>
    </contour>
  </outline>
</glyph>
<glyph name="i" format="1">
  <advance width="325"/>
  <unicode hex="0069"/>
  <outline>
    <contour>
      <point x="204" y="582"/>
      <point x="235" y="619"/>
      <point x="253" y="657" type="curve"/>
      <point x="229" y="690"/>
      <point x="191" y="725"/>
      <point x="152" y="745" type="curve"/>
      <point x="118" y="720"/>
      <point x="87" y="681"/>
      <point x="66" y="639" type="curve"/>
      <point x="91" y="607"/>
      <point x="133" y="575"/>
      <point x="171" y="558" type="curve"/>
    </contour>
    <contour>
      <point x="125" y="398" type="line"/>
      <point x="191" y="438" type="line"/>
      <point x="187" y="494" type="line"/>
      <point x="126" y="492"/>
      <point x="61" y="479"/>
      <point x="9" y="459" type="curve"/>
      <point x="16" y="411" type="line"/>
    </contour>
    <contour>
      <point x="91" y="0" type="line"/>
      <point x="236" y="0" type="line"/>
      <point x="236" y="450" type="line"/>
      <point x="187" y="494" type="line"/>
      <point x="91" y="446" type="line"/>
    </contour>
    <contour>
      <point x="305" y="0" type="line"/>
      <point x="309" y="49" type="line"/>
      <point x="276" y="69"/>
      <point x="225" y="83"/>
      <point x="186" y="91" type="curve"/>
      <point x="169" y="0" type="line"/>
    </contour>
    <contour>
      <point x="119" y="0" type="line"/>
      <point x="130" y="78" type="line"/>
      <point x="97" y="70"/>
      <point x="48" y="53"/>
      <point x="15" y="34" type="curve"/>
      <point x="18" y="0" type="line"/>
    </contour>
    <contour>
      <point x="138" y="0" type="move" name="ogonek"/>
    </contour>
  </outline>
</glyph>
<glyph name="k" format="1">
  <advance width="610"/>
  <unicode hex="006B"/>
  <outline>
    <contour>
      <point x="125" y="641" type="line"/>
      <point x="191" y="681" type="line"/>
      <point x="187" y="736" type="line"/>
      <point x="126" y="734"/>
      <point x="61" y="721"/>
      <point x="9" y="701" type="curve"/>
      <point x="16" y="653" type="line"/>
    </contour>
    <contour>
      <point x="91" y="0" type="line"/>
      <point x="236" y="0" type="line"/>
      <point x="236" y="692" type="line"/>
      <point x="187" y="736" type="line"/>
      <point x="91" y="689" type="line"/>
    </contour>
    <contour>
      <point x="121" y="0" type="line"/>
      <point x="132" y="78" type="line"/>
      <point x="99" y="70"/>
      <point x="50" y="53"/>
      <point x="17" y="34" type="curve"/>
      <point x="20" y="0" type="line"/>
    </contour>
    <contour>
      <point x="287" y="0" type="line"/>
      <point x="291" y="49" type="line"/>
      <point x="258" y="69"/>
      <point x="215" y="83"/>
      <point x="176" y="91" type="curve"/>
      <point x="159" y="0" type="line"/>
    </contour>
    <contour>
      <point x="315" y="411" type="line"/>
      <point x="444" y="404" type="line"/>
      <point x="502" y="433" type="line"/>
      <point x="505" y="494" type="line"/>
      <point x="444" y="492"/>
      <point x="366" y="479"/>
      <point x="308" y="459" type="curve"/>
    </contour>
    <contour>
      <point x="505" y="494" type="line"/>
      <point x="416" y="446" type="line"/>
      <point x="273" y="267" type="line"/>
      <point x="192" y="214" type="line"/>
      <point x="216" y="189" type="line"/>
      <point x="353" y="200" type="line"/>
      <point x="545" y="432" type="line"/>
    </contour>
    <contour>
      <point x="537" y="72"/>
      <point x="515" y="76"/>
      <point x="488" y="115" type="curve" smooth="yes"/>
      <point x="381" y="271" type="line"/>
      <point x="256" y="232" type="line"/>
      <point x="367" y="53" type="line" smooth="yes"/>
      <point x="387" y="22"/>
      <point x="401" y="3"/>
      <point x="424" y="-9" type="curve"/>
      <point x="586" y="21" type="line"/>
      <point x="577" y="75" type="line"/>
    </contour>
    <contour>
      <point x="304" y="0" type="move" name="bottom"/>
    </contour>
  </outline>
</glyph>
<glyph name="m" format="1">
  <advance width="915"/>
  <unicode hex="006D"/>
  <outline>
    <contour>
      <point x="125" y="398" type="line"/>
      <point x="191" y="438" type="line"/>
      <point x="187" y="494" type="line"/>
      <point x="126" y="492"/>
      <point x="61" y="479"/>
      <point x="9" y="459" type="curve"/>
      <point x="16" y="411" type="line"/>
    </contour>
    <contour>
      <point x="91" y="0" type="line"/>
      <point x="236" y="0" type="line"/>
      <point x="236" y="446" type="line"/>
      <point x="187" y="494" type="line"/>
      <point x="91" y="446" type="line"/>
    </contour>
    <contour>
      <point x="389" y="0" type="line"/>
      <point x="534" y="0" type="line"/>
      <point x="534" y="297" type="line" smooth="yes"/>
      <point x="534" y="377"/>
      <point x="531" y="403"/>
      <point x="521" y="421" type="curve" smooth="yes"/>
      <point x="493" y="467"/>
      <point x="437" y="489"/>
      <point x="399" y="491" type="curve"/>
      <point x="338" y="476"/>
      <point x="247" y="420"/>
      <point x="160" y="343" type="curve"/>
      <point x="170" y="311" type="line"/>
      <point x="218" y="348"/>
      <point x="279" y="385"/>
      <point x="322" y="387" type="curve" smooth="yes"/>
      <point x="362" y="388"/>
      <point x="389" y="357"/>
      <point x="389" y="289" type="curve" smooth="yes"/>
    </contour>
    <contour>
      <point x="687" y="0" type="line"/>
      <point x="832" y="0" type="line"/>
      <point x="832" y="297" type="line" smooth="yes"/>
      <point x="832" y="377"/>
      <point x="829" y="403"/>
      <point x="819" y="421" type="curve" smooth="yes"/>
      <point x="791" y="467"/>
      <point x="735" y="489"/>
      <point x="697" y="491" type="curve"/>
      <point x="636" y="476"/>
      <point x="545" y="420"/>
      <point x="458" y="343" type="curve"/>
      <point x="468" y="311" type="line"/>
      <point x="516" y="348"/>
      <point x="577" y="385"/>
      <point x="620" y="387" type="curve" smooth="yes"/>
      <point x="660" y="388"/>
      <point x="687" y="357"/>
      <point x="687" y="289" type="curve" smooth="yes"/>
    </contour>
    <contour>
      <point x="122" y="0" type="line"/>
      <point x="133" y="78" type="line"/>
      <point x="100" y="70"/>
      <point x="51" y="53"/>
      <point x="18" y="34" type="curve"/>
      <point x="21" y="0" type="line"/>
    </contour>
    <contour>
      <point x="293" y="0" type="line"/>
      <point x="297" y="49" type="line"/>
      <point x="264" y="69"/>
      <point x="221" y="83"/>
      <point x="182" y="91" type="curve"/>
      <point x="165" y="0" type="line"/>
    </contour>
    <contour>
      <point x="438" y="0" type="line"/>
      <point x="449" y="78" type="line"/>
      <point x="416" y="70"/>
      <point x="367" y="53"/>
      <point x="334" y="34" type="curve"/>
      <point x="337" y="0" type="line"/>
    </contour>
    <contour>
      <point x="593" y="0" type="line"/>
      <point x="597" y="49" type="line"/>
      <point x="565" y="69"/>
      <point x="519" y="83"/>
      <point x="480" y="91" type="curve"/>
      <point x="463" y="0" type="line"/>
    </contour>
    <contour>
      <point x="735" y="0" type="line"/>
      <point x="746" y="78" type="line"/>
      <point x="713" y="70"/>
      <point x="664" y="53"/>
      <point x="631" y="34" type="curve"/>
      <point x="634" y="0" type="line"/>
    </contour>
    <contour>
      <point x="898" y="0" type="line"/>
      <point x="902" y="49" type="line"/>
      <point x="870" y="69"/>
      <point x="816" y="83"/>
      <point x="777" y="91" type="curve"/>
      <point x="760" y="0" type="line"/>
    </contour>
  </outline>
</glyph>
<glyph name="r" format="1">
  <advance width="472"/>
  <unicode hex="0072"/>
  <outline>
    <contour>
      <point x="125" y="398" type="line"/>
      <point x="191" y="438" type="line"/>
      <point x="187" y="494" type="line"/>
      <point x="126" y="492"/>
      <point x="61" y="479"/>
      <point x="9" y="459" type="curve"/>
      <point x="16" y="411" type="line"/>
    </contour>
    <contour>
      <point x="91" y="0" type="line"/>
      <point x="236" y="0" type="line"/>
      <point x="236" y="450" type="line"/>
      <point x="187" y="494" type="line"/>
      <point x="91" y="446" type="line"/>
    </contour>
    <contour>
      <point x="121" y="0" type="line"/>
      <point x="132" y="78" type="line"/>
      <point x="99" y="70"/>
      <point x="50" y="53"/>
      <point x="17" y="34" type="curve"/>
      <point x="20" y="0" type="line"/>
    </contour>
    <contour>
      <point x="340" y="0" type="line"/>
      <point x="344" y="49" type="line"/>
      <point x="311" y="67"/>
      <point x="256" y="80"/>
      <point x="217" y="87" type="curve"/>
      <point x="200" y="0" type="line"/>
    </contour>
    <contour>
      <point x="165" y="289" type="line"/>
      <point x="200" y="233" type="line"/>
      <point x="235" y="293"/>
      <point x="293" y="349"/>
      <point x="337" y="382" type="curve"/>
      <point x="357" y="270" type="line"/>
      <point x="433" y="270" type="line"/>
      <point x="456" y="325"/>
      <point x="468" y="401"/>
      <point x="470" y="459" type="curve"/>
      <point x="441" y="486"/>
      <point x="386" y="498"/>
      <point x="336" y="480" type="curve"/>
    </contour>
    <contour>
      <point x="250" y="468" type="move" name="top"/>
    </contour>
    <contour>
      <point x="188" y="0" type="move" name="bottom"/>
    </contour>
  </outline>
</glyph>
<glyph name="u" format="1">
  <advance width="612"/>
  <unicode hex="0075"/>
  <outline>
    <contour>
      <point x="116" y="398" type="line"/>
      <point x="182" y="438" type="line"/>
      <point x="178" y="494" type="line"/>
      <point x="117" y="492"/>
      <point x="52" y="479"/>
      <point x="0" y="459" type="curve"/>
      <point x="7" y="411" type="line"/>
    </contour>
    <contour>
      <point x="449" y="157" type="line"/>
      <point x="399" y="123"/>
      <point x="344" y="91"/>
      <point x="296" y="89" type="curve" smooth="yes"/>
      <point x="249" y="87"/>
      <point x="227" y="115"/>
      <point x="227" y="177" type="curve" smooth="yes"/>
      <point x="227" y="450" type="line"/>
      <point x="178" y="494" type="line"/>
      <point x="82" y="448" type="line"/>
      <point x="82" y="179" type="line" smooth="yes"/>
      <point x="82" y="100"/>
      <point x="85" y="74"/>
      <point x="97" y="55" type="curve" smooth="yes"/>
      <point x="126" y="11"/>
      <point x="179" y="-14"/>
      <point x="218" y="-16" type="curve"/>
      <point x="284" y="-1"/>
      <point x="383" y="52"/>
      <point x="459" y="125" type="curve"/>
    </contour>
    <contour>
      <point x="411" y="398" type="line"/>
      <point x="477" y="438" type="line"/>
      <point x="473" y="494" type="line"/>
      <point x="416" y="492"/>
      <point x="355" y="480"/>
      <point x="307" y="461" type="curve"/>
      <point x="314" y="413" type="line"/>
    </contour>
    <contour>
      <point x="578" y="90"/>
      <point x="562" y="87"/>
      <point x="547" y="87" type="curve" smooth="yes"/>
      <point x="532" y="87"/>
      <point x="522" y="96"/>
      <point x="522" y="110" type="curve"/>
      <point x="522" y="450" type="line"/>
      <point x="473" y="494" type="line"/>
      <point x="377" y="448" type="line"/>
      <point x="377" y="80" type="line"/>
      <point x="387" y="71" type="line"/>
      <point x="405" y="24"/>
      <point x="449" y="-15"/>
      <point x="483" y="-16" type="curve"/>
      <point x="606" y="48" type="line"/>
      <point x="597" y="93" type="line"/>
    </contour>
    <contour>
      <point x="549" y="11" type="move" name="ogonek"/>
    </contour>
    <contour>
      <point x="282" y="468" type="move" name="top"/>
    </contour>
  </outline>
</glyph>
<glyph name="y" format="1">
  <advance width="541"/>
  <unicode hex="0079"/>
  <outline>
    <contour>
      <point x="-22" y="423" type="line"/>
      <point x="138" y="354" type="line"/>
      <point x="171" y="475" type="line"/>
      <point x="-22" y="475" type="line"/>
    </contour>
    <contour>
      <point x="143" y="475" type="line"/>
      <point x="168" y="395" type="line"/>
      <point x="196" y="404"/>
      <point x="222" y="416"/>
      <point x="247" y="431" type="curve"/>
      <point x="244" y="475" type="line"/>
    </contour>
    <contour>
      <point x="294" y="423" type="line"/>
      <point x="428" y="373" type="line"/>
      <point x="434" y="475" type="line"/>
      <point x="295" y="475" type="line"/>
    </contour>
    <contour>
      <point x="413" y="475" type="line"/>
      <point x="466" y="395" type="line"/>
      <point x="494" y="404"/>
      <point x="524" y="416"/>
      <point x="549" y="431" type="curve"/>
      <point x="546" y="475" type="line"/>
    </contour>
    <contour>
      <point x="260" y="-145"/>
      <point x="338" y="-49"/>
      <point x="389" y="74" type="curve"/>
      <point x="435" y="198"/>
      <point x="477" y="349"/>
      <point x="514" y="475" type="curve"/>
      <point x="356" y="475" type="line"/>
      <point x="345" y="369"/>
      <point x="314" y="229"/>
      <point x="282" y="127" type="curve"/>
      <point x="264" y="127" type="line"/>
      <point x="252" y="214" type="line"/>
      <point x="174" y="475" type="line"/>
      <point x="24" y="453" type="line"/>
      <point x="175" y="38" type="line"/>
      <point x="197" y="23"/>
      <point x="225" y="11"/>
      <point x="250" y="5" type="curve"/>
      <point x="194" y="-42"/>
      <point x="123" y="-70"/>
      <point x="47" y="-91" type="curve"/>
      <point x="124" y="-222" type="line"/>
    </contour>
    <contour>
      <point x="273" y="468" type="move" name="top"/>
    </contour>
  </outline>
</glyph>
<glyph name="z" format="1">
  <advance width="509"/>
  <unicode hex="007A"/>
  <outline>
    <contour>
      <point x="45" y="384" type="line"/>
      <point x="387" y="423" type="line"/>
      <point x="428" y="475" type="line"/>
      <point x="42" y="475" type="line"/>
    </contour>
    <contour>
      <point x="442" y="497" type="line"/>
      <point x="387" y="460" type="line"/>
      <point x="335" y="460" type="line"/>
      <point x="19" y="29" type="line"/>
      <point x="74" y="-17" type="line"/>
      <point x="140" y="35" type="line"/>
      <point x="194" y="51" type="line"/>
      <point x="490" y="451" type="line"/>
    </contour>
    <contour>
      <point x="430" y="173" type="line"/>
      <point x="397" y="102" type="line"/>
      <point x="122" y="80" type="line"/>
      <point x="89" y="24" type="line"/>
      <point x="454" y="-15" type="line"/>
      <point x="470" y="37"/>
      <point x="482" y="99"/>
      <point x="485" y="163" type="curve"/>
    </contour>
    <contour>
      <point x="126" y="296" type="line"/>
      <point x="169" y="435" type="line"/>
      <point x="42" y="475" type="line"/>
      <point x="35" y="423"/>
      <point x="38" y="347"/>
      <point x="48" y="296" type="curve"/>
    </contour>
    <contour>
      <point x="260" y="468" type="move" name="top"/>
    </contour>
  </outline>
</glyph>
<glyph name="braceleft" format="1">
  <advance width="492"/>
  <unicode hex="007B"/>
  <outline>
    <contour>
      <point x="405" y="-48" type="line"/>
      <point x="299" y="-36" type="line"/>
      <point x="307" y="149" type="line" smooth="yes"/>
      <point x="310" y="202"/>
      <point x="291" y="250"/>
      <point x="253" y="295" type="curve"/>
      <point x="253" y="304" type="line"/>
      <point x="291" y="348"/>
      <point x="310" y="398"/>
      <point x="307" y="449" type="curve" smooth="yes"/>
      <point x="299" y="632" type="line"/>
      <point x="408" y="632" type="line"/>
      <point x="402" y="729" type="line"/>
      <point x="225" y="715"/>
      <point x="152" y="628"/>
      <point x="152" y="549" type="curve" smooth="yes"/>
      <point x="152" y="443" type="line" smooth="yes"/>
      <point x="152" y="374"/>
      <point x="145" y="333"/>
      <point x="71" y="327" type="curve"/>
      <point x="65" y="268" type="line"/>
      <point x="147" y="262"/>
      <point x="152" y="223"/>
      <point x="152" y="142" type="curve" smooth="yes"/>
      <point x="152" y="22" type="line" smooth="yes"/>
      <point x="152" y="-48"/>
      <point x="239" y="-135"/>
      <point x="395" y="-145" type="curve"/>
    </contour>
  </outline>
</glyph>
<glyph name="bar" format="1">
  <advance width="313"/>
  <unicode hex="007C"/>
  <outline>
    <contour>
      <point x="212" y="-225" type="line"/>
      <point x="211" y="735" type="line"/>
      <point x="100" y="735" type="line"/>
      <point x="100" y="-225" type="line"/>
    </contour>
  </outline>
</glyph>
<glyph name="cent" format="1">
  <advance width="455"/>
  <unicode hex="00A2"/>
  <outline>
    <contour>
      <point x="214" y="462" type="line"/>
      <point x="300" y="462" type="line"/>
      <point x="300" y="601" type="line"/>
      <point x="214" y="601" type="line"/>
    </contour>
    <contour>
      <point x="214" y="-116" type="line"/>
      <point x="300" y="-116" type="line"/>
      <point x="300" y="24" type="line"/>
      <point x="214" y="24" type="line"/>
    </contour>
    <component base="c" yOffset="22" yScale="0.931"/>
  </outline>
</glyph>
<glyph name="yen" format="1">
  <advance width="641"/>
  <unicode hex="00A5"/>
  <outline>
    <contour>
      <point x="511" y="269" type="line"/>
      <point x="505" y="302" type="line"/>
      <point x="142" y="302" type="line"/>
      <point x="99" y="270" type="line"/>
      <point x="105" y="237" type="line"/>
      <point x="468" y="237" type="line"/>
    </contour>
    <contour>
      <point x="511" y="149" type="line"/>
      <point x="505" y="182" type="line"/>
      <point x="142" y="182" type="line"/>
      <point x="99" y="150" type="line"/>
      <point x="105" y="117" type="line"/>
      <point x="468" y="117" type="line"/>
    </contour>
    <component base="Y" xOffset="-22"/>
  </outline>
</glyph>
<glyph name="section" format="1">
  <advance width="534"/>
  <unicode hex="00A7"/>
  <outline>
    <contour>
      <point x="466" y="533"/>
      <point x="469" y="598"/>
      <point x="466" y="638" type="curve"/>
      <point x="337" y="616" type="line"/>
      <point x="377" y="478" type="line"/>
      <point x="454" y="477" type="line"/>
    </contour>
    <contour>
      <point x="383" y="109" type="line"/>
      <point x="455" y="145"/>
      <point x="493" y="190"/>
      <point x="493" y="251" type="curve" smooth="yes"/>
      <point x="493" y="347"/>
      <point x="396" y="391"/>
      <point x="321" y="424" type="curve" smooth="yes"/>
      <point x="244" y="456"/>
      <point x="195" y="474"/>
      <point x="195" y="521" type="curve" smooth="yes"/>
      <point x="195" y="548"/>
      <point x="212" y="576"/>
      <point x="238" y="591" type="curve"/>
      <point x="314" y="602"/>
      <point x="384" y="578"/>
      <point x="426" y="539" type="curve"/>
      <point x="466" y="638" type="line"/>
      <point x="421" y="656"/>
      <point x="356" y="671"/>
      <point x="298" y="671" type="curve" smooth="yes"/>
      <point x="172" y="671"/>
      <point x="71" y="605"/>
      <point x="71" y="503" type="curve" smooth="yes"/>
      <point x="71" y="424"/>
      <point x="134" y="376"/>
      <point x="232" y="334" type="curve" smooth="yes"/>
      <point x="303" y="305"/>
      <point x="381" y="282"/>
      <point x="381" y="218" type="curve" smooth="yes"/>
      <point x="381" y="192"/>
      <point x="368" y="175"/>
      <point x="338" y="150" type="curve"/>
    </contour>
    <contour>
      <point x="194" y="411" type="line"/>
      <point x="117" y="383"/>
      <point x="62" y="331"/>
      <point x="62" y="259" type="curve" smooth="yes"/>
      <point x="62" y="172"/>
      <point x="143" y="130"/>
      <point x="232" y="90" type="curve" smooth="yes"/>
      <point x="301" y="62"/>
      <point x="364" y="46"/>
      <point x="364" y="-5" type="curve" smooth="yes"/>
      <point x="364" y="-23"/>
      <point x="354" y="-43"/>
      <point x="335" y="-59" type="curve"/>
      <point x="272" y="-55"/>
      <point x="191" y="-26"/>
      <point x="126" y="23" type="curve"/>
      <point x="68" y="-89" type="line"/>
      <point x="133" y="-131"/>
      <point x="218" y="-149"/>
      <point x="275" y="-149" type="curve" smooth="yes"/>
      <point x="387" y="-149"/>
      <point x="475" y="-82"/>
      <point x="475" y="13" type="curve" smooth="yes"/>
      <point x="475" y="91"/>
      <point x="415" y="139"/>
      <point x="317" y="178" type="curve" smooth="yes"/>
      <point x="240" y="209"/>
      <point x="171" y="229"/>
      <point x="171" y="284" type="curve" smooth="yes"/>
      <point x="171" y="314"/>
      <point x="192" y="339"/>
      <point x="223" y="360" type="curve"/>
    </contour>
  </outline>
</glyph>
<glyph name="copyright" format="1">
  <advance width="800"/>
  <unicode hex="00A9"/>
  <outline>
    <contour>
      <point x="600" y="-23"/>
      <point x="756" y="135"/>
      <point x="756" y="331" type="curve" smooth="yes"/>
      <point x="756" y="531"/>
      <point x="595" y="689"/>
      <point x="398" y="689" type="curve" smooth="yes"/>
      <point x="201" y="689"/>
      <point x="43" y="532"/>
      <point x="43" y="332" type="curve" smooth="yes"/>
      <point x="43" y="130"/>
      <point x="203" y="-23"/>
      <point x="400" y="-23" type="curve" smooth="yes"/>
    </contour>
    <contour>
      <point x="240" y="50"/>
      <point x="116" y="171"/>
      <point x="116" y="330" type="curve" smooth="yes"/>
      <point x="116" y="491"/>
      <point x="244" y="617"/>
      <point x="400" y="617" type="curve" smooth="yes"/>
      <point x="557" y="617"/>
      <point x="684" y="490"/>
      <point x="684" y="333" type="curve" smooth="yes"/>
      <point x="684" y="177"/>
      <point x="559" y="50"/>
      <point x="398" y="50" type="curve" smooth="yes"/>
    </contour>
    <contour>
      <point x="543" y="244" type="line"/>
      <point x="509" y="230"/>
      <point x="482" y="224"/>
      <point x="453" y="224" type="curve" smooth="yes"/>
      <point x="367" y="224"/>
      <point x="322" y="280"/>
      <point x="322" y="346" type="curve" smooth="yes"/>
      <point x="322" y="386"/>
      <point x="338" y="432"/>
      <point x="371" y="463" type="curve"/>
      <point x="421" y="449"/>
      <point x="452" y="420"/>
      <point x="478" y="375" type="curve"/>
      <point x="571" y="432" type="line"/>
      <point x="534" y="505"/>
      <point x="476" y="529"/>
      <point x="412" y="529" type="curve" smooth="yes"/>
      <point x="291" y="529"/>
      <point x="210" y="442"/>
      <point x="210" y="330" type="curve" smooth="yes"/>
      <point x="210" y="211"/>
      <point x="302" y="129"/>
      <point x="430" y="135" type="curve"/>
      <point x="560" y="199" type="line"/>
    </contour>
  </outline>
</glyph>
<glyph name="ordfeminine" format="1">
  <advance width="429"/>
  <unicode hex="00AA"/>
  <outline>
    <contour>
      <point x="56" y="429"/>
      <point x="43" y="400"/>
      <point x="43" y="375" type="curve" smooth="yes"/>
      <point x="43" y="329"/>
      <point x="84" y="287"/>
      <point x="163" y="295" type="curve"/>
      <point x="245" y="350" type="line"/>
      <point x="238" y="375" type="line"/>
      <point x="220" y="368"/>
      <point x="179" y="355"/>
      <point x="151" y="355" type="curve"/>
      <point x="144" y="361"/>
      <point x="139" y="369"/>
      <point x="139" y="380" type="curve" smooth="yes"/>
      <point x="139" y="414"/>
      <point x="187" y="417"/>
      <point x="221" y="414" type="curve" smooth="yes"/>
      <point x="242" y="412" type="line"/>
      <point x="243" y="454" type="line"/>
      <point x="90" y="451" type="line"/>
    </contour>
    <contour>
      <point x="57" y="557"/>
      <point x="62" y="519"/>
      <point x="69" y="490" type="curve"/>
      <point x="132" y="493" type="line"/>
      <point x="144" y="567" type="line"/>
      <point x="156" y="570"/>
      <point x="174" y="573"/>
      <point x="195" y="573" type="curve"/>
      <point x="214" y="564"/>
      <point x="227" y="545"/>
      <point x="227" y="507" type="curve" smooth="yes"/>
      <point x="227" y="354" type="line"/>
      <point x="232" y="350" type="line"/>
      <point x="245" y="317"/>
      <point x="275" y="294"/>
      <point x="300" y="293" type="curve"/>
      <point x="385" y="339" type="line"/>
      <point x="380" y="368" type="line"/>
      <point x="367" y="367"/>
      <point x="357" y="365"/>
      <point x="347" y="365" type="curve" smooth="yes"/>
      <point x="336" y="365"/>
      <point x="330" y="372"/>
      <point x="330" y="381" type="curve"/>
      <point x="330" y="506" type="line" smooth="yes"/>
      <point x="330" y="547"/>
      <point x="329" y="560"/>
      <point x="323" y="572" type="curve" smooth="yes"/>
      <point x="306" y="600"/>
      <point x="275" y="626"/>
      <point x="234" y="627" type="curve" smooth="yes"/>
      <point x="188" y="627"/>
      <point x="104" y="610"/>
      <point x="59" y="585" type="curve"/>
    </contour>
    <contour>
      <point x="30" y="255" type="line"/>
      <point x="30" y="196" type="line"/>
      <point x="398" y="196" type="line"/>
      <point x="398" y="255" type="line"/>
    </contour>
  </outline>
</glyph>
<glyph name="guillemetleft" format="1">
  <advance width="582"/>
  <unicode hex="00AB"/>
  <outline>
    <contour>
      <point x="56" y="220" type="line"/>
      <point x="214" y="38" type="line"/>
      <point x="291" y="90" type="line"/>
      <point x="196" y="253" type="line"/>
      <point x="285" y="424" type="line"/>
      <point x="211" y="472" type="line"/>
      <point x="56" y="286" type="line"/>
    </contour>
    <contour>
      <point x="290" y="220" type="line"/>
      <point x="448" y="38" type="line"/>
      <point x="525" y="90" type="line"/>
      <point x="430" y="253" type="line"/>
      <point x="519" y="424" type="line"/>
      <point x="445" y="472" type="line"/>
      <point x="290" y="286" type="line"/>
    </contour>
  </outline>
</glyph>
<glyph name="softhyphen" format="1">
  <advance width="427"/>
  <unicode hex="00AD"/>
  <outline>
    <contour>
      <point x="367" y="231" type="line"/>
      <point x="384" y="266" type="line"/>
      <point x="336" y="342" type="line"/>
      <point x="49" y="342" type="line"/>
      <point x="32" y="308" type="line"/>
      <point x="80" y="231" type="line"/>
    </contour>
  </outline>
</glyph>
<glyph name="registered" format="1">
  <advance width="573"/>
  <unicode hex="00AE"/>
  <outline>
    <contour>
      <point x="558" y="661"/>
      <point x="444" y="773"/>
      <point x="287" y="773" type="curve" smooth="yes"/>
      <point x="130" y="773"/>
      <point x="13" y="661"/>
      <point x="13" y="504" type="curve" smooth="yes"/>
      <point x="13" y="350"/>
      <point x="123" y="235"/>
      <point x="285" y="235" type="curve" smooth="yes"/>
      <point x="446" y="235"/>
      <point x="558" y="350"/>
      <point x="558" y="504" type="curve" smooth="yes"/>
    </contour>
    <contour>
      <point x="504" y="374"/>
      <point x="412" y="286"/>
      <point x="281" y="286" type="curve" smooth="yes"/>
      <point x="152" y="286"/>
      <point x="67" y="372"/>
      <point x="67" y="500" type="curve" smooth="yes"/>
      <point x="67" y="631"/>
      <point x="158" y="723"/>
      <point x="286" y="723" type="curve" smooth="yes"/>
      <point x="414" y="723"/>
      <point x="504" y="632"/>
      <point x="504" y="503" type="curve" smooth="yes"/>
    </contour>
    <contour>
      <point x="144" y="645" type="line"/>
      <point x="144" y="617" type="line"/>
      <point x="201" y="611" type="line"/>
      <point x="201" y="645" type="line"/>
    </contour>
    <contour>
      <point x="179" y="376" type="line"/>
      <point x="249" y="376" type="line"/>
      <point x="249" y="645" type="line"/>
      <point x="179" y="645" type="line"/>
    </contour>
    <contour>
      <point x="327" y="598"/>
      <point x="336" y="579"/>
      <point x="336" y="560" type="curve" smooth="yes"/>
      <point x="336" y="533"/>
      <point x="320" y="513"/>
      <point x="270" y="513" type="curve" smooth="yes"/>
      <point x="256" y="513"/>
      <point x="245" y="515"/>
      <point x="232" y="518" type="curve"/>
      <point x="231" y="477" type="line"/>
      <point x="296" y="477" type="line" smooth="yes"/>
      <point x="375" y="477"/>
      <point x="411" y="519"/>
      <point x="411" y="561" type="curve" smooth="yes"/>
      <point x="411" y="608"/>
      <point x="368" y="645"/>
      <point x="291" y="645" type="curve"/>
      <point x="219" y="645" type="line"/>
      <point x="240" y="602" type="line"/>
      <point x="303" y="609" type="line"/>
    </contour>
    <contour>
      <point x="188" y="415"/>
      <point x="156" y="404"/>
      <point x="141" y="395" type="curve"/>
      <point x="145" y="376" type="line"/>
      <point x="189" y="376" type="line"/>
      <point x="194" y="418" type="line"/>
    </contour>
    <contour>
      <point x="225" y="376" type="line"/>
      <point x="288" y="376" type="line"/>
      <point x="289" y="402" type="line"/>
      <point x="227" y="410" type="line"/>
    </contour>
    <contour>
      <point x="271" y="500" type="line"/>
      <point x="341" y="376" type="line"/>
      <point x="423" y="376" type="line"/>
      <point x="341" y="504" type="line"/>
    </contour>
    <contour>
      <point x="370" y="376" type="line"/>
      <point x="434" y="376" type="line"/>
      <point x="434" y="402" type="line"/>
      <point x="372" y="410" type="line"/>
    </contour>
  </outline>
</glyph>
<glyph name="plusminus" format="1">
  <advance width="546"/>
  <unicode hex="00B1"/>
  <outline>
    <contour>
      <point x="322" y="417" type="line"/>
      <point x="322" y="595" type="line"/>
      <point x="225" y="595" type="line"/>
      <point x="225" y="417" type="line"/>
      <point x="56" y="417" type="line"/>
      <point x="56" y="332" type="line"/>
      <point x="225" y="332" type="line"/>
      <point x="225" y="153" type="line"/>
      <point x="322" y="153" type="line"/>
      <point x="322" y="332" type="line"/>
      <point x="490" y="332" type="line"/>
      <point x="490" y="417" type="line"/>
    </contour>
    <contour>
      <point x="59" y="86" type="line"/>
      <point x="60" y="0" type="line"/>
      <point x="483" y="0" type="line"/>
      <point x="483" y="86" type="line"/>
    </contour>
  </outline>
</glyph>
<glyph name="micro" format="1">
  <advance width="582"/>
  <unicode hex="00B5"/>
  <outline>
    <contour>
      <point x="548" y="90"/>
      <point x="532" y="87"/>
      <point x="517" y="87" type="curve" smooth="yes"/>
      <point x="502" y="87"/>
      <point x="492" y="96"/>
      <point x="492" y="110" type="curve"/>
      <point x="492" y="491" type="line"/>
      <point x="438" y="492"/>
      <point x="373" y="479"/>
      <point x="347" y="471" type="curve"/>
      <point x="347" y="80" type="line"/>
      <point x="357" y="71" type="line"/>
      <point x="375" y="24"/>
      <point x="419" y="-15"/>
      <point x="453" y="-16" type="curve"/>
      <point x="576" y="48" type="line"/>
      <point x="567" y="93" type="line"/>
    </contour>
    <contour>
      <point x="53" y="-226" type="line"/>
      <point x="111" y="-239"/>
      <point x="182" y="-217"/>
      <point x="204" y="-195" type="curve"/>
      <point x="130" y="31" type="line"/>
      <point x="149" y="4"/>
      <point x="173" y="-14"/>
      <point x="192" y="-14" type="curve"/>
      <point x="248" y="1"/>
      <point x="347" y="47"/>
      <point x="435" y="125" type="curve"/>
      <point x="425" y="157" type="line"/>
      <point x="378" y="126"/>
      <point x="319" y="91"/>
      <point x="270" y="90" type="curve" smooth="yes"/>
      <point x="225" y="88"/>
      <point x="197" y="114"/>
      <point x="197" y="177" type="curve" smooth="yes"/>
      <point x="197" y="491" type="line"/>
      <point x="143" y="492"/>
      <point x="78" y="479"/>
      <point x="52" y="471" type="curve"/>
    </contour>
    <contour>
      <point x="101" y="20" type="line"/>
      <point x="169" y="20" type="line"/>
      <point x="169" y="58" type="line"/>
      <point x="101" y="58" type="line"/>
    </contour>
  </outline>
</glyph>
<glyph name="periodcentered" format="1">
  <advance width="254"/>
  <unicode hex="00B7"/>
  <outline>
    <contour>
      <point x="155" y="205"/>
      <point x="186" y="245"/>
      <point x="199" y="279" type="curve"/>
      <point x="181" y="304"/>
      <point x="141" y="340"/>
      <point x="107" y="353" type="curve"/>
      <point x="78" y="336"/>
      <point x="49" y="296"/>
      <point x="30" y="259" type="curve"/>
      <point x="50" y="231"/>
      <point x="96" y="197"/>
      <point x="126" y="185" type="curve"/>
    </contour>
  </outline>
</glyph>
<glyph name="onesuperior" format="1">
  <advance width="259"/>
  <unicode hex="00B9"/>
  <outline>
    <contour>
      <point x="138" y="682" type="line"/>
      <point x="148" y="727" type="line"/>
      <point x="138" y="747" type="line"/>
      <point x="8" y="672" type="line"/>
      <point x="26" y="637" type="line"/>
    </contour>
    <contour>
      <point x="179" y="721" type="line"/>
      <point x="138" y="747" type="line"/>
      <point x="130" y="710" type="line"/>
    </contour>
    <contour>
      <point x="86" y="421" type="line"/>
      <point x="178" y="421" type="line"/>
      <point x="178" y="721" type="line"/>
      <point x="86" y="712" type="line"/>
    </contour>
    <contour>
      <point x="96" y="421" type="line"/>
      <point x="97" y="468" type="line"/>
      <point x="72" y="462"/>
      <point x="40" y="448"/>
      <point x="22" y="436" type="curve"/>
      <point x="25" y="421" type="line"/>
    </contour>
    <contour>
      <point x="235" y="421" type="line"/>
      <point x="236" y="448" type="line"/>
      <point x="169" y="464" type="line"/>
      <point x="167" y="421" type="line"/>
    </contour>
  </outline>
</glyph>
<glyph name="ordmasculine" format="1">
  <advance width="428"/>
  <unicode hex="00BA"/>
  <outline>
    <contour>
      <point x="32" y="353"/>
      <point x="108" y="285"/>
      <point x="199" y="285" type="curve" smooth="yes"/>
      <point x="285" y="285"/>
      <point x="365" y="343"/>
      <point x="365" y="455" type="curve" smooth="yes"/>
      <point x="365" y="565"/>
      <point x="286" y="630"/>
      <point x="202" y="630" type="curve" smooth="yes"/>
      <point x="120" y="630"/>
      <point x="32" y="569"/>
      <point x="32" y="457" type="curve" smooth="yes"/>
    </contour>
    <contour>
      <point x="225" y="348"/>
      <point x="218" y="347"/>
      <point x="210" y="347" type="curve" smooth="yes"/>
      <point x="161" y="347"/>
      <point x="139" y="392"/>
      <point x="139" y="458" type="curve" smooth="yes"/>
      <point x="139" y="506"/>
      <point x="151" y="548"/>
      <point x="166" y="559" type="curve"/>
      <point x="174" y="561"/>
      <point x="180" y="563"/>
      <point x="189" y="563" type="curve" smooth="yes"/>
      <point x="242" y="563"/>
      <point x="259" y="503"/>
      <point x="259" y="440" type="curve" smooth="yes"/>
      <point x="259" y="384"/>
      <point x="242" y="354"/>
      <point x="232" y="350" type="curve"/>
    </contour>
    <contour>
      <point x="18" y="255" type="line"/>
      <point x="18" y="196" type="line"/>
      <point x="382" y="196" type="line"/>
      <point x="382" y="255" type="line"/>
    </contour>
  </outline>
</glyph>
<glyph name="guillemetright" format="1">
  <advance width="582"/>
  <unicode hex="00BB"/>
  <outline>
    <contour>
      <point x="525" y="286" type="line"/>
      <point x="370" y="472" type="line"/>
      <point x="296" y="424" type="line"/>
      <point x="385" y="253" type="line"/>
      <point x="290" y="90" type="line"/>
      <point x="367" y="38" type="line"/>
      <point x="525" y="220" type="line"/>
    </contour>
    <contour>
      <point x="291" y="286" type="line"/>
      <point x="136" y="472" type="line"/>
      <point x="62" y="424" type="line"/>
      <point x="151" y="253" type="line"/>
      <point x="56" y="90" type="line"/>
      <point x="133" y="38" type="line"/>
      <point x="291" y="220" type="line"/>
    </contour>
  </outline>
</glyph>
<glyph name="germandbls" format="1">
  <advance width="612"/>
  <unicode hex="00DF"/>
  <outline>
    <contour>
      <point x="215" y="687"/>
      <point x="82" y="634"/>
      <point x="82" y="478" type="curve" smooth="yes"/>
      <point x="82" y="0" type="line"/>
      <point x="226" y="0" type="line"/>
      <point x="226" y="436" type="line"/>
      <point x="218" y="573" type="line"/>
      <point x="256" y="598"/>
      <point x="313" y="599"/>
      <point x="344" y="590" type="curve"/>
      <point x="409" y="508"/>
      <point x="332" y="410"/>
      <point x="285" y="334" type="curve"/>
      <point x="293" y="226"/>
      <point x="456" y="207"/>
      <point x="456" y="122" type="curve" smooth="yes"/>
      <point x="456" y="105"/>
      <point x="449" y="90"/>
      <point x="437" y="73" type="curve"/>
      <point x="389" y="83"/>
      <point x="341" y="111"/>
      <point x="311" y="136" type="curve"/>
      <point x="271" y="13" type="line"/>
      <point x="315" y="-6"/>
      <point x="367" y="-18"/>
      <point x="412" y="-18" type="curve" smooth="yes"/>
      <point x="513" y="-18"/>
      <point x="593" y="37"/>
      <point x="593" y="131" type="curve" smooth="yes"/>
      <point x="593" y="266"/>
      <point x="428" y="296"/>
      <point x="407" y="367" type="curve"/>
      <point x="476" y="413"/>
      <point x="506" y="461"/>
      <point x="506" y="513" type="curve" smooth="yes"/>
      <point x="506" y="602"/>
      <point x="420" y="687"/>
      <point x="299" y="687" type="curve" smooth="yes"/>
    </contour>
    <contour>
      <point x="162" y="369" type="line"/>
      <point x="185" y="431" type="line"/>
      <point x="133" y="480" type="line"/>
      <point x="88" y="467"/>
      <point x="45" y="449"/>
      <point x="5" y="419" type="curve"/>
      <point x="9" y="367" type="line"/>
    </contour>
    <contour>
      <point x="115" y="0" type="line"/>
      <point x="126" y="78" type="line"/>
      <point x="93" y="70"/>
      <point x="44" y="53"/>
      <point x="11" y="34" type="curve"/>
      <point x="14" y="0" type="line"/>
    </contour>
  </outline>
</glyph>
<glyph name="eogonek" format="1">
  <advance width="500"/>
  <unicode hex="0119"/>
  <outline>
    <contour>
      <point x="407" y="74" type="line"/>
      <point x="260" y="29"/>
      <point x="180" y="-49"/>
      <point x="180" y="-122" type="curve" smooth="yes"/>
      <point x="180" y="-183"/>
      <point x="234" y="-239"/>
      <point x="319" y="-231" type="curve"/>
      <point x="442" y="-169" type="line"/>
      <point x="421" y="-122" type="line"/>
      <point x="336" y="-170"/>
      <point x="284" y="-144"/>
      <point x="284" y="-93" type="curve" smooth="yes"/>
      <point x="284" y="-42"/>
      <point x="337" y="2"/>
      <point x="411" y="44" type="curve" smooth="yes"/>
      <point x="455" y="68" type="line"/>
    </contour>
    <component base="e"/>
  </outline>
</glyph>
<glyph name="imacron" format="1">
  <advance width="341"/>
  <unicode hex="012B"/>
  <outline>
    <contour>
      <point x="96" y="662"/>
      <point x="53" y="657"/>
      <point x="14" y="637" type="curve"/>
      <point x="20" y="573" type="line"/>
      <point x="278" y="573" type="line"/>
      <point x="325" y="615" type="line"/>
      <point x="320" y="662" type="line"/>
      <point x="127" y="662" type="line"/>
    </contour>
    <component base="dotlessi" xOffset="16"/>
  </outline>
</glyph>
<glyph name="lslash" format="1">
  <advance width="407"/>
  <unicode hex="0142"/>
  <outline>
    <contour>
      <point x="9" y="323" type="line"/>
      <point x="42" y="260" type="line"/>
      <point x="353" y="422" type="line"/>
      <point x="354" y="474" type="line"/>
      <point x="329" y="491" type="line"/>
    </contour>
    <component base="l" xOffset="22"/>
  </outline>
</glyph>
<glyph name="gravecomb" format="1">
  <advance width="0"/>
  <unicode hex="0300"/>
  <outline>
    <contour>
      <point x="95" y="593" type="line"/>
      <point x="-55" y="771" type="line"/>
      <point x="-151" y="688" type="line"/>
      <point x="-91" y="640"/>
      <point x="-36" y="587"/>
      <point x="20" y="533" type="curve"/>
    </contour>
    <contour>
      <point x="0" y="471" type="move" name="_top"/>
    </contour>
  </outline>
</glyph>
<glyph name="macroncomb" format="1">
  <advance width="0"/>
  <unicode hex="0304"/>
  <outline>
    <contour>
      <point x="-82" y="654"/>
      <point x="-125" y="649"/>
      <point x="-164" y="629" type="curve"/>
      <point x="-158" y="565" type="line"/>
      <point x="148" y="565" type="line"/>
      <point x="195" y="607" type="line"/>
      <point x="190" y="654" type="line"/>
      <point x="-51" y="654" type="line"/>
    </contour>
    <contour>
      <point x="1" y="471" type="move" name="_top"/>
    </contour>
  </outline>
</glyph>
<glyph name="hungarumlautcomb" format="1">
  <advance width="0"/>
  <unicode hex="030B"/>
  <outline>
    <contour>
      <point x="-99" y="534" type="line"/>
      <point x="-46" y="588"/>
      <point x="11" y="647"/>
      <point x="66" y="698" type="curve"/>
      <point x="-33" y="763" type="line"/>
      <point x="-169" y="585" type="line"/>
    </contour>
    <contour>
      <point x="102" y="534" type="line"/>
      <point x="154" y="588"/>
      <point x="211" y="647"/>
      <point x="266" y="698" type="curve"/>
      <point x="168" y="763" type="line"/>
      <point x="31" y="585" type="line"/>
    </contour>
    <contour>
      <point x="0" y="471" type="move" name="_top"/>
    </contour>
  </outline>
</glyph>
<glyph name="caroncomb" format="1">
  <advance width="0"/>
  <unicode hex="030C"/>
  <outline>
    <contour>
      <point x="-198" y="692" type="line"/>
      <point x="-56" y="541" type="line"/>
      <point x="54" y="543" type="line"/>
      <point x="182" y="708" type="line"/>
      <point x="116" y="764" type="line"/>
      <point x="2" y="625" type="line"/>
      <point x="-119" y="763" type="line"/>
    </contour>
    <contour>
      <point x="0" y="471" type="move" name="_top"/>
    </contour>
  </outline>
</glyph>
<glyph name="commaaccentcomb" format="1">
  <advance width="0"/>
  <unicode hex="0326"/>
  <outline>
    <contour>
      <point x="-63" y="-140" type="line"/>
      <point x="-24" y="-168"/>
      <point x="-32" y="-215"/>
      <point x="-70" y="-265" type="curve"/>
      <point x="-21" y="-298" type="line"/>
      <point x="40" y="-253"/>
      <point x="126" y="-117"/>
      <point x="20" y="-64" type="curve"/>
      <point x="-65" y="-107" type="line"/>
    </contour>
    <contour>
      <point x="0" y="0" type="move" name="_bottom"/>
    </contour>
  </outline>
</glyph>
<glyph name="cedillacomb" format="1">
  <advance width="0"/>
  <unicode hex="0327"/>
  <outline>
    <contour>
      <point x="33" y="6" type="line"/>
      <point x="-28" y="6" type="line"/>
      <point x="-91" y="-69" type="line"/>
      <point x="-64" y="-112" type="line"/>
      <point x="42" y="-103"/>
      <point x="35" y="-194"/>
      <point x="-91" y="-235" type="curve"/>
      <point x="-74" y="-269" type="line"/>
      <point x="47" y="-260"/>
      <point x="114" y="-207"/>
      <point x="120" y="-150" type="curve" smooth="yes"/>
      <point x="126" y="-105"/>
      <point x="79" y="-58"/>
      <point x="-5" y="-58" type="curve"/>
    </contour>
    <contour>
      <point x="0" y="0" type="move" name="_bottom"/>
    </contour>
  </outline>
</glyph>
<glyph name="ogonekcomb" format="1">
  <advance width="0"/>
  <unicode hex="0328"/>
  <outline>
    <contour>
      <point x="-22" y="43" type="line"/>
      <point x="-155" y="-3"/>
      <point x="-225" y="-75"/>
      <point x="-225" y="-144" type="curve" smooth="yes"/>
      <point x="-225" y="-204"/>
      <point x="-171" y="-260"/>
      <point x="-86" y="-252" type="curve"/>
      <point x="37" y="-190" type="line"/>
      <point x="16" y="-143" type="line"/>
      <point x="-69" y="-191"/>
      <point x="-122" y="-165"/>
      <point x="-122" y="-114" type="curve" smooth="yes"/>
      <point x="-122" y="-63"/>
      <point x="-69" y="-20"/>
      <point x="6" y="23" type="curve" smooth="yes"/>
    </contour>
    <contour>
      <point x="0" y="9" type="move" name="_ogonek"/>
    </contour>
  </outline>
</glyph>
<glyph name="macronbelowcomb" format="1">
  <advance width="0"/>
  <unicode hex="0331"/>
  <outline>
    <contour>
      <point x="-105" y="-142"/>
      <point x="-148" y="-148"/>
      <point x="-187" y="-167" type="curve"/>
      <point x="-181" y="-231" type="line"/>
      <point x="139" y="-231" type="line"/>
      <point x="186" y="-189" type="line"/>
      <point x="181" y="-142" type="line"/>
      <point x="-74" y="-142" type="line"/>
    </contour>
    <contour>
      <point x="0" y="0" type="move" name="_bottom"/>
    </contour>
  </outline>
</glyph>
<glyph name="pi" format="1">
  <advance width="727"/>
  <unicode hex="03C0"/>
  <outline>
    <contour>
      <point x="114" y="460"/>
      <point x="55" y="411"/>
      <point x="30" y="376" type="curve"/>
      <point x="63" y="329" type="line"/>
      <point x="153" y="391" type="line"/>
      <point x="662" y="366" type="line"/>
      <point x="701" y="395" type="line"/>
      <point x="697" y="471" type="line"/>
      <point x="151" y="471" type="line"/>
    </contour>
    <contour>
      <point x="611" y="0" type="line"/>
      <point x="573" y="442" type="line"/>
      <point x="455" y="439" type="line"/>
      <point x="459" y="31" type="line"/>
      <point x="505" y="-3" type="line"/>
    </contour>
    <contour>
      <point x="99" y="-8"/>
      <point x="150" y="-16"/>
      <point x="187" y="-16" type="curve" smooth="yes"/>
      <point x="315" y="-16"/>
      <point x="338" y="88"/>
      <point x="343" y="230" type="curve" smooth="yes"/>
      <point x="351" y="448" type="line"/>
      <point x="209" y="450" type="line"/>
      <point x="200" y="195" type="line" smooth="yes"/>
      <point x="198" y="143"/>
      <point x="195" y="78"/>
      <point x="184" y="56" type="curve"/>
      <point x="152" y="77"/>
      <point x="119" y="100"/>
      <point x="89" y="124" type="curve"/>
      <point x="44" y="13" type="line"/>
    </contour>
  </outline>
</glyph>
<glyph name="dvVisarga" format="1">
  <advance width="290"/>
  <unicode hex="0903"/>
  <outline>
    <contour>
      <point x="174" y="329"/>
      <point x="205" y="368"/>
      <point x="217" y="401" type="curve"/>
      <point x="199" y="424"/>
      <point x="161" y="460"/>
      <point x="128" y="472" type="curve"/>
      <point x="100" y="456"/>
      <point x="71" y="417"/>
      <point x="53" y="382" type="curve"/>
      <point x="73" y="354"/>
      <point x="117" y="321"/>
      <point x="146" y="310" type="curve"/>
    </contour>
    <contour>
      <point x="177" y="66"/>
      <point x="208" y="104"/>
      <point x="220" y="137" type="curve"/>
      <point x="202" y="161"/>
      <point x="164" y="196"/>
      <point x="131" y="209" type="curve"/>
      <point x="103" y="192"/>
      <point x="74" y="154"/>
      <point x="56" y="118" type="curve"/>
      <point x="76" y="91"/>
      <point x="120" y="58"/>
      <point x="149" y="47" type="curve"/>
    </contour>
  </outline>
</glyph>
<glyph name="uni0904" format="1">
  <advance width="820"/>
  <unicode hex="0904"/>
  <outline>
    <component base="uni0905"/>
    <component base="uni0946" xOffset="811"/>
    <contour>
      <point x="794" y="640" type="move" name="bindu"/>
    </contour>
  </outline>
</glyph>
<glyph name="dvAa" format="1">
  <advance width="1110"/>
  <unicode hex="0906"/>
  <outline>
    <component base="dvA"/>
    <component base="dvMatraAa" xOffset="820"/>
    <contour>
      <point x="818" y="650" type="move" name="bindu"/>
    </contour>
    <contour>
      <point x="810" y="650" type="move" name="candrabindu"/>
    </contour>
  </outline>
</glyph>
<glyph name="uni090E" format="1">
  <advance width="588"/>
  <unicode hex="090E"/>
  <outline>
    <component base="uni090F"/>
    <component base="uni0946" xOffset="575"/>
    <contour>
      <point x="560" y="640" type="move" name="bindu"/>
    </contour>
  </outline>
</glyph>
<glyph name="uni0910" format="1">
  <advance width="588"/>
  <unicode hex="0910"/>
  <outline>
    <component base="uni090F"/>
    <component base="uni0947" xOffset="594"/>
    <contour>
      <point x="530" y="640" type="move" name="bindu"/>
    </contour>
  </outline>
</glyph>
<glyph name="dvShortO" format="1">
  <advance width="1110"/>
  <unicode hex="0912"/>
  <outline>
    <component base="dvA"/>
    <component base="dvMatraShortO" xOffset="820"/>
    <contour>
      <point x="1085" y="640" type="move" name="bindu"/>
    </contour>
    <contour>
      <point x="954" y="465" type="move" name="top"/>
    </contour>
  </outline>
</glyph>
<glyph name="dvO" format="1">
  <advance width="1110"/>
  <unicode hex="0913"/>
  <outline>
    <component base="dvA"/>
    <component base="dvMatraO" xOffset="820"/>
    <contour>
      <point x="1040" y="639" type="move" name="bindu"/>
    </contour>
  </outline>
</glyph>
<glyph name="uni0913" format="1">
  <advance width="1110"/>
  <unicode hex="0913"/>
  <outline>
    <component base="uni0905"/>
    <component base="uni094B" xOffset="820"/>
    <contour>
      <point x="1040" y="639" type="move" name="bindu"/>
    </contour>
  </outline>
</glyph>
<glyph name="uni0914" format="1">
  <advance width="1110"/>
  <unicode hex="0914"/>
  <outline>
    <component base="uni0905"/>
    <component base="uni094C" xOffset="820"/>
    <contour>
      <point x="1077" y="640" type="move" name="bindu"/>
    </contour>
  </outline>
</glyph>
<glyph name="uni0929" format="1">
  <advance width="589"/>
  <unicode hex="0929"/>
  <outline>
    <component base="uni0928"/>
    <component base="uni093C" xOffset="217" yOffset="110"/>
    <contour>
      <point x="419" y="650" type="move" name="candrabindu"/>
    </contour>
    <contour>
      <point x="664" y="650" type="move" name="candrabinduCXT"/>
    </contour>
    <contour>
      <point x="437" y="650" type="move" name="bindu"/>
    </contour>
    <contour>
      <point x="434" y="472" type="move" name="top"/>
    </contour>
    <contour>
      <point x="357" y="3" type="move" name="bottom"/>
    </contour>
  </outline>
</glyph>
<glyph name="dvRra" format="1">
  <advance width="449"/>
  <unicode hex="0931"/>
  <outline>
    <component base="dvRa"/>
    <component base="dvNukta" xOffset="128" yOffset="73"/>
    <contour>
      <point x="264" y="650" type="move" name="candrabindu"/>
    </contour>
    <contour>
      <point x="504" y="650" type="move" name="candrabinduCXT"/>
    </contour>
    <contour>
      <point x="251" y="650" type="move" name="bindu"/>
    </contour>
    <contour>
      <point x="277" y="472" type="move" name="top"/>
    </contour>
    <contour>
      <point x="262" y="-116" type="move" name="bottom"/>
    </contour>
  </outline>
</glyph>
<glyph name="uni0931" format="1">
  <advance width="449"/>
  <unicode hex="0931"/>
  <outline>
    <component base="uni0930"/>
    <component base="uni093C" xOffset="128" yOffset="73"/>
    <contour>
      <point x="264" y="650" type="move" name="candrabindu"/>
    </contour>
    <contour>
      <point x="504" y="650" type="move" name="candrabinduCXT"/>
    </contour>
    <contour>
      <point x="251" y="650" type="move" name="bindu"/>
    </contour>
    <contour>
      <point x="277" y="472" type="move" name="top"/>
    </contour>
    <contour>
      <point x="262" y="-116" type="move" name="bottom"/>
    </contour>
  </outline>
</glyph>
<glyph name="uni0934" format="1">
  <advance width="764"/>
  <unicode hex="0934"/>
  <outline>
    <component base="uni0933"/>
    <component base="uni093C" xOffset="385" yOffset="45"/>
    <contour>
      <point x="493" y="650" type="move" name="candrabindu"/>
    </contour>
    <contour>
      <point x="744" y="650" type="move" name="candrabinduCXT"/>
    </contour>
    <contour>
      <point x="512" y="650" type="move" name="bindu"/>
    </contour>
    <contour>
      <point x="525" y="472" type="move" name="top"/>
    </contour>
    <contour>
      <point x="410" y="-188" type="move" name="bottom"/>
    </contour>
  </outline>
</glyph>
<glyph name="uni093B" format="1">
  <advance width="290"/>
  <unicode hex="093B"/>
  <outline>
    <contour>
      <point x="81" y="815" type="line"/>
      <point x="81" y="593" type="line"/>
      <point x="147" y="559" type="line"/>
      <point x="174" y="572" type="line"/>
      <point x="174" y="815" type="line"/>
    </contour>
    <component base="uni093E"/>
  </outline>
</glyph>
<glyph name="uni094A" format="1">
  <advance width="290"/>
  <unicode hex="094A"/>
  <outline>
    <component base="uni093E"/>
    <component base="uni0946" xOffset="291"/>
    <contour>
      <point x="279" y="640" type="move" name="bindu"/>
    </contour>
  </outline>
</glyph>
<glyph name="dvMatraCandraLongE" format="1">
  <advance width="345"/>
  <unicode hex="0955"/>
  <outline>
    <contour>
      <point x="368" y="538" type="line"/>
      <point x="385" y="573" type="line"/>
      <point x="337" y="639" type="line"/>
      <point x="-31" y="639" type="line"/>
      <point x="-48" y="605" type="line"/>
      <point x="-1" y="538" type="line"/>
    </contour>
    <component base="dvMatraCandraE" xOffset="342"/>
  </outline>
</glyph>
<glyph name="dvQa" format="1">
  <advance width="785"/>
  <unicode hex="0958"/>
  <outline>
    <component base="dvNukta" xOffset="169" yOffset="106"/>
    <component base="dvKa"/>
    <contour>
      <point x="423" y="650" type="move" name="candrabindu"/>
    </contour>
    <contour>
      <point x="710" y="650" type="move" name="candrabinduCXT"/>
    </contour>
    <contour>
      <point x="393" y="650" type="move" name="bindu"/>
    </contour>
    <contour>
      <point x="415" y="472" type="move" name="top"/>
    </contour>
    <contour>
      <point x="309" y="-69" type="move" name="bottom"/>
    </contour>
  </outline>
</glyph>
<glyph name="uni0958" format="1">
  <advance width="785"/>
  <unicode hex="0958"/>
  <outline>
    <component base="uni093C" xOffset="169" yOffset="106"/>
    <component base="uni0915"/>
    <contour>
      <point x="423" y="650" type="move" name="candrabindu"/>
    </contour>
    <contour>
      <point x="710" y="650" type="move" name="candrabinduCXT"/>
    </contour>
    <contour>
      <point x="393" y="650" type="move" name="bindu"/>
    </contour>
    <contour>
      <point x="415" y="472" type="move" name="top"/>
    </contour>
    <contour>
      <point x="309" y="-69" type="move" name="bottom"/>
    </contour>
  </outline>
</glyph>
<glyph name="uni0959" format="1">
  <advance width="851"/>
  <unicode hex="0959"/>
  <outline>
    <component base="uni0916"/>
    <component base="uni093C" xOffset="178" yOffset="57"/>
    <contour>
      <point x="521" y="650" type="move" name="candrabindu"/>
    </contour>
    <contour>
      <point x="926" y="650" type="move" name="candrabinduCXT"/>
    </contour>
    <contour>
      <point x="502" y="650" type="move" name="bindu"/>
    </contour>
    <contour>
      <point x="696" y="472" type="move" name="top"/>
    </contour>
    <contour>
      <point x="619" y="-65" type="move" name="bottom"/>
    </contour>
  </outline>
</glyph>
<glyph name="dvGhha" format="1">
  <advance width="640"/>
  <unicode hex="095A"/>
  <outline>
    <component base="dvGa"/>
    <component base="dvNukta" xOffset="271" yOffset="103"/>
    <contour>
      <point x="370" y="650" type="move" name="candrabindu"/>
    </contour>
    <contour>
      <point x="715" y="650" type="move" name="candrabinduCXT"/>
    </contour>
    <contour>
      <point x="353" y="650" type="move" name="bindu"/>
    </contour>
    <contour>
      <point x="485" y="472" type="move" name="top"/>
    </contour>
    <contour>
      <point x="408" y="-90" type="move" name="bottom"/>
    </contour>
  </outline>
</glyph>
<glyph name="uni095A" format="1">
  <advance width="640"/>
  <unicode hex="095A"/>
  <outline>
    <component base="uni0917"/>
    <component base="uni093C" xOffset="271" yOffset="103"/>
    <contour>
      <point x="370" y="650" type="move" name="candrabindu"/>
    </contour>
    <contour>
      <point x="715" y="650" type="move" name="candrabinduCXT"/>
    </contour>
    <contour>
      <point x="353" y="650" type="move" name="bindu"/>
    </contour>
    <contour>
      <point x="485" y="472" type="move" name="top"/>
    </contour>
    <contour>
      <point x="408" y="-90" type="move" name="bottom"/>
    </contour>
  </outline>
</glyph>
<glyph name="dvZa" format="1">
  <advance width="719"/>
  <unicode hex="095B"/>
  <outline>
    <component base="dvJa"/>
    <component base="dvNukta" xOffset="314" yOffset="55"/>
    <contour>
      <point x="549" y="650" type="move" name="candrabindu"/>
    </contour>
    <contour>
      <point x="794" y="650" type="move" name="candrabinduCXT"/>
    </contour>
    <contour>
      <point x="566" y="650" type="move" name="bindu"/>
    </contour>
    <contour>
      <point x="564" y="472" type="move" name="top"/>
    </contour>
    <contour>
      <point x="467" y="-125" type="move" name="bottom"/>
    </contour>
  </outline>
</glyph>
<glyph name="uni095B" format="1">
  <advance width="719"/>
  <unicode hex="095B"/>
  <outline>
    <component base="uni091C"/>
    <component base="uni093C" xOffset="314" yOffset="55"/>
    <contour>
      <point x="549" y="650" type="move" name="candrabindu"/>
    </contour>
    <contour>
      <point x="794" y="650" type="move" name="candrabinduCXT"/>
    </contour>
    <contour>
      <point x="566" y="650" type="move" name="bindu"/>
    </contour>
    <contour>
      <point x="564" y="472" type="move" name="top"/>
    </contour>
    <contour>
      <point x="467" y="-125" type="move" name="bottom"/>
    </contour>
  </outline>
</glyph>
<glyph name="dvRha" format="1">
  <advance width="604"/>
  <unicode hex="095D"/>
  <outline>
    <component base="dvDdha"/>
    <component base="dvNukta" xOffset="355" yOffset="-34"/>
    <contour>
      <point x="398" y="650" type="move" name="candrabindu"/>
    </contour>
    <contour>
      <point x="624" y="650" type="move" name="candrabinduCXT"/>
    </contour>
    <contour>
      <point x="412" y="650" type="move" name="bindu"/>
    </contour>
    <contour>
      <point x="428" y="472" type="move" name="top"/>
    </contour>
    <contour>
      <point x="348" y="-268" type="move" name="bottom"/>
    </contour>
  </outline>
</glyph>
<glyph name="uni095E" format="1">
  <advance width="811"/>
  <unicode hex="095E"/>
  <outline>
    <component base="uni092B"/>
    <component base="uni093C" xOffset="185" yOffset="139"/>
    <contour>
      <point x="430" y="650" type="move" name="candrabindu"/>
    </contour>
    <contour>
      <point x="751" y="650" type="move" name="candrabinduCXT"/>
    </contour>
    <contour>
      <point x="399" y="650" type="move" name="bindu"/>
    </contour>
    <contour>
      <point x="425" y="472" type="move" name="top"/>
    </contour>
    <contour>
      <point x="327" y="-69" type="move" name="bottom"/>
    </contour>
  </outline>
</glyph>
<glyph name="dvYya" format="1">
  <advance width="634"/>
  <unicode hex="095F"/>
  <outline>
    <component base="dvYa"/>
    <component base="dvNukta" xOffset="207" yOffset="106"/>
    <contour>
      <point x="369" y="650" type="move" name="candrabindu"/>
    </contour>
    <contour>
      <point x="709" y="650" type="move" name="candrabinduCXT"/>
    </contour>
    <contour>
      <point x="342" y="650" type="move" name="bindu"/>
    </contour>
    <contour>
      <point x="479" y="472" type="move" name="top"/>
    </contour>
    <contour>
      <point x="386" y="-93" type="move" name="bottom"/>
    </contour>
  </outline>
</glyph>
<glyph name="uni095F" format="1">
  <advance width="634"/>
  <unicode hex="095F"/>
  <outline>
    <component base="uni092F"/>
    <component base="uni093C" xOffset="207" yOffset="106"/>
    <contour>
      <point x="369" y="650" type="move" name="candrabindu"/>
    </contour>
    <contour>
      <point x="709" y="650" type="move" name="candrabinduCXT"/>
    </contour>
    <contour>
      <point x="342" y="650" type="move" name="bindu"/>
    </contour>
    <contour>
      <point x="479" y="472" type="move" name="top"/>
    </contour>
    <contour>
      <point x="386" y="-93" type="move" name="bottom"/>
    </contour>
  </outline>
</glyph>
<glyph name="dvDanda" format="1">
  <advance width="469"/>
  <unicode hex="0964"/>
  <outline>
    <contour>
      <point x="260" y="663" type="line"/>
      <point x="221" y="646" type="line"/>
      <point x="221" y="13" type="line"/>
      <point x="316" y="-56" type="line"/>
      <point x="355" y="-39" type="line"/>
      <point x="355" y="594" type="line"/>
    </contour>
  </outline>
</glyph>
<glyph name="dvOne" format="1">
  <advance width="455"/>
  <unicode hex="0967"/>
  <outline>
    <contour>
      <point x="207" y="428" type="line"/>
      <point x="132" y="475"/>
      <point x="173" y="583"/>
      <point x="254" y="569" type="curve"/>
      <point x="276" y="548"/>
      <point x="282" y="522"/>
      <point x="282" y="503" type="curve" smooth="yes"/>
      <point x="282" y="461"/>
      <point x="250" y="418"/>
      <point x="195" y="375" type="curve" smooth="yes"/>
      <point x="71" y="278" type="line"/>
      <point x="76" y="215" type="line"/>
      <point x="217" y="112" type="line" smooth="yes"/>
      <point x="249" y="89"/>
      <point x="274" y="71"/>
      <point x="274" y="41" type="curve" smooth="yes"/>
      <point x="274" y="22"/>
      <point x="263" y="4"/>
      <point x="254" y="-7" type="curve"/>
      <point x="380" y="-61" type="line"/>
      <point x="397" y="-43"/>
      <point x="414" y="-14"/>
      <point x="414" y="18" type="curve" smooth="yes"/>
      <point x="414" y="71"/>
      <point x="362" y="109"/>
      <point x="310" y="147" type="curve" smooth="yes"/>
      <point x="189" y="235" type="line"/>
      <point x="171" y="172" type="line"/>
      <point x="290" y="270" type="line" smooth="yes"/>
      <point x="360" y="328"/>
      <point x="397" y="384"/>
      <point x="397" y="444" type="curve" smooth="yes"/>
      <point x="397" y="536"/>
      <point x="309" y="663"/>
      <point x="184" y="663" type="curve" smooth="yes"/>
      <point x="92" y="663"/>
      <point x="44" y="593"/>
      <point x="44" y="533" type="curve" smooth="yes"/>
      <point x="44" y="486"/>
      <point x="74" y="439"/>
      <point x="163" y="389" type="curve"/>
    </contour>
  </outline>
</glyph>
<glyph name="dvThree" format="1">
  <advance width="578"/>
  <unicode hex="0969"/>
  <outline>
    <contour>
      <point x="186" y="246" type="line"/>
      <point x="350" y="310" type="line"/>
      <point x="279" y="307" type="line"/>
      <point x="364" y="299"/>
      <point x="404" y="262"/>
      <point x="404" y="219" type="curve" smooth="yes"/>
      <point x="404" y="164"/>
      <point x="342" y="120"/>
      <point x="259" y="120" type="curve" smooth="yes"/>
      <point x="229" y="120"/>
      <point x="200" y="126"/>
      <point x="170" y="137" type="curve"/>
      <point x="196" y="24" type="line"/>
      <point x="231" y="11"/>
      <point x="267" y="5"/>
      <point x="300" y="5" type="curve" smooth="yes"/>
      <point x="435" y="5"/>
      <point x="527" y="83"/>
      <point x="527" y="180" type="curve" smooth="yes"/>
      <point x="527" y="270"/>
      <point x="448" y="341"/>
      <point x="314" y="393" type="curve"/>
      <point x="283" y="403" type="line"/>
      <point x="235" y="412"/>
      <point x="162" y="400"/>
      <point x="115" y="364" type="curve"/>
    </contour>
    <contour>
      <point x="414" y="-149" type="line"/>
      <point x="414" y="-113" type="line"/>
      <point x="198" y="81" type="line"/>
      <point x="148" y="57" type="line"/>
      <point x="349" y="-194" type="line"/>
    </contour>
    <contour>
      <point x="67" y="75" type="line"/>
      <point x="93" y="50"/>
      <point x="160" y="11"/>
      <point x="210" y="5" type="curve"/>
      <point x="264" y="44" type="line"/>
      <point x="164" y="203" type="line"/>
      <point x="119" y="198" type="line"/>
    </contour>
    <contour>
      <point x="101" y="461" type="line"/>
      <point x="162" y="513"/>
      <point x="249" y="559"/>
      <point x="313" y="565" type="curve"/>
      <point x="340" y="549"/>
      <point x="352" y="521"/>
      <point x="352" y="497" type="curve" smooth="yes"/>
      <point x="352" y="445"/>
      <point x="301" y="401"/>
      <point x="220" y="387" type="curve"/>
      <point x="344" y="309" type="line"/>
      <point x="414" y="336"/>
      <point x="473" y="395"/>
      <point x="473" y="468" type="curve" smooth="yes"/>
      <point x="473" y="566"/>
      <point x="367" y="663"/>
      <point x="241" y="663" type="curve" smooth="yes"/>
      <point x="168" y="663"/>
      <point x="79" y="630"/>
      <point x="22" y="577" type="curve"/>
    </contour>
  </outline>
</glyph>
<glyph name="dvEight" format="1">
  <advance width="473"/>
  <unicode hex="096E"/>
  <outline>
    <contour>
      <point x="299" y="633" type="line"/>
      <point x="112" y="400" type="line" smooth="yes"/>
      <point x="55" y="330"/>
      <point x="35" y="270"/>
      <point x="35" y="225" type="curve" smooth="yes"/>
      <point x="35" y="116"/>
      <point x="150" y="-11"/>
      <point x="276" y="-11" type="curve" smooth="yes"/>
      <point x="353" y="-11"/>
      <point x="417" y="38"/>
      <point x="466" y="117" type="curve"/>
      <point x="380" y="209" type="line"/>
      <point x="334" y="140"/>
      <point x="283" y="106"/>
      <point x="235" y="106" type="curve" smooth="yes"/>
      <point x="188" y="106"/>
      <point x="149" y="138"/>
      <point x="149" y="190" type="curve" smooth="yes"/>
      <point x="149" y="220"/>
      <point x="162" y="252"/>
      <point x="217" y="319" type="curve" smooth="yes"/>
      <point x="383" y="525" type="line"/>
    </contour>
  </outline>
</glyph>
<glyph name="uni0973" format="1">
  <advance width="820"/>
  <unicode hex="0973"/>
  <outline>
    <contour>
      <point x="616" y="815" type="line"/>
      <point x="616" y="593" type="line"/>
      <point x="682" y="559" type="line"/>
      <point x="709" y="572" type="line"/>
      <point x="709" y="815" type="line"/>
    </contour>
    <component base="uni0905"/>
  </outline>
</glyph>
<glyph name="dvOOE" format="1">
  <advance width="1110"/>
  <unicode hex="0974"/>
  <outline>
    <contour>
      <point x="904" y="815" type="line"/>
      <point x="904" y="593" type="line"/>
      <point x="970" y="559" type="line"/>
      <point x="997" y="572" type="line"/>
      <point x="997" y="815" type="line"/>
    </contour>
    <component base="dvAa"/>
  </outline>
</glyph>
<glyph name="dvAW" format="1">
  <advance width="1110"/>
  <unicode hex="0975"/>
  <outline>
    <component base="dvA"/>
    <component base="dvMatraAW" xOffset="820"/>
    <contour>
      <point x="1100" y="640" type="move" name="bindu"/>
    </contour>
  </outline>
</glyph>
<glyph name="uni0976" format="1">
  <advance width="820"/>
  <unicode hex="0976"/>
  <outline>
    <component base="uni0905"/>
    <component base="uni0956" xOffset="773"/>
    <contour>
      <point x="668" y="650" type="move" name="bindu"/>
    </contour>
    <contour>
      <point x="650" y="650" type="move" name="candrabindu"/>
    </contour>
  </outline>
</glyph>
<glyph name="uni0977" format="1">
  <advance width="820"/>
  <unicode hex="0977"/>
  <outline>
    <component base="uni0905"/>
    <component base="uni0957" xOffset="771"/>
    <contour>
      <point x="668" y="650" type="move" name="bindu"/>
    </contour>
    <contour>
      <point x="650" y="650" type="move" name="candrabindu"/>
    </contour>
  </outline>
</glyph>
<glyph name="dvZha" format="1">
  <advance width="719"/>
  <unicode hex="0979"/>
  <outline>
    <component base="dvJa"/>
    <component base="dvNukta" xOffset="191" yOffset="56"/>
    <component base="dvNukta" xOffset="300" yOffset="-62"/>
    <component base="dvNukta" xOffset="400" yOffset="56"/>
    <contour>
      <point x="549" y="650" type="move" name="candrabindu"/>
    </contour>
    <contour>
      <point x="794" y="650" type="move" name="candrabinduCXT"/>
    </contour>
    <contour>
      <point x="566" y="650" type="move" name="bindu"/>
    </contour>
    <contour>
      <point x="564" y="472" type="move" name="top"/>
    </contour>
    <contour>
      <point x="462" y="-241" type="move" name="bottom"/>
    </contour>
  </outline>
</glyph>
<glyph name="uni0979" format="1">
  <advance width="719"/>
  <unicode hex="0979"/>
  <outline>
    <component base="uni091C"/>
    <component base="uni093C" xOffset="191" yOffset="56"/>
    <component base="uni093C" xOffset="300" yOffset="-62"/>
    <component base="uni093C" xOffset="400" yOffset="56"/>
    <contour>
      <point x="549" y="650" type="move" name="candrabindu"/>
    </contour>
    <contour>
      <point x="794" y="650" type="move" name="candrabinduCXT"/>
    </contour>
    <contour>
      <point x="566" y="650" type="move" name="bindu"/>
    </contour>
    <contour>
      <point x="564" y="472" type="move" name="top"/>
    </contour>
    <contour>
      <point x="462" y="-241" type="move" name="bottom"/>
    </contour>
  </outline>
</glyph>
<glyph name="dvGlottalStop" format="1">
  <advance width="569"/>
  <unicode hex="097D"/>
  <outline>
    <contour>
      <point x="214" y="638"/>
      <point x="149" y="615"/>
      <point x="83" y="564" type="curve"/>
      <point x="145" y="442" type="line"/>
      <point x="205" y="486"/>
      <point x="299" y="523"/>
      <point x="350" y="520" type="curve"/>
      <point x="412" y="458"/>
      <point x="385" y="337"/>
      <point x="205" y="304" type="curve"/>
      <point x="243" y="174" type="line"/>
      <point x="412" y="215"/>
      <point x="504" y="296"/>
      <point x="504" y="406" type="curve" smooth="yes"/>
      <point x="504" y="534"/>
      <point x="383" y="638"/>
      <point x="269" y="638" type="curve" smooth="yes"/>
    </contour>
    <contour>
      <point x="205" y="14" type="line"/>
      <point x="295" y="-40" type="line"/>
      <point x="334" y="-23" type="line"/>
      <point x="334" y="242" type="line"/>
      <point x="205" y="304" type="line"/>
    </contour>
  </outline>
</glyph>
<glyph name="uni097E" format="1">
  <advance width="612"/>
  <unicode hex="097E"/>
  <outline>
    <contour>
      <point x="581" y="-198" type="line"/>
      <point x="598" y="-164" type="line"/>
      <point x="550" y="-97" type="line"/>
      <point x="107" y="-97" type="line"/>
      <point x="90" y="-132" type="line"/>
      <point x="138" y="-198" type="line"/>
    </contour>
    <component base="uni0921"/>
    <contour>
      <point x="426" y="650" type="move" name="candrabindu"/>
    </contour>
    <contour>
      <point x="662" y="650" type="move" name="candrabinduCXT"/>
    </contour>
    <contour>
      <point x="439" y="650" type="move" name="bindu"/>
    </contour>
    <contour>
      <point x="453" y="472" type="move" name="top"/>
    </contour>
    <contour>
      <point x="309" y="-209" type="move" name="bottom"/>
    </contour>
  </outline>
</glyph>
<glyph name="emdash" format="1">
  <advance width="1010"/>
  <unicode hex="2014"/>
  <outline>
    <contour>
      <point x="120" y="312"/>
      <point x="76" y="304"/>
      <point x="37" y="285" type="curve"/>
      <point x="44" y="218" type="line"/>
      <point x="916" y="218" type="line"/>
      <point x="963" y="269" type="line"/>
      <point x="959" y="312" type="line"/>
      <point x="151" y="312" type="line"/>
    </contour>
  </outline>
</glyph>
<glyph name="daggerdbl" format="1">
  <advance width="561"/>
  <unicode hex="2021"/>
  <outline>
    <contour>
      <point x="198" y="649" type="line"/>
      <point x="224" y="-180" type="line"/>
      <point x="325" y="-180" type="line"/>
      <point x="357" y="685" type="line"/>
      <point x="236" y="689" type="line"/>
    </contour>
    <contour>
      <point x="518" y="436" type="line"/>
      <point x="512" y="469" type="line"/>
      <point x="90" y="469" type="line"/>
      <point x="47" y="417" type="line"/>
      <point x="53" y="384" type="line"/>
      <point x="475" y="384" type="line"/>
    </contour>
    <contour>
      <point x="513" y="181" type="line"/>
      <point x="507" y="214" type="line"/>
      <point x="85" y="214" type="line"/>
      <point x="42" y="163" type="line"/>
      <point x="48" y="130" type="line"/>
      <point x="470" y="130" type="line"/>
    </contour>
  </outline>
</glyph>
<glyph name="bullet" format="1">
  <advance width="415"/>
  <unicode hex="2022"/>
  <outline>
    <contour>
      <point x="324" y="328"/>
      <point x="269" y="379"/>
      <point x="198" y="407" type="curve"/>
      <point x="129" y="371"/>
      <point x="81" y="314"/>
      <point x="67" y="235" type="curve"/>
      <point x="97" y="172"/>
      <point x="150" y="130"/>
      <point x="222" y="109" type="curve"/>
      <point x="288" y="142"/>
      <point x="330" y="192"/>
      <point x="348" y="258" type="curve"/>
    </contour>
  </outline>
</glyph>
<glyph name="guilsinglleft" format="1">
  <advance width="347"/>
  <unicode hex="2039"/>
  <outline>
    <contour>
      <point x="56" y="220" type="line"/>
      <point x="214" y="38" type="line"/>
      <point x="291" y="90" type="line"/>
      <point x="190" y="253" type="line"/>
      <point x="285" y="424" type="line"/>
      <point x="211" y="472" type="line"/>
      <point x="56" y="286" type="line"/>
    </contour>
  </outline>
</glyph>
<glyph name="fraction" format="1">
  <advance width="163"/>
  <unicode hex="2044"/>
  <outline>
    <contour>
      <point x="-158" y="15" type="line"/>
      <point x="424" y="624" type="line"/>
      <point x="366" y="681" type="line"/>
      <point x="-217" y="71" type="line"/>
    </contour>
  </outline>
</glyph>
<glyph name="euro" format="1">
  <advance width="633"/>
  <unicode hex="20AC"/>
  <outline>
    <contour>
      <point x="588" y="123" type="line"/>
      <point x="443" y="83" type="line"/>
      <point x="291" y="93"/>
      <point x="236" y="190"/>
      <point x="236" y="321" type="curve" smooth="yes"/>
      <point x="236" y="434"/>
      <point x="277" y="532"/>
      <point x="348" y="583" type="curve"/>
      <point x="425" y="590"/>
      <point x="501" y="561"/>
      <point x="574" y="500" type="curve"/>
      <point x="614" y="608" type="line"/>
      <point x="564" y="648"/>
      <point x="495" y="670"/>
      <point x="416" y="670" type="curve" smooth="yes"/>
      <point x="190" y="670"/>
      <point x="85" y="484"/>
      <point x="85" y="311" type="curve" smooth="yes"/>
      <point x="85" y="147"/>
      <point x="178" y="-22"/>
      <point x="428" y="-21" type="curve"/>
      <point x="612" y="54" type="line"/>
    </contour>
    <contour>
      <point x="585" y="455" type="line"/>
      <point x="597" y="493"/>
      <point x="608" y="549"/>
      <point x="614" y="608" type="curve"/>
      <point x="493" y="594" type="line"/>
      <point x="512" y="455" type="line"/>
    </contour>
    <contour>
      <point x="558" y="385" type="line"/>
      <point x="552" y="408" type="line"/>
      <point x="35" y="408" type="line"/>
      <point x="-3" y="366" type="line"/>
      <point x="3" y="343" type="line"/>
      <point x="521" y="343" type="line"/>
    </contour>
    <contour>
      <point x="517" y="246" type="line"/>
      <point x="511" y="269" type="line"/>
      <point x="9" y="269" type="line"/>
      <point x="-28" y="227" type="line"/>
      <point x="-22" y="204" type="line"/>
      <point x="480" y="204" type="line"/>
    </contour>
    <contour>
      <point x="412" y="650" type="move" name="top"/>
    </contour>
    <contour>
      <point x="412" y="0" type="move" name="bottom"/>
    </contour>
  </outline>
</glyph>
<glyph name="trademark" format="1">
  <advance width="833"/>
  <unicode hex="2122"/>
  <outline>
    <contour>
      <point x="123" y="731" type="line"/>
      <point x="123" y="449" type="line"/>
      <point x="220" y="449" type="line"/>
      <point x="220" y="731" type="line"/>
    </contour>
    <contour>
      <point x="111" y="481"/>
      <point x="90" y="473"/>
      <point x="77" y="463" type="curve"/>
      <point x="80" y="449" type="line"/>
      <point x="129" y="449" type="line"/>
      <point x="129" y="490" type="line"/>
    </contour>
    <contour>
      <point x="201" y="449" type="line"/>
      <point x="266" y="449" type="line"/>
      <point x="267" y="473" type="line"/>
      <point x="203" y="484" type="line"/>
    </contour>
    <contour>
      <point x="192" y="735"/>
      <point x="153" y="735"/>
      <point x="6" y="738" type="curve"/>
      <point x="26" y="686" type="line"/>
      <point x="171" y="696" type="line"/>
      <point x="317" y="686" type="line"/>
      <point x="337" y="738" type="line"/>
    </contour>
    <contour>
      <point x="326" y="617" type="line"/>
      <point x="333" y="639"/>
      <point x="338" y="717"/>
      <point x="336" y="738" type="curve"/>
      <point x="254" y="729" type="line"/>
      <point x="273" y="617" type="line" smooth="yes"/>
    </contour>
    <contour>
      <point x="87" y="729" type="line"/>
      <point x="6" y="738" type="line"/>
      <point x="3" y="717"/>
      <point x="9" y="639"/>
      <point x="16" y="617" type="curve"/>
      <point x="69" y="617" type="line"/>
    </contour>
    <contour>
      <point x="367" y="735" type="line"/>
      <point x="366" y="711" type="line"/>
      <point x="430" y="700" type="line"/>
      <point x="432" y="735" type="line"/>
    </contour>
    <contour>
      <point x="402" y="735" type="line"/>
      <point x="392" y="449" type="line"/>
      <point x="456" y="449" type="line"/>
      <point x="460" y="594" type="line"/>
      <point x="452" y="685" type="line"/>
      <point x="514" y="735" type="line"/>
    </contour>
    <contour>
      <point x="381" y="482"/>
      <point x="365" y="473"/>
      <point x="352" y="463" type="curve"/>
      <point x="355" y="449" type="line"/>
      <point x="399" y="449" type="line"/>
      <point x="398" y="490" type="line"/>
    </contour>
    <contour>
      <point x="432" y="449" type="line"/>
      <point x="497" y="449" type="line"/>
      <point x="497" y="473" type="line" smooth="yes"/>
      <point x="434" y="484" type="line"/>
    </contour>
    <contour>
      <point x="430" y="715" type="line"/>
      <point x="535" y="446" type="line"/>
      <point x="601" y="456" type="line"/>
      <point x="601" y="511" type="line"/>
      <point x="513" y="735" type="line"/>
    </contour>
    <contour>
      <point x="561" y="465" type="line"/>
      <point x="602" y="456" type="line"/>
      <point x="705" y="719" type="line"/>
      <point x="666" y="735" type="line"/>
    </contour>
    <contour>
      <point x="666" y="735" type="line"/>
      <point x="682" y="685" type="line"/>
      <point x="675" y="592" type="line"/>
      <point x="680" y="449" type="line"/>
      <point x="768" y="449" type="line"/>
      <point x="758" y="735" type="line"/>
    </contour>
    <contour>
      <point x="749" y="735" type="line"/>
      <point x="749" y="694" type="line"/>
      <point x="767" y="703"/>
      <point x="783" y="711"/>
      <point x="796" y="721" type="curve"/>
      <point x="793" y="735" type="line"/>
    </contour>
    <contour>
      <point x="668" y="482"/>
      <point x="652" y="473"/>
      <point x="639" y="463" type="curve"/>
      <point x="642" y="449" type="line"/>
      <point x="686" y="449" type="line"/>
      <point x="685" y="490" type="line"/>
    </contour>
    <contour>
      <point x="742" y="449" type="line"/>
      <point x="807" y="449" type="line"/>
      <point x="807" y="473" type="line"/>
      <point x="743" y="484" type="line"/>
    </contour>
    <contour>
      <point x="182" y="323" type="move" name="center"/>
    </contour>
    <contour>
      <point x="254" y="180" type="move" name="bottom"/>
    </contour>
    <contour>
      <point x="254" y="466" type="move" name="top"/>
    </contour>
  </outline>
</glyph>
<glyph name="Ohm" format="1">
  <advance width="724"/>
  <unicode hex="2126"/>
  <outline>
    <contour>
      <point x="441" y="14" type="line"/>
      <point x="591" y="78"/>
      <point x="691" y="213"/>
      <point x="691" y="362" type="curve" smooth="yes"/>
      <point x="691" y="534"/>
      <point x="552" y="670"/>
      <point x="367" y="670" type="curve" smooth="yes"/>
      <point x="176" y="670"/>
      <point x="35" y="524"/>
      <point x="35" y="353" type="curve" smooth="yes"/>
      <point x="35" y="200"/>
      <point x="142" y="83"/>
      <point x="306" y="18" type="curve"/>
      <point x="343" y="79" type="line"/>
      <point x="238" y="151"/>
      <point x="192" y="271"/>
      <point x="192" y="374" type="curve" smooth="yes"/>
      <point x="192" y="495"/>
      <point x="254" y="592"/>
      <point x="367" y="592" type="curve" smooth="yes"/>
      <point x="486" y="592"/>
      <point x="549" y="493"/>
      <point x="549" y="370" type="curve" smooth="yes"/>
      <point x="549" y="271"/>
      <point x="506" y="154"/>
      <point x="408" y="75" type="curve"/>
    </contour>
    <contour>
      <point x="239" y="74"/>
      <point x="124" y="58"/>
      <point x="63" y="32" type="curve"/>
      <point x="69" y="0" type="line"/>
      <point x="343" y="0" type="line"/>
      <point x="343" y="79" type="line"/>
    </contour>
    <contour>
      <point x="408" y="0" type="line"/>
      <point x="669" y="0" type="line"/>
      <point x="670" y="51" type="line"/>
      <point x="408" y="75" type="line"/>
    </contour>
  </outline>
</glyph>
<glyph name="partialdiff" format="1">
  <advance width="600"/>
  <unicode hex="2202"/>
  <outline>
    <contour>
      <point x="446" y="414" type="line"/>
      <point x="302" y="473" type="line"/>
      <point x="176" y="473"/>
      <point x="68" y="354"/>
      <point x="68" y="207" type="curve" smooth="yes"/>
      <point x="68" y="72"/>
      <point x="156" y="-34"/>
      <point x="298" y="-34" type="curve" smooth="yes"/>
      <point x="454" y="-34"/>
      <point x="553" y="102"/>
      <point x="553" y="292" type="curve" smooth="yes"/>
      <point x="553" y="492"/>
      <point x="445" y="688"/>
      <point x="205" y="761" type="curve"/>
      <point x="176" y="692" type="line"/>
      <point x="330" y="641"/>
      <point x="417" y="475"/>
      <point x="417" y="308" type="curve" smooth="yes"/>
      <point x="417" y="195"/>
      <point x="378" y="88"/>
      <point x="302" y="50" type="curve"/>
      <point x="236" y="56"/>
      <point x="203" y="119"/>
      <point x="205" y="190" type="curve" smooth="yes"/>
      <point x="207" y="295"/>
      <point x="286" y="406"/>
      <point x="445" y="371" type="curve"/>
    </contour>
  </outline>
</glyph>
<glyph name="product" format="1">
  <advance width="815"/>
  <unicode hex="220F"/>
  <outline>
    <contour>
      <point x="98" y="735"/>
      <point x="63" y="724"/>
      <point x="28" y="704" type="curve"/>
      <point x="38" y="649" type="line"/>
      <point x="745" y="649" type="line"/>
      <point x="787" y="688" type="line"/>
      <point x="783" y="735" type="line"/>
      <point x="129" y="735" type="line"/>
    </contour>
    <contour>
      <point x="147" y="680" type="line"/>
      <point x="147" y="-100" type="line"/>
      <point x="299" y="-100" type="line"/>
      <point x="299" y="680" type="line"/>
    </contour>
    <contour>
      <point x="514" y="680" type="line"/>
      <point x="514" y="-100" type="line"/>
      <point x="666" y="-100" type="line"/>
      <point x="666" y="680" type="line"/>
    </contour>
    <contour>
      <point x="126" y="-35"/>
      <point x="91" y="-50"/>
      <point x="62" y="-68" type="curve"/>
      <point x="68" y="-100" type="line"/>
      <point x="162" y="-100" type="line"/>
      <point x="161" y="-21" type="line"/>
    </contour>
    <contour>
      <point x="251" y="-100" type="line"/>
      <point x="391" y="-100" type="line"/>
      <point x="392" y="-49" type="line"/>
      <point x="254" y="-29" type="line"/>
    </contour>
    <contour>
      <point x="493" y="-35"/>
      <point x="458" y="-50"/>
      <point x="429" y="-68" type="curve"/>
      <point x="435" y="-100" type="line"/>
      <point x="529" y="-100" type="line"/>
      <point x="528" y="-21" type="line"/>
    </contour>
    <contour>
      <point x="617" y="-100" type="line"/>
      <point x="757" y="-100" type="line"/>
      <point x="758" y="-49" type="line"/>
      <point x="620" y="-29" type="line"/>
    </contour>
  </outline>
</glyph>
<glyph name="summation" format="1">
  <advance width="649"/>
  <unicode hex="2211"/>
  <outline>
    <contour>
      <point x="579" y="735" type="line"/>
      <point x="31" y="735" type="line"/>
      <point x="30" y="671" type="line"/>
      <point x="235" y="642" type="line"/>
      <point x="562" y="629" type="line"/>
    </contour>
    <contour>
      <point x="562" y="531" type="line"/>
      <point x="575" y="587"/>
      <point x="582" y="696"/>
      <point x="578" y="735" type="curve"/>
      <point x="425" y="708" type="line"/>
      <point x="474" y="532" type="line"/>
    </contour>
    <contour>
      <point x="30" y="671" type="line"/>
      <point x="232" y="251" type="line"/>
      <point x="353" y="306" type="line"/>
      <point x="158" y="721" type="line"/>
    </contour>
    <contour>
      <point x="38" y="-40" type="line"/>
      <point x="114" y="-82" type="line"/>
      <point x="353" y="306" type="line"/>
      <point x="280" y="352" type="line"/>
    </contour>
    <contour>
      <point x="223" y="-11" type="line"/>
      <point x="38" y="-40" type="line"/>
      <point x="39" y="-100" type="line"/>
      <point x="603" y="-100" type="line"/>
      <point x="586" y="2" type="line"/>
    </contour>
    <contour>
      <point x="449" y="-73" type="line"/>
      <point x="602" y="-100" type="line"/>
      <point x="606" y="-61"/>
      <point x="599" y="48"/>
      <point x="586" y="104" type="curve"/>
      <point x="498" y="103" type="line"/>
    </contour>
  </outline>
</glyph>
<glyph name="minus" format="1">
  <advance width="598"/>
  <unicode hex="2212"/>
  <outline>
    <contour>
      <point x="56" y="292" type="line"/>
      <point x="56" y="205" type="line"/>
      <point x="542" y="205" type="line"/>
      <point x="542" y="292" type="line"/>
    </contour>
  </outline>
</glyph>
<glyph name="radical" format="1">
  <advance width="745"/>
  <unicode hex="221A"/>
  <outline>
    <contour>
      <point x="264" y="471" type="line"/>
      <point x="411" y="-45" type="line"/>
      <point x="338" y="-44" type="line"/>
      <point x="561" y="751" type="line"/>
      <point x="667" y="713" type="line"/>
      <point x="445" y="-72" type="line"/>
      <point x="409" y="-86"/>
      <point x="352" y="-91"/>
      <point x="312" y="-89" type="curve"/>
      <point x="157" y="410" type="line"/>
      <point x="231" y="369" type="line"/>
      <point x="85" y="274" type="line"/>
      <point x="30" y="347" type="line"/>
      <point x="172" y="471" type="line"/>
    </contour>
  </outline>
</glyph>
<glyph name="infinity" format="1">
  <advance width="756"/>
  <unicode hex="221E"/>
  <outline>
    <contour>
      <point x="122" y="523"/>
      <point x="30" y="447"/>
      <point x="30" y="331" type="curve" smooth="yes"/>
      <point x="30" y="212"/>
      <point x="125" y="152"/>
      <point x="204" y="152" type="curve" smooth="yes"/>
      <point x="281" y="152"/>
      <point x="348" y="211"/>
      <point x="395" y="305" type="curve"/>
      <point x="354" y="346" type="line"/>
      <point x="324" y="295"/>
      <point x="285" y="266"/>
      <point x="235" y="266" type="curve" smooth="yes"/>
      <point x="177" y="266"/>
      <point x="138" y="306"/>
      <point x="138" y="360" type="curve" smooth="yes"/>
      <point x="138" y="380"/>
      <point x="146" y="398"/>
      <point x="158" y="413" type="curve"/>
      <point x="224" y="447"/>
      <point x="288" y="383"/>
      <point x="351" y="291" type="curve"/>
      <point x="402" y="223"/>
      <point x="458" y="150"/>
      <point x="554" y="150" type="curve" smooth="yes"/>
      <point x="642" y="150"/>
      <point x="734" y="212"/>
      <point x="734" y="335" type="curve" smooth="yes"/>
      <point x="734" y="447"/>
      <point x="656" y="521"/>
      <point x="571" y="521" type="curve" smooth="yes"/>
      <point x="494" y="521"/>
      <point x="425" y="456"/>
      <point x="376" y="373" type="curve"/>
      <point x="414" y="330" type="line"/>
      <point x="451" y="381"/>
      <point x="503" y="415"/>
      <point x="547" y="415" type="curve" smooth="yes"/>
      <point x="598" y="415"/>
      <point x="627" y="367"/>
      <point x="627" y="324" type="curve" smooth="yes"/>
      <point x="627" y="302"/>
      <point x="619" y="278"/>
      <point x="604" y="261" type="curve"/>
      <point x="536" y="235"/>
      <point x="492" y="295"/>
      <point x="420" y="386" type="curve" smooth="yes"/>
      <point x="368" y="450"/>
      <point x="306" y="523"/>
      <point x="214" y="523" type="curve" smooth="yes"/>
    </contour>
  </outline>
</glyph>
<glyph name="dottedCircle" format="1">
  <advance width="725"/>
  <unicode hex="25CC"/>
  <outline>
    <contour>
      <point x="275" y="442"/>
      <point x="289" y="462"/>
      <point x="289" y="483" type="curve" smooth="yes"/>
      <point x="289" y="504"/>
      <point x="275" y="525"/>
      <point x="250" y="525" type="curve" smooth="yes"/>
      <point x="223" y="525"/>
      <point x="210" y="504"/>
      <point x="210" y="483" type="curve" smooth="yes"/>
      <point x="210" y="462"/>
      <point x="223" y="442"/>
      <point x="250" y="442" type="curve" smooth="yes"/>
    </contour>
    <contour>
      <point x="389" y="471"/>
      <point x="403" y="491"/>
      <point x="403" y="512" type="curve" smooth="yes"/>
      <point x="403" y="533"/>
      <point x="389" y="554"/>
      <point x="364" y="554" type="curve" smooth="yes"/>
      <point x="337" y="554"/>
      <point x="324" y="533"/>
      <point x="324" y="512" type="curve" smooth="yes"/>
      <point x="324" y="491"/>
      <point x="337" y="471"/>
      <point x="364" y="471" type="curve" smooth="yes"/>
    </contour>
    <contour>
      <point x="501" y="442"/>
      <point x="515" y="462"/>
      <point x="515" y="483" type="curve" smooth="yes"/>
      <point x="515" y="504"/>
      <point x="501" y="525"/>
      <point x="476" y="525" type="curve" smooth="yes"/>
      <point x="449" y="525"/>
      <point x="436" y="504"/>
      <point x="436" y="483" type="curve" smooth="yes"/>
      <point x="436" y="462"/>
      <point x="449" y="442"/>
      <point x="476" y="442" type="curve" smooth="yes"/>
    </contour>
    <contour>
      <point x="585" y="359"/>
      <point x="599" y="379"/>
      <point x="599" y="400" type="curve" smooth="yes"/>
      <point x="599" y="421"/>
      <point x="585" y="442"/>
      <point x="560" y="442" type="curve" smooth="yes"/>
      <point x="533" y="442"/>
      <point x="520" y="421"/>
      <point x="520" y="400" type="curve" smooth="yes"/>
      <point x="520" y="379"/>
      <point x="533" y="359"/>
      <point x="560" y="359" type="curve" smooth="yes"/>
    </contour>
    <contour>
      <point x="192" y="359"/>
      <point x="206" y="379"/>
      <point x="206" y="400" type="curve" smooth="yes"/>
      <point x="206" y="421"/>
      <point x="192" y="442"/>
      <point x="167" y="442" type="curve" smooth="yes"/>
      <point x="140" y="442"/>
      <point x="127" y="421"/>
      <point x="127" y="400" type="curve" smooth="yes"/>
      <point x="127" y="379"/>
      <point x="140" y="359"/>
      <point x="167" y="359" type="curve" smooth="yes"/>
    </contour>
    <contour>
      <point x="163" y="246"/>
      <point x="177" y="266"/>
      <point x="177" y="287" type="curve" smooth="yes"/>
      <point x="177" y="308"/>
      <point x="163" y="329"/>
      <point x="138" y="329" type="curve" smooth="yes"/>
      <point x="111" y="329"/>
      <point x="98" y="308"/>
      <point x="98" y="287" type="curve" smooth="yes"/>
      <point x="98" y="266"/>
      <point x="111" y="246"/>
      <point x="138" y="246" type="curve" smooth="yes"/>
    </contour>
    <contour>
      <point x="192" y="134"/>
      <point x="206" y="154"/>
      <point x="206" y="175" type="curve" smooth="yes"/>
      <point x="206" y="196"/>
      <point x="192" y="217"/>
      <point x="167" y="217" type="curve" smooth="yes"/>
      <point x="140" y="217"/>
      <point x="127" y="196"/>
      <point x="127" y="175" type="curve" smooth="yes"/>
      <point x="127" y="154"/>
      <point x="140" y="134"/>
      <point x="167" y="134" type="curve" smooth="yes"/>
    </contour>
    <contour>
      <point x="276" y="50"/>
      <point x="290" y="70"/>
      <point x="290" y="91" type="curve" smooth="yes"/>
      <point x="290" y="112"/>
      <point x="276" y="133"/>
      <point x="251" y="133" type="curve" smooth="yes"/>
      <point x="224" y="133"/>
      <point x="211" y="112"/>
      <point x="211" y="91" type="curve" smooth="yes"/>
      <point x="211" y="70"/>
      <point x="224" y="50"/>
      <point x="251" y="50" type="curve" smooth="yes"/>
    </contour>
    <contour>
      <point x="390" y="22"/>
      <point x="404" y="42"/>
      <point x="404" y="63" type="curve" smooth="yes"/>
      <point x="404" y="84"/>
      <point x="390" y="105"/>
      <point x="365" y="105" type="curve" smooth="yes"/>
      <point x="338" y="105"/>
      <point x="325" y="84"/>
      <point x="325" y="63" type="curve" smooth="yes"/>
      <point x="325" y="42"/>
      <point x="338" y="22"/>
      <point x="365" y="22" type="curve" smooth="yes"/>
    </contour>
    <contour>
      <point x="501" y="50"/>
      <point x="515" y="70"/>
      <point x="515" y="91" type="curve" smooth="yes"/>
      <point x="515" y="112"/>
      <point x="501" y="133"/>
      <point x="476" y="133" type="curve" smooth="yes"/>
      <point x="449" y="133"/>
      <point x="436" y="112"/>
      <point x="436" y="91" type="curve" smooth="yes"/>
      <point x="436" y="70"/>
      <point x="449" y="50"/>
      <point x="476" y="50" type="curve" smooth="yes"/>
    </contour>
    <contour>
      <point x="585" y="134"/>
      <point x="599" y="154"/>
      <point x="599" y="175" type="curve" smooth="yes"/>
      <point x="599" y="196"/>
      <point x="585" y="217"/>
      <point x="560" y="217" type="curve" smooth="yes"/>
      <point x="533" y="217"/>
      <point x="520" y="196"/>
      <point x="520" y="175" type="curve" smooth="yes"/>
      <point x="520" y="154"/>
      <point x="533" y="134"/>
      <point x="560" y="134" type="curve" smooth="yes"/>
    </contour>
    <contour>
      <point x="613" y="246"/>
      <point x="627" y="266"/>
      <point x="627" y="287" type="curve" smooth="yes"/>
      <point x="627" y="308"/>
      <point x="613" y="329"/>
      <point x="588" y="329" type="curve" smooth="yes"/>
      <point x="561" y="329"/>
      <point x="548" y="308"/>
      <point x="548" y="287" type="curve" smooth="yes"/>
      <point x="548" y="266"/>
      <point x="561" y="246"/>
      <point x="588" y="246" type="curve" smooth="yes"/>
    </contour>
  </outline>
</glyph>
<glyph name="dvHeadline" format="1">
  <advance width="290"/>
  <unicode hex="A8FB"/>
  <outline>
    <contour>
      <point x="320" y="538" type="line"/>
      <point x="337" y="573" type="line"/>
      <point x="289" y="639" type="line"/>
      <point x="-31" y="639" type="line"/>
      <point x="-48" y="605" type="line"/>
      <point x="-1" y="538" type="line"/>
    </contour>
  </outline>
</glyph>
<glyph name="acutecomb.case" format="1">
  <advance width="0"/>
  <outline>
    <contour>
      <point x="-87" y="688" type="line"/>
      <point x="-4" y="723"/>
      <point x="81" y="755"/>
      <point x="165" y="787" type="curve"/>
      <point x="107" y="898" type="line"/>
      <point x="-130" y="761" type="line"/>
    </contour>
    <contour>
      <point x="1" y="650" type="move" name="_top"/>
    </contour>
  </outline>
</glyph>
<glyph name="caroncomb.calt" format="1">
  <advance width="0"/>
  <outline>
    <contour>
      <point x="1" y="666" type="line"/>
      <point x="52" y="647"/>
      <point x="34" y="579"/>
      <point x="-17" y="505" type="curve"/>
      <point x="30" y="465" type="line"/>
      <point x="129" y="549"/>
      <point x="184" y="671"/>
      <point x="113" y="759" type="curve"/>
      <point x="-1" y="707" type="line"/>
    </contour>
    <contour>
      <point x="0" y="597" type="move" name="_topright"/>
    </contour>
  </outline>
</glyph>
<glyph name="dvBJYa" format="1">
  <advance width="1500"/>
  <outline>
    <component base="dvB"/>
    <component base="dvJYa" xOffset="394"/>
    <contour>
      <point x="1235" y="650" type="move" name="candrabindu"/>
    </contour>
    <contour>
      <point x="1575" y="650" type="move" name="candrabinduCXT"/>
    </contour>
    <contour>
      <point x="1207" y="650" type="move" name="bindu"/>
    </contour>
    <contour>
      <point x="1345" y="472" type="move" name="top"/>
    </contour>
    <contour>
      <point x="1267" y="3" type="move" name="bottom"/>
    </contour>
  </outline>
</glyph>
<glyph name="dvBLYa" format="1">
  <advance width="1538"/>
  <outline>
    <component base="dvB"/>
    <component base="dvL.alt" xOffset="376"/>
    <component base="dvYa" xOffset="904"/>
    <contour>
      <point x="1273" y="650" type="move" name="candrabindu"/>
    </contour>
    <contour>
      <point x="1613" y="650" type="move" name="candrabinduCXT"/>
    </contour>
    <contour>
      <point x="1245" y="650" type="move" name="bindu"/>
    </contour>
    <contour>
      <point x="1383" y="472" type="move" name="top"/>
    </contour>
    <contour>
      <point x="1305" y="3" type="move" name="bottom"/>
    </contour>
  </outline>
</glyph>
<glyph name="dvBhRYa" format="1">
  <advance width="1072"/>
  <outline>
    <contour>
      <point x="253" y="-19" type="line"/>
      <point x="348" y="-91" type="line"/>
      <point x="612" y="147" type="line"/>
      <point x="561" y="243" type="line" smooth="yes"/>
    </contour>
    <component base="uni092D094D"/>
    <component base="uni092F" xOffset="438"/>
    <contour>
      <point x="807" y="650" type="move" name="candrabindu"/>
    </contour>
    <contour>
      <point x="1147" y="650" type="move" name="candrabinduCXT"/>
    </contour>
    <contour>
      <point x="780" y="650" type="move" name="bindu"/>
    </contour>
    <contour>
      <point x="917" y="472" type="move" name="top"/>
    </contour>
    <contour>
      <point x="839" y="3" type="move" name="bottom"/>
    </contour>
  </outline>
</glyph>
<glyph name="dvC" format="1">
  <advance width="456"/>
  <outline>
    <contour>
      <point x="219" y="426" type="line"/>
      <point x="158" y="398"/>
      <point x="116" y="350"/>
      <point x="116" y="288" type="curve" smooth="yes"/>
      <point x="116" y="224"/>
      <point x="160" y="168"/>
      <point x="216" y="132" type="curve" smooth="yes"/>
      <point x="261" y="101"/>
      <point x="319" y="79"/>
      <point x="377" y="79" type="curve" smooth="yes"/>
      <point x="458" y="79"/>
      <point x="546" y="123"/>
      <point x="598" y="209" type="curve"/>
      <point x="515" y="313" type="line"/>
      <point x="464" y="220"/>
      <point x="343" y="164"/>
      <point x="259" y="190" type="curve"/>
      <point x="228" y="249"/>
      <point x="263" y="337"/>
      <point x="338" y="356" type="curve"/>
    </contour>
    <contour>
      <point x="517" y="538" type="line"/>
      <point x="534" y="573" type="line"/>
      <point x="486" y="639" type="line"/>
      <point x="-31" y="639" type="line"/>
      <point x="-48" y="605" type="line"/>
      <point x="-1" y="538" type="line"/>
    </contour>
    <contour>
      <point x="170" y="351" type="line"/>
      <point x="199" y="341" type="line"/>
      <point x="412" y="341" type="line"/>
      <point x="429" y="375" type="line"/>
      <point x="378" y="452" type="line"/>
      <point x="10" y="452" type="line"/>
      <point x="-7" y="417" type="line"/>
      <point x="39" y="351" type="line"/>
    </contour>
  </outline>
</glyph>
<glyph name="dvCCha" format="1">
  <advance width="1221"/>
  <outline>
    <component base="dvC"/>
    <component base="dvCha" xOffset="451"/>
    <contour>
      <point x="866" y="650" type="move" name="candrabindu"/>
    </contour>
    <contour>
      <point x="1231" y="650" type="move" name="candrabinduCXT"/>
    </contour>
    <contour>
      <point x="843" y="650" type="move" name="bindu"/>
    </contour>
    <contour>
      <point x="1012" y="472" type="move" name="top"/>
    </contour>
    <contour>
      <point x="824" y="-60" type="move" name="bottom"/>
    </contour>
  </outline>
</glyph>
<glyph name="dvChRYa" format="1">
  <advance width="1347"/>
  <outline>
    <component base="dvChYa"/>
    <component base="dvRakar" xOffset="391" yOffset="11"/>
    <contour>
      <point x="1099" y="650" type="move" name="candrabindu"/>
    </contour>
    <contour>
      <point x="1439" y="650" type="move" name="candrabinduCXT"/>
    </contour>
    <contour>
      <point x="1072" y="650" type="move" name="bindu"/>
    </contour>
    <contour>
      <point x="1209" y="472" type="move" name="top"/>
    </contour>
    <contour>
      <point x="1132" y="-33" type="move" name="bottom"/>
    </contour>
  </outline>
</glyph>
<glyph name="dvDBhYa" format="1">
  <advance width="1491"/>
  <outline>
    <component base="dvDBha"/>
    <component base="dvYa.post" xOffset="842"/>
    <contour>
      <point x="1226" y="650" type="move" name="candrabindu"/>
    </contour>
    <contour>
      <point x="1566" y="650" type="move" name="candrabinduCXT"/>
    </contour>
    <contour>
      <point x="1198" y="650" type="move" name="bindu"/>
    </contour>
    <contour>
      <point x="1336" y="472" type="move" name="top"/>
    </contour>
    <contour>
      <point x="1258" y="-33" type="move" name="bottom"/>
    </contour>
  </outline>
</glyph>
<glyph name="dvDDhYa" format="1">
  <advance width="1474"/>
  <outline>
    <component base="dvDDha"/>
    <component base="uni092F.post" xOffset="825"/>
    <contour>
      <point x="1209" y="650" type="move" name="candrabindu"/>
    </contour>
    <contour>
      <point x="1549" y="650" type="move" name="candrabinduCXT"/>
    </contour>
    <contour>
      <point x="1182" y="650" type="move" name="bindu"/>
    </contour>
    <contour>
      <point x="1319" y="472" type="move" name="top"/>
    </contour>
    <contour>
      <point x="1242" y="-33" type="move" name="bottom"/>
    </contour>
  </outline>
</glyph>
<glyph name="dvDRYa" format="1">
  <advance width="1176"/>
  <outline>
    <component base="dvDRa" xOffset="-7"/>
    <component base="dvYa.post" xOffset="529"/>
    <contour>
      <point x="913" y="650" type="move" name="candrabindu"/>
    </contour>
    <contour>
      <point x="1253" y="650" type="move" name="candrabinduCXT"/>
    </contour>
    <contour>
      <point x="886" y="650" type="move" name="bindu"/>
    </contour>
    <contour>
      <point x="1023" y="472" type="move" name="top"/>
    </contour>
    <contour>
      <point x="946" y="-33" type="move" name="bottom"/>
    </contour>
  </outline>
</glyph>
<glyph name="dvDVRa" format="1">
  <advance width="595"/>
  <outline>
    <contour>
      <point x="244" y="-334" type="line"/>
      <point x="334" y="-381" type="line"/>
      <point x="505" y="-141" type="line"/>
      <point x="445" y="-73" type="line" smooth="yes"/>
    </contour>
    <component base="dvDVa"/>
    <contour>
      <point x="415" y="650" type="move" name="candrabindu"/>
    </contour>
    <contour>
      <point x="660" y="650" type="move" name="candrabinduCXT"/>
    </contour>
    <contour>
      <point x="433" y="650" type="move" name="bindu"/>
    </contour>
    <contour>
      <point x="430" y="472" type="move" name="top"/>
    </contour>
    <contour>
      <point x="459" y="-337" type="move" name="bottom"/>
    </contour>
  </outline>
</glyph>
<glyph name="dvDVYa" format="1">
  <advance width="1186"/>
  <outline>
    <component base="dvDVa"/>
    <component base="dvYa.post" xOffset="537"/>
    <contour>
      <point x="921" y="650" type="move" name="candrabindu"/>
    </contour>
    <contour>
      <point x="1261" y="650" type="move" name="candrabinduCXT"/>
    </contour>
    <contour>
      <point x="894" y="650" type="move" name="bindu"/>
    </contour>
    <contour>
      <point x="1031" y="472" type="move" name="top"/>
    </contour>
    <contour>
      <point x="953" y="-33" type="move" name="bottom"/>
    </contour>
  </outline>
</glyph>
<glyph name="dvDdhRYa" format="1">
  <advance width="1223"/>
  <outline>
    <component base="dvDdhYa"/>
    <component base="dvRakar" xOffset="349" yOffset="15"/>
    <contour>
      <point x="958" y="650" type="move" name="candrabindu"/>
    </contour>
    <contour>
      <point x="1298" y="650" type="move" name="candrabinduCXT"/>
    </contour>
    <contour>
      <point x="930" y="650" type="move" name="bindu"/>
    </contour>
    <contour>
      <point x="1068" y="472" type="move" name="top"/>
    </contour>
    <contour>
      <point x="990" y="-33" type="move" name="bottom"/>
    </contour>
  </outline>
</glyph>
<glyph name="dvDhVa" format="1">
  <advance width="1066"/>
  <outline>
    <component base="dvDh"/>
    <component base="dvVa" xOffset="451"/>
    <contour>
      <point x="896" y="650" type="move" name="candrabindu"/>
    </contour>
    <contour>
      <point x="1141" y="650" type="move" name="candrabinduCXT"/>
    </contour>
    <contour>
      <point x="914" y="650" type="move" name="bindu"/>
    </contour>
    <contour>
      <point x="911" y="472" type="move" name="top"/>
    </contour>
    <contour>
      <point x="834" y="3" type="move" name="bottom"/>
    </contour>
  </outline>
</glyph>
<glyph name="dvFFa" format="1">
  <advance width="1377"/>
  <outline>
    <component base="uni095E094D"/>
    <component base="uni095E" xOffset="566"/>
    <contour>
      <point x="996" y="650" type="move" name="candrabindu"/>
    </contour>
    <contour>
      <point x="1317" y="650" type="move" name="candrabinduCXT"/>
    </contour>
    <contour>
      <point x="965" y="650" type="move" name="bindu"/>
    </contour>
    <contour>
      <point x="991" y="472" type="move" name="top"/>
    </contour>
    <contour>
      <point x="893" y="-69" type="move" name="bottom"/>
    </contour>
  </outline>
</glyph>
<glyph name="dvFRa" format="1">
  <advance width="836"/>
  <outline>
    <component base="dvPhRa"/>
    <component base="uni093C" xOffset="278" yOffset="65"/>
    <contour>
      <point x="450" y="650" type="move" name="candrabindu"/>
    </contour>
    <contour>
      <point x="771" y="650" type="move" name="candrabinduCXT"/>
    </contour>
    <contour>
      <point x="419" y="650" type="move" name="bindu"/>
    </contour>
    <contour>
      <point x="445" y="472" type="move" name="top"/>
    </contour>
    <contour>
      <point x="381" y="-134" type="move" name="bottom"/>
    </contour>
  </outline>
</glyph>
<glyph name="dvFSa" format="1">
  <advance width="1386"/>
  <outline>
    <component base="dvF"/>
    <component base="dvSa" xOffset="634"/>
    <contour>
      <point x="1089" y="650" type="move" name="candrabindu"/>
    </contour>
    <contour>
      <point x="1461" y="650" type="move" name="candrabinduCXT"/>
    </contour>
    <contour>
      <point x="1059" y="650" type="move" name="bindu"/>
    </contour>
    <contour>
      <point x="1231" y="472" type="move" name="top"/>
    </contour>
    <contour>
      <point x="1154" y="3" type="move" name="bottom"/>
    </contour>
  </outline>
</glyph>
<glyph name="dvFTa" format="1">
  <advance width="1200"/>
  <outline>
    <component base="dvF"/>
    <component base="dvTa" xOffset="590"/>
    <contour>
      <point x="1030" y="650" type="move" name="candrabindu"/>
    </contour>
    <contour>
      <point x="1275" y="650" type="move" name="candrabinduCXT"/>
    </contour>
    <contour>
      <point x="1048" y="650" type="move" name="bindu"/>
    </contour>
    <contour>
      <point x="1045" y="472" type="move" name="top"/>
    </contour>
    <contour>
      <point x="968" y="3" type="move" name="bottom"/>
    </contour>
  </outline>
</glyph>
<glyph name="dvFZa" format="1">
  <advance width="1345"/>
  <outline>
    <component base="uni095E094D"/>
    <component base="uni095B" xOffset="626"/>
    <contour>
      <point x="1175" y="650" type="move" name="candrabindu"/>
    </contour>
    <contour>
      <point x="1420" y="650" type="move" name="candrabinduCXT"/>
    </contour>
    <contour>
      <point x="1192" y="650" type="move" name="bindu"/>
    </contour>
    <contour>
      <point x="1190" y="472" type="move" name="top"/>
    </contour>
    <contour>
      <point x="1112" y="-140" type="move" name="bottom"/>
    </contour>
  </outline>
</glyph>
<glyph name="dvFive.ss05" format="1">
  <advance width="562"/>
  <outline>
    <contour>
      <point x="446" y="315" type="line"/>
      <point x="427" y="233"/>
      <point x="362" y="177"/>
      <point x="288" y="177" type="curve" smooth="yes"/>
      <point x="193" y="177"/>
      <point x="52" y="266"/>
      <point x="52" y="422" type="curve" smooth="yes"/>
      <point x="52" y="470"/>
      <point x="66" y="563"/>
      <point x="107" y="652" type="curve"/>
      <point x="233" y="606" type="line"/>
      <point x="189" y="491"/>
      <point x="161" y="367"/>
      <point x="182" y="302" type="curve"/>
      <point x="269" y="257"/>
      <point x="362" y="322"/>
      <point x="373" y="401" type="curve"/>
    </contour>
    <contour>
      <point x="484" y="578" type="line"/>
      <point x="493" y="350"/>
      <point x="429" y="147"/>
      <point x="300" y="36" type="curve"/>
      <point x="205" y="94" type="line"/>
      <point x="338" y="210"/>
      <point x="365" y="433"/>
      <point x="364" y="611" type="curve"/>
    </contour>
    <contour>
      <point x="439" y="-98" type="line"/>
      <point x="211" y="15" type="line"/>
      <point x="262" y="80" type="line"/>
      <point x="495" y="-21" type="line"/>
      <point x="495" y="-57" type="line"/>
    </contour>
    <contour>
      <point x="257" y="-9"/>
      <point x="162" y="-36"/>
      <point x="99" y="-18" type="curve"/>
      <point x="105" y="121" type="line"/>
      <point x="147" y="142" type="line"/>
      <point x="265" y="75" type="line"/>
      <point x="280" y="18" type="line"/>
    </contour>
  </outline>
</glyph>
<glyph name="dvGhR" format="1">
  <advance width="437"/>
  <outline>
    <contour>
      <point x="68" y="590" type="line"/>
      <point x="40" y="565"/>
      <point x="27" y="536"/>
      <point x="27" y="507" type="curve" smooth="yes"/>
      <point x="27" y="435"/>
      <point x="97" y="366"/>
      <point x="223" y="322" type="curve"/>
      <point x="249" y="371" type="line"/>
      <point x="191" y="390"/>
      <point x="161" y="430"/>
      <point x="161" y="468" type="curve" smooth="yes"/>
      <point x="161" y="501"/>
      <point x="182" y="533"/>
      <point x="224" y="550" type="curve"/>
    </contour>
    <contour>
      <point x="497" y="538" type="line"/>
      <point x="514" y="573" type="line"/>
      <point x="466" y="639" type="line"/>
      <point x="-41" y="639" type="line"/>
      <point x="-58" y="605" type="line"/>
      <point x="-11" y="538" type="line"/>
    </contour>
    <contour>
      <point x="408" y="341" type="line"/>
      <point x="347" y="429" type="line"/>
      <point x="195" y="457"/>
      <point x="107" y="366"/>
      <point x="107" y="280" type="curve" smooth="yes"/>
      <point x="107" y="215"/>
      <point x="157" y="158"/>
      <point x="212" y="122" type="curve" smooth="yes"/>
      <point x="257" y="92"/>
      <point x="311" y="71"/>
      <point x="365" y="71" type="curve" smooth="yes"/>
      <point x="380" y="71"/>
      <point x="394" y="73"/>
      <point x="407" y="76" type="curve"/>
      <point x="524" y="170" type="line"/>
      <point x="506" y="287" type="line"/>
      <point x="480" y="263"/>
      <point x="453" y="241"/>
      <point x="421" y="219" type="curve" smooth="yes"/>
      <point x="367" y="181"/>
      <point x="298" y="164"/>
      <point x="251" y="182" type="curve"/>
      <point x="203" y="238"/>
      <point x="258" y="327"/>
      <point x="390" y="306" type="curve"/>
    </contour>
    <contour>
      <point x="133" y="7" type="line"/>
      <point x="231" y="-73" type="line"/>
      <point x="580" y="190" type="line"/>
      <point x="506" y="287" type="line"/>
      <point x="495" y="259" type="line" smooth="yes"/>
    </contour>
  </outline>
</glyph>
<glyph name="dvGhhRa" format="1">
  <advance width="640"/>
  <outline>
    <component base="dvGRa"/>
    <component base="uni093C" xOffset="373" yOffset="43"/>
    <contour>
      <point x="370" y="650" type="move" name="candrabindu"/>
    </contour>
    <contour>
      <point x="715" y="650" type="move" name="candrabinduCXT"/>
    </contour>
    <contour>
      <point x="353" y="650" type="move" name="bindu"/>
    </contour>
    <contour>
      <point x="485" y="472" type="move" name="top"/>
    </contour>
    <contour>
      <point x="398" y="-188" type="move" name="bottom"/>
    </contour>
  </outline>
</glyph>
<glyph name="dvHeadline.small" format="1">
  <advance width="120"/>
  <outline>
    <contour>
      <point x="150" y="538" type="line"/>
      <point x="167" y="573" type="line"/>
      <point x="119" y="639" type="line"/>
      <point x="-31" y="639" type="line"/>
      <point x="-48" y="605" type="line"/>
      <point x="-1" y="538" type="line"/>
    </contour>
  </outline>
</glyph>
<glyph name="dvHeadlineCandrabindu" format="1">
  <advance width="290"/>
  <outline>
    <contour>
      <point x="320" y="538" type="line"/>
      <point x="337" y="573" type="line"/>
      <point x="289" y="639" type="line"/>
      <point x="-31" y="639" type="line"/>
      <point x="-48" y="605" type="line"/>
      <point x="-1" y="538" type="line"/>
    </contour>
    <component base="dvCandrabindu" xOffset="340"/>
  </outline>
</glyph>
<glyph name="dvJ" format="1">
  <advance width="472"/>
  <outline>
    <contour>
      <point x="1" y="389" type="line"/>
      <point x="56" y="185"/>
      <point x="148" y="27"/>
      <point x="290" y="27" type="curve" smooth="yes"/>
      <point x="379" y="27"/>
      <point x="438" y="90"/>
      <point x="438" y="169" type="curve" smooth="yes"/>
      <point x="438" y="260"/>
      <point x="361" y="352"/>
      <point x="217" y="384" type="curve"/>
      <point x="194" y="389" type="line"/>
      <point x="194" y="356" type="line"/>
      <point x="274" y="324" type="line"/>
      <point x="349" y="265"/>
      <point x="332" y="163"/>
      <point x="252" y="163" type="curve" smooth="yes"/>
      <point x="174" y="163"/>
      <point x="131" y="262"/>
      <point x="84" y="416" type="curve"/>
    </contour>
    <contour>
      <point x="569" y="538" type="line"/>
      <point x="586" y="573" type="line"/>
      <point x="538" y="639" type="line"/>
      <point x="-31" y="639" type="line"/>
      <point x="-48" y="605" type="line"/>
      <point x="-1" y="538" type="line"/>
    </contour>
    <contour>
      <point x="610" y="345" type="line"/>
      <point x="562" y="425" type="line"/>
      <point x="194" y="425" type="line"/>
      <point x="194" y="379" type="line"/>
      <point x="322" y="309" type="line"/>
      <point x="589" y="309" type="line"/>
    </contour>
  </outline>
</glyph>
<glyph name="dvJNy" format="1">
  <advance width="490"/>
  <outline>
    <contour>
      <point x="616" y="379" type="line"/>
      <point x="499" y="444"/>
      <point x="363" y="479"/>
      <point x="240" y="479" type="curve"/>
      <point x="121" y="479"/>
      <point x="48" y="436"/>
      <point x="48" y="353" type="curve" smooth="yes"/>
      <point x="48" y="302"/>
      <point x="95" y="222"/>
      <point x="155" y="175" type="curve"/>
      <point x="286" y="142" type="line" smooth="yes"/>
      <point x="338" y="129"/>
      <point x="355" y="108"/>
      <point x="355" y="87" type="curve" smooth="yes"/>
      <point x="355" y="35"/>
      <point x="253" y="9"/>
      <point x="152" y="46" type="curve"/>
      <point x="189" y="-67" type="line"/>
      <point x="315" y="-119"/>
      <point x="468" y="-76"/>
      <point x="468" y="50" type="curve" smooth="yes"/>
      <point x="468" y="121"/>
      <point x="419" y="199"/>
      <point x="332" y="272" type="curve"/>
      <point x="139" y="314" type="line"/>
      <point x="141" y="346"/>
      <point x="177" y="357"/>
      <point x="234" y="357" type="curve"/>
      <point x="347" y="357"/>
      <point x="491" y="318"/>
      <point x="603" y="257" type="curve"/>
    </contour>
    <contour>
      <point x="684" y="538" type="line"/>
      <point x="701" y="573" type="line"/>
      <point x="653" y="639" type="line"/>
      <point x="-31" y="639" type="line"/>
      <point x="-48" y="605" type="line"/>
      <point x="-1" y="538" type="line"/>
    </contour>
    <contour>
      <point x="442" y="-168" type="line"/>
      <point x="196" y="-35" type="line"/>
      <point x="135" y="-55" type="line"/>
      <point x="364" y="-286" type="line"/>
      <point x="447" y="-204" type="line"/>
    </contour>
    <contour>
      <point x="226" y="-48" type="line"/>
      <point x="221" y="-1" type="line"/>
      <point x="128" y="107" type="line"/>
      <point x="85" y="98" type="line"/>
      <point x="45" y="-42" type="line"/>
      <point x="82" y="-72"/>
      <point x="165" y="-94"/>
      <point x="211" y="-87" type="curve"/>
    </contour>
  </outline>
</glyph>
<glyph name="dvJYa" format="1">
  <advance width="1106"/>
  <outline>
    <component base="uni091C094D.alt"/>
    <component base="uni092F" xOffset="472"/>
    <contour>
      <point x="841" y="650" type="move" name="candrabindu"/>
    </contour>
    <contour>
      <point x="1181" y="650" type="move" name="candrabinduCXT"/>
    </contour>
    <contour>
      <point x="813" y="650" type="move" name="bindu"/>
    </contour>
    <contour>
      <point x="951" y="472" type="move" name="top"/>
    </contour>
    <contour>
      <point x="873" y="3" type="move" name="bottom"/>
    </contour>
  </outline>
</glyph>
<glyph name="dvJh.NEP" format="1">
  <advance width="717"/>
  <outline>
    <contour>
      <point x="80" y="286" type="line"/>
      <point x="105" y="216"/>
      <point x="198" y="126"/>
      <point x="264" y="99" type="curve"/>
      <point x="321" y="127" type="line"/>
      <point x="321" y="296" type="line"/>
      <point x="254" y="335" type="line"/>
      <point x="112" y="335" type="line"/>
    </contour>
    <contour>
      <point x="455" y="14" type="line"/>
      <point x="551" y="-40" type="line"/>
      <point x="590" y="-23" type="line"/>
      <point x="590" y="493" type="line"/>
      <point x="501" y="560" type="line"/>
      <point x="455" y="581" type="line"/>
    </contour>
    <contour>
      <point x="751" y="538" type="line"/>
      <point x="768" y="573" type="line"/>
      <point x="720" y="639" type="line"/>
      <point x="372" y="639" type="line"/>
      <point x="355" y="605" type="line"/>
      <point x="403" y="538" type="line"/>
    </contour>
    <contour>
      <point x="527" y="335" type="line"/>
      <point x="199" y="335" type="line"/>
      <point x="230" y="219" type="line"/>
      <point x="549" y="219" type="line"/>
    </contour>
    <contour>
      <point x="36" y="663"/>
      <point x="-15" y="612"/>
      <point x="-15" y="551" type="curve" smooth="yes"/>
      <point x="-15" y="506"/>
      <point x="12" y="457"/>
      <point x="97" y="401" type="curve"/>
      <point x="143" y="444" type="line"/>
      <point x="64" y="498"/>
      <point x="100" y="573"/>
      <point x="165" y="568" type="curve"/>
      <point x="185" y="550"/>
      <point x="189" y="522"/>
      <point x="189" y="491" type="curve" smooth="yes"/>
      <point x="189" y="251" type="line"/>
      <point x="319" y="227" type="line"/>
      <point x="319" y="448" type="line"/>
      <point x="317" y="549"/>
      <point x="216" y="663"/>
      <point x="108" y="663" type="curve" smooth="yes"/>
    </contour>
    <contour>
      <point x="842" y="301" type="line"/>
      <point x="804" y="375"/>
      <point x="748" y="411"/>
      <point x="687" y="411" type="curve" smooth="yes"/>
      <point x="622" y="411"/>
      <point x="550" y="369"/>
      <point x="483" y="288" type="curve"/>
      <point x="533" y="175" type="line"/>
      <point x="587" y="243"/>
      <point x="652" y="291"/>
      <point x="708" y="291" type="curve" smooth="yes"/>
      <point x="739" y="291"/>
      <point x="766" y="276"/>
      <point x="785" y="249" type="curve" smooth="yes"/>
    </contour>
  </outline>
</glyph>
<glyph name="dvJh" format="1">
  <advance width="590"/>
  <outline>
    <contour>
      <point x="662" y="538" type="line"/>
      <point x="679" y="573" type="line"/>
      <point x="631" y="639" type="line"/>
      <point x="504" y="639" type="line"/>
      <point x="487" y="605" type="line"/>
      <point x="535" y="538" type="line"/>
    </contour>
    <contour>
      <point x="376" y="265" type="line"/>
      <point x="475" y="187"/>
      <point x="585" y="139"/>
      <point x="686" y="203" type="curve"/>
      <point x="633" y="314" type="line"/>
      <point x="580" y="262"/>
      <point x="479" y="271"/>
      <point x="388" y="309" type="curve"/>
    </contour>
    <component base="dvI"/>
  </outline>
</glyph>
<glyph name="dvKR" format="1">
  <advance width="623"/>
  <outline>
    <contour>
      <point x="337" y="14" type="line"/>
      <point x="433" y="-40" type="line"/>
      <point x="472" y="-23" type="line"/>
      <point x="472" y="493" type="line"/>
      <point x="383" y="560" type="line"/>
      <point x="337" y="581" type="line"/>
    </contour>
    <contour>
      <point x="11" y="21" type="line"/>
      <point x="109" y="-59" type="line"/>
      <point x="431" y="182" type="line"/>
      <point x="371" y="268" type="line" smooth="yes"/>
    </contour>
    <contour>
      <point x="244" y="458" type="line"/>
      <point x="123" y="487"/>
      <point x="32" y="407"/>
      <point x="32" y="306" type="curve" smooth="yes"/>
      <point x="32" y="179"/>
      <point x="174" y="93"/>
      <point x="275" y="93" type="curve" smooth="yes"/>
      <point x="285" y="93"/>
      <point x="294" y="94"/>
      <point x="303" y="95" type="curve"/>
      <point x="419" y="182" type="line"/>
      <point x="360" y="299" type="line"/>
      <point x="323" y="222"/>
      <point x="245" y="184"/>
      <point x="185" y="201" type="curve"/>
      <point x="141" y="266"/>
      <point x="174" y="358"/>
      <point x="265" y="358" type="curve" smooth="yes"/>
      <point x="308" y="358"/>
      <point x="350" y="338"/>
      <point x="396" y="307" type="curve"/>
      <point x="409" y="373" type="line"/>
    </contour>
    <contour>
      <point x="737" y="333" type="line"/>
      <point x="708" y="392"/>
      <point x="648" y="435"/>
      <point x="586" y="435" type="curve" smooth="yes"/>
      <point x="500" y="435"/>
      <point x="434" y="353"/>
      <point x="388" y="275" type="curve"/>
      <point x="438" y="162" type="line"/>
      <point x="496" y="242"/>
      <point x="564" y="312"/>
      <point x="613" y="312" type="curve" smooth="yes"/>
      <point x="636" y="312"/>
      <point x="654" y="297"/>
      <point x="663" y="283" type="curve" smooth="yes"/>
      <point x="672" y="273" type="line"/>
    </contour>
    <contour>
      <point x="660" y="538" type="line"/>
      <point x="677" y="573" type="line"/>
      <point x="630" y="639" type="line"/>
      <point x="-31" y="639" type="line"/>
      <point x="-48" y="605" type="line"/>
      <point x="-1" y="538" type="line"/>
    </contour>
  </outline>
</glyph>
<glyph name="dvKSPLa.MAR" format="1">
  <advance width="2124"/>
  <outline>
    <component base="uni0915094D"/>
    <component base="uni0938094D" xOffset="632"/>
    <component base="uni092A094D" xOffset="1064"/>
    <component base="uni0932.MAR" xOffset="1385"/>
    <contour>
      <point x="1879" y="650" type="move" name="candrabindu"/>
    </contour>
    <contour>
      <point x="2126" y="650" type="move" name="candrabinduCXT"/>
    </contour>
    <contour>
      <point x="1887" y="650" type="move" name="bindu"/>
    </contour>
    <contour>
      <point x="1891" y="472" type="move" name="top"/>
    </contour>
    <contour>
      <point x="1742" y="-62" type="move" name="bottom"/>
    </contour>
  </outline>
</glyph>
<glyph name="dvKSPLa" format="1">
  <advance width="2100"/>
  <outline>
    <component base="uni0915094D"/>
    <component base="uni0938094D" xOffset="603"/>
    <component base="uni092A094D" xOffset="1045"/>
    <component base="uni0932" xOffset="1364"/>
    <contour>
      <point x="1930" y="650" type="move" name="candrabindu"/>
    </contour>
    <contour>
      <point x="2175" y="650" type="move" name="candrabinduCXT"/>
    </contour>
    <contour>
      <point x="1948" y="650" type="move" name="bindu"/>
    </contour>
    <contour>
      <point x="1945" y="472" type="move" name="top"/>
    </contour>
    <contour>
      <point x="1868" y="3" type="move" name="bottom"/>
    </contour>
  </outline>
</glyph>
<glyph name="dvKSPRa" format="1">
  <advance width="1642"/>
  <outline>
    <component base="uni0915094D"/>
    <component base="uni0938094D" xOffset="603"/>
    <component base="dvPRa" xOffset="1023"/>
    <contour>
      <point x="1362" y="650" type="move" name="candrabindu"/>
    </contour>
    <contour>
      <point x="1717" y="650" type="move" name="candrabinduCXT"/>
    </contour>
    <contour>
      <point x="1350" y="650" type="move" name="bindu"/>
    </contour>
    <contour>
      <point x="1487" y="472" type="move" name="top"/>
    </contour>
    <contour>
      <point x="1410" y="-28" type="move" name="bottom"/>
    </contour>
  </outline>
</glyph>
<glyph name="dvKSsVa" format="1">
  <advance width="1170"/>
  <outline>
    <component base="dvKSs"/>
    <component base="dvVa" xOffset="555"/>
    <contour>
      <point x="1000" y="650" type="move" name="candrabindu"/>
    </contour>
    <contour>
      <point x="1245" y="650" type="move" name="candrabinduCXT"/>
    </contour>
    <contour>
      <point x="1017" y="650" type="move" name="bindu"/>
    </contour>
    <contour>
      <point x="1015" y="472" type="move" name="top"/>
    </contour>
    <contour>
      <point x="937" y="3" type="move" name="bottom"/>
    </contour>
  </outline>
</glyph>
<glyph name="dvKTYa" format="1">
  <advance width="1576"/>
  <outline>
    <component base="uni0915094D"/>
    <component base="uni0924094D" xOffset="603"/>
    <component base="uni092F" xOffset="942"/>
    <contour>
      <point x="1311" y="650" type="move" name="candrabindu"/>
    </contour>
    <contour>
      <point x="1651" y="650" type="move" name="candrabinduCXT"/>
    </contour>
    <contour>
      <point x="1284" y="650" type="move" name="bindu"/>
    </contour>
    <contour>
      <point x="1421" y="472" type="move" name="top"/>
    </contour>
    <contour>
      <point x="1344" y="3" type="move" name="bottom"/>
    </contour>
  </outline>
</glyph>
<glyph name="dvKYa" format="1">
  <advance width="1236"/>
  <outline>
    <component base="dvK"/>
    <component base="dvYa" xOffset="602"/>
    <contour>
      <point x="971" y="650" type="move" name="candrabindu"/>
    </contour>
    <contour>
      <point x="1311" y="650" type="move" name="candrabinduCXT"/>
    </contour>
    <contour>
      <point x="944" y="650" type="move" name="bindu"/>
    </contour>
    <contour>
      <point x="1081" y="472" type="move" name="top"/>
    </contour>
    <contour>
      <point x="1004" y="3" type="move" name="bottom"/>
    </contour>
  </outline>
</glyph>
<glyph name="dvKhhMa" format="1">
  <advance width="1317"/>
  <outline>
    <component base="uni0959094D"/>
    <component base="uni092E" xOffset="653"/>
    <contour>
      <point x="1031" y="650" type="move" name="candrabindu"/>
    </contour>
    <contour>
      <point x="1392" y="650" type="move" name="candrabinduCXT"/>
    </contour>
    <contour>
      <point x="1014" y="650" type="move" name="bindu"/>
    </contour>
    <contour>
      <point x="1162" y="472" type="move" name="top"/>
    </contour>
    <contour>
      <point x="1084" y="3" type="move" name="bottom"/>
    </contour>
  </outline>
</glyph>
<glyph name="dvKhhSa" format="1">
  <advance width="1408"/>
  <outline>
    <component base="dvKhh"/>
    <component base="dvSa" xOffset="655"/>
    <contour>
      <point x="1238" y="650" type="move" name="candrabindu"/>
    </contour>
    <contour>
      <point x="1483" y="650" type="move" name="candrabinduCXT"/>
    </contour>
    <contour>
      <point x="1255" y="650" type="move" name="bindu"/>
    </contour>
    <contour>
      <point x="1253" y="472" type="move" name="top"/>
    </contour>
    <contour>
      <point x="1175" y="3" type="move" name="bottom"/>
    </contour>
  </outline>
</glyph>
<glyph name="dvKhhTa" format="1">
  <advance width="1262"/>
  <outline>
    <component base="uni0959094D"/>
    <component base="uni0924" xOffset="651"/>
    <contour>
      <point x="1092" y="650" type="move" name="candrabindu"/>
    </contour>
    <contour>
      <point x="1337" y="650" type="move" name="candrabinduCXT"/>
    </contour>
    <contour>
      <point x="1109" y="650" type="move" name="bindu"/>
    </contour>
    <contour>
      <point x="1107" y="472" type="move" name="top"/>
    </contour>
    <contour>
      <point x="1029" y="3" type="move" name="bottom"/>
    </contour>
  </outline>
</glyph>
<glyph name="dvKhhVa" format="1">
  <advance width="1291"/>
  <outline>
    <component base="dvKhh"/>
    <component base="dvVa" xOffset="676"/>
    <contour>
      <point x="1121" y="650" type="move" name="candrabindu"/>
    </contour>
    <contour>
      <point x="1366" y="650" type="move" name="candrabinduCXT"/>
    </contour>
    <contour>
      <point x="1139" y="650" type="move" name="bindu"/>
    </contour>
    <contour>
      <point x="1136" y="472" type="move" name="top"/>
    </contour>
    <contour>
      <point x="1059" y="3" type="move" name="bottom"/>
    </contour>
  </outline>
</glyph>
<glyph name="dvKhhYa" format="1">
  <advance width="1293"/>
  <outline>
    <component base="uni0959094D"/>
    <component base="uni092F" xOffset="659"/>
    <contour>
      <point x="1028" y="650" type="move" name="candrabindu"/>
    </contour>
    <contour>
      <point x="1368" y="650" type="move" name="candrabinduCXT"/>
    </contour>
    <contour>
      <point x="1000" y="650" type="move" name="bindu"/>
    </contour>
    <contour>
      <point x="1138" y="472" type="move" name="top"/>
    </contour>
    <contour>
      <point x="1060" y="3" type="move" name="bottom"/>
    </contour>
  </outline>
</glyph>
<glyph name="dvL.alt1" format="1">
  <advance width="460"/>
  <outline>
    <contour>
      <point x="410" y="153" type="line"/>
      <point x="399" y="295"/>
      <point x="472" y="360"/>
      <point x="552" y="360" type="curve" smooth="yes"/>
      <point x="576" y="360"/>
      <point x="598" y="354"/>
      <point x="626" y="341" type="curve"/>
      <point x="660" y="408" type="line"/>
      <point x="615" y="437"/>
      <point x="567" y="452"/>
      <point x="515" y="452" type="curve" smooth="yes"/>
      <point x="395" y="452"/>
      <point x="270" y="371"/>
      <point x="279" y="200" type="curve"/>
      <point x="376" y="134" type="line"/>
    </contour>
    <contour>
      <point x="389" y="313" type="line"/>
      <point x="253" y="438" type="line"/>
      <point x="233" y="448"/>
      <point x="210" y="453"/>
      <point x="187" y="453" type="curve" smooth="yes"/>
      <point x="109" y="453"/>
      <point x="23" y="395"/>
      <point x="23" y="286" type="curve" smooth="yes"/>
      <point x="23" y="180"/>
      <point x="104" y="69"/>
      <point x="295" y="-47" type="curve"/>
      <point x="348" y="23" type="line"/>
      <point x="234" y="95"/>
      <point x="164" y="156"/>
      <point x="164" y="235" type="curve" smooth="yes"/>
      <point x="164" y="292"/>
      <point x="201" y="328"/>
      <point x="249" y="328" type="curve" smooth="yes"/>
      <point x="277" y="328"/>
      <point x="310" y="316"/>
      <point x="337" y="288" type="curve"/>
      <point x="365" y="254" type="line"/>
    </contour>
    <contour>
      <point x="541" y="538" type="line"/>
      <point x="558" y="573" type="line"/>
      <point x="510" y="639" type="line"/>
      <point x="-31" y="639" type="line"/>
      <point x="-48" y="605" type="line"/>
      <point x="-1" y="538" type="line"/>
    </contour>
  </outline>
</glyph>
<glyph name="dvL" format="1">
  <advance width="512"/>
  <outline>
    <contour>
      <point x="411" y="153" type="line"/>
      <point x="401" y="261"/>
      <point x="442" y="343"/>
      <point x="507" y="343" type="curve" smooth="yes"/>
      <point x="536" y="343"/>
      <point x="557" y="326"/>
      <point x="585" y="296" type="curve"/>
      <point x="623" y="368" type="line"/>
      <point x="579" y="421"/>
      <point x="534" y="445"/>
      <point x="479" y="445" type="curve" smooth="yes"/>
      <point x="365" y="445"/>
      <point x="268" y="344"/>
      <point x="279" y="200" type="curve"/>
      <point x="378" y="134" type="line"/>
    </contour>
    <contour>
      <point x="389" y="313" type="line"/>
      <point x="253" y="438" type="line"/>
      <point x="233" y="448"/>
      <point x="210" y="453"/>
      <point x="187" y="453" type="curve" smooth="yes"/>
      <point x="109" y="453"/>
      <point x="23" y="395"/>
      <point x="23" y="286" type="curve" smooth="yes"/>
      <point x="23" y="180"/>
      <point x="104" y="69"/>
      <point x="295" y="-47" type="curve"/>
      <point x="348" y="23" type="line"/>
      <point x="234" y="95"/>
      <point x="164" y="156"/>
      <point x="164" y="235" type="curve" smooth="yes"/>
      <point x="164" y="292"/>
      <point x="201" y="328"/>
      <point x="249" y="328" type="curve" smooth="yes"/>
      <point x="277" y="328"/>
      <point x="310" y="316"/>
      <point x="337" y="288" type="curve"/>
      <point x="365" y="254" type="line"/>
    </contour>
    <contour>
      <point x="566" y="538" type="line"/>
      <point x="583" y="573" type="line"/>
      <point x="535" y="639" type="line"/>
      <point x="-31" y="639" type="line"/>
      <point x="-48" y="605" type="line"/>
      <point x="-1" y="538" type="line"/>
    </contour>
  </outline>
</glyph>
<glyph name="dvLBh" format="1">
  <advance width="935"/>
  <outline>
    <contour>
      <point x="389" y="313" type="line"/>
      <point x="253" y="438" type="line"/>
      <point x="233" y="448"/>
      <point x="210" y="453"/>
      <point x="187" y="453" type="curve" smooth="yes"/>
      <point x="109" y="453"/>
      <point x="23" y="395"/>
      <point x="23" y="286" type="curve" smooth="yes"/>
      <point x="23" y="180"/>
      <point x="104" y="69"/>
      <point x="295" y="-47" type="curve"/>
      <point x="348" y="23" type="line"/>
      <point x="234" y="95"/>
      <point x="164" y="156"/>
      <point x="164" y="235" type="curve" smooth="yes"/>
      <point x="164" y="292"/>
      <point x="201" y="328"/>
      <point x="249" y="328" type="curve" smooth="yes"/>
      <point x="277" y="328"/>
      <point x="310" y="316"/>
      <point x="337" y="288" type="curve"/>
      <point x="365" y="254" type="line"/>
    </contour>
    <contour>
      <point x="481" y="538" type="line"/>
      <point x="498" y="573" type="line"/>
      <point x="451" y="639" type="line"/>
      <point x="-31" y="639" type="line"/>
      <point x="-48" y="605" type="line"/>
      <point x="-1" y="538" type="line"/>
    </contour>
    <contour>
      <point x="639" y="286" type="line"/>
      <point x="597" y="372"/>
      <point x="534" y="411"/>
      <point x="465" y="411" type="curve" smooth="yes"/>
      <point x="366" y="411"/>
      <point x="270" y="347"/>
      <point x="279" y="200" type="curve"/>
      <point x="378" y="134" type="line"/>
      <point x="411" y="153" type="line"/>
      <point x="400" y="265"/>
      <point x="449" y="315"/>
      <point x="505" y="315" type="curve" smooth="yes"/>
      <point x="539" y="315"/>
      <point x="571" y="296"/>
      <point x="596" y="254" type="curve"/>
    </contour>
    <component base="dvBh" xOffset="493"/>
  </outline>
</glyph>
<glyph name="dvLKYa" format="1">
  <advance width="1715"/>
  <outline>
    <component base="dvL"/>
    <component base="dvKYa" xOffset="479"/>
    <contour>
      <point x="1450" y="650" type="move" name="candrabindu"/>
    </contour>
    <contour>
      <point x="1790" y="650" type="move" name="candrabinduCXT"/>
    </contour>
    <contour>
      <point x="1423" y="650" type="move" name="bindu"/>
    </contour>
    <contour>
      <point x="1560" y="472" type="move" name="top"/>
    </contour>
    <contour>
      <point x="1483" y="3" type="move" name="bottom"/>
    </contour>
  </outline>
</glyph>
<glyph name="dvLLYa" format="1">
  <advance width="1669"/>
  <outline>
    <component base="dvL"/>
    <component base="dvL.alt" xOffset="507"/>
    <component base="dvYa" xOffset="1035"/>
    <contour>
      <point x="1404" y="650" type="move" name="candrabindu"/>
    </contour>
    <contour>
      <point x="1744" y="650" type="move" name="candrabinduCXT"/>
    </contour>
    <contour>
      <point x="1376" y="650" type="move" name="bindu"/>
    </contour>
    <contour>
      <point x="1514" y="472" type="move" name="top"/>
    </contour>
    <contour>
      <point x="1436" y="3" type="move" name="bottom"/>
    </contour>
  </outline>
</glyph>
<glyph name="dvLThYa" format="1">
  <advance width="1554"/>
  <outline>
    <component base="dvL.alt"/>
    <component base="dvTh" xOffset="519"/>
    <component base="dvYa" xOffset="920"/>
    <contour>
      <point x="1289" y="650" type="move" name="candrabindu"/>
    </contour>
    <contour>
      <point x="1629" y="650" type="move" name="candrabinduCXT"/>
    </contour>
    <contour>
      <point x="1261" y="650" type="move" name="bindu"/>
    </contour>
    <contour>
      <point x="1399" y="472" type="move" name="top"/>
    </contour>
    <contour>
      <point x="1321" y="3" type="move" name="bottom"/>
    </contour>
  </outline>
</glyph>
<glyph name="dvLl" format="1">
  <advance width="764"/>
  <outline>
    <contour>
      <point x="416" y="299" type="line"/>
      <point x="285" y="435" type="line"/>
      <point x="264" y="445"/>
      <point x="242" y="453"/>
      <point x="211" y="453" type="curve" smooth="yes"/>
      <point x="108" y="453"/>
      <point x="27" y="364"/>
      <point x="27" y="242" type="curve" smooth="yes"/>
      <point x="27" y="105"/>
      <point x="127" y="-14"/>
      <point x="242" y="-14" type="curve" smooth="yes"/>
      <point x="389" y="-14"/>
      <point x="425" y="215"/>
      <point x="551" y="356" type="curve"/>
      <point x="600" y="337"/>
      <point x="623" y="277"/>
      <point x="623" y="225" type="curve" smooth="yes"/>
      <point x="623" y="159"/>
      <point x="587" y="94"/>
      <point x="518" y="94" type="curve" smooth="yes"/>
      <point x="469" y="94"/>
      <point x="435" y="126"/>
      <point x="389" y="197" type="curve"/>
      <point x="345" y="139" type="line"/>
      <point x="467" y="10" type="line"/>
      <point x="495" y="-6"/>
      <point x="527" y="-14"/>
      <point x="559" y="-14" type="curve" smooth="yes"/>
      <point x="661" y="-14"/>
      <point x="739" y="67"/>
      <point x="739" y="187" type="curve" smooth="yes"/>
      <point x="739" y="316"/>
      <point x="646" y="451"/>
      <point x="527" y="451" type="curve" smooth="yes"/>
      <point x="369" y="451"/>
      <point x="365" y="185"/>
      <point x="214" y="70" type="curve"/>
      <point x="174" y="93"/>
      <point x="147" y="147"/>
      <point x="147" y="201" type="curve" smooth="yes"/>
      <point x="147" y="267"/>
      <point x="187" y="332"/>
      <point x="247" y="332" type="curve" smooth="yes"/>
      <point x="288" y="332"/>
      <point x="326" y="300"/>
      <point x="367" y="243" type="curve"/>
    </contour>
    <contour>
      <point x="794" y="538" type="line"/>
      <point x="811" y="573" type="line"/>
      <point x="764" y="639" type="line"/>
      <point x="-31" y="639" type="line"/>
      <point x="-48" y="605" type="line"/>
      <point x="-1" y="538" type="line"/>
    </contour>
  </outline>
</glyph>
<glyph name="dvMBhYa" format="1">
  <advance width="1420"/>
  <outline>
    <contour>
      <point x="22" y="276" type="line"/>
      <point x="47" y="206"/>
      <point x="140" y="116"/>
      <point x="206" y="89" type="curve"/>
      <point x="263" y="117" type="line"/>
      <point x="263" y="286" type="line"/>
      <point x="196" y="325" type="line"/>
      <point x="54" y="325" type="line"/>
    </contour>
    <contour>
      <point x="359" y="538" type="line"/>
      <point x="376" y="573" type="line"/>
      <point x="329" y="639" type="line"/>
      <point x="-31" y="639" type="line"/>
      <point x="-48" y="605" type="line"/>
      <point x="-1" y="538" type="line"/>
    </contour>
    <contour>
      <point x="135" y="245" type="line"/>
      <point x="260" y="208" type="line"/>
      <point x="257" y="493" type="line"/>
      <point x="168" y="560" type="line"/>
      <point x="120" y="581" type="line"/>
    </contour>
    <contour>
      <point x="484" y="325" type="line"/>
      <point x="156" y="325" type="line"/>
      <point x="187" y="209" type="line"/>
      <point x="516" y="209" type="line"/>
    </contour>
    <component base="uni092D094D" xOffset="371"/>
    <component base="uni092F" xOffset="786"/>
    <contour>
      <point x="1155" y="650" type="move" name="candrabindu"/>
    </contour>
    <contour>
      <point x="1495" y="650" type="move" name="candrabinduCXT"/>
    </contour>
    <contour>
      <point x="1127" y="650" type="move" name="bindu"/>
    </contour>
    <contour>
      <point x="1265" y="472" type="move" name="top"/>
    </contour>
    <contour>
      <point x="1187" y="3" type="move" name="bottom"/>
    </contour>
  </outline>
</glyph>
<glyph name="dvN" format="1">
  <advance width="316"/>
  <outline>
    <contour>
      <point x="354" y="538" type="line"/>
      <point x="371" y="573" type="line"/>
      <point x="324" y="639" type="line"/>
      <point x="-31" y="639" type="line"/>
      <point x="-48" y="605" type="line"/>
      <point x="-1" y="538" type="line"/>
    </contour>
    <contour>
      <point x="9" y="321" type="line"/>
      <point x="27" y="249"/>
      <point x="90" y="161"/>
      <point x="154" y="120" type="curve"/>
      <point x="214" y="148" type="line"/>
      <point x="214" y="330" type="line"/>
      <point x="147" y="374" type="line"/>
      <point x="48" y="374" type="line"/>
    </contour>
    <contour>
      <point x="445" y="290" type="line"/>
      <point x="400" y="374" type="line"/>
      <point x="102" y="374" type="line"/>
      <point x="133" y="258" type="line"/>
      <point x="425" y="258" type="line"/>
    </contour>
  </outline>
</glyph>
<glyph name="dvNJYa" format="1">
  <advance width="1426"/>
  <outline>
    <component base="dvN"/>
    <component base="dvJYa" xOffset="321"/>
    <contour>
      <point x="1161" y="650" type="move" name="candrabindu"/>
    </contour>
    <contour>
      <point x="1501" y="650" type="move" name="candrabinduCXT"/>
    </contour>
    <contour>
      <point x="1134" y="650" type="move" name="bindu"/>
    </contour>
    <contour>
      <point x="1271" y="472" type="move" name="top"/>
    </contour>
    <contour>
      <point x="1194" y="3" type="move" name="bottom"/>
    </contour>
  </outline>
</glyph>
<glyph name="dvNTSa" format="1">
  <advance width="1360"/>
  <outline>
    <component base="dvN"/>
    <component base="dvT.alt1" xOffset="262"/>
    <component base="dvSa" xOffset="608"/>
    <contour>
      <point x="1063" y="650" type="move" name="candrabindu"/>
    </contour>
    <contour>
      <point x="1435" y="650" type="move" name="candrabinduCXT"/>
    </contour>
    <contour>
      <point x="1033" y="650" type="move" name="bindu"/>
    </contour>
    <contour>
      <point x="1205" y="472" type="move" name="top"/>
    </contour>
    <contour>
      <point x="1128" y="3" type="move" name="bottom"/>
    </contour>
  </outline>
</glyph>
<glyph name="dvNTYa" format="1">
  <advance width="1273"/>
  <outline>
    <component base="uni0928094D"/>
    <component base="dvTYa" xOffset="296"/>
    <contour>
      <point x="1008" y="650" type="move" name="candrabindu"/>
    </contour>
    <contour>
      <point x="1348" y="650" type="move" name="candrabinduCXT"/>
    </contour>
    <contour>
      <point x="980" y="650" type="move" name="bindu"/>
    </contour>
    <contour>
      <point x="1118" y="472" type="move" name="top"/>
    </contour>
    <contour>
      <point x="1040" y="3" type="move" name="bottom"/>
    </contour>
  </outline>
</glyph>
<glyph name="dvNThVa" format="1">
  <advance width="1320"/>
  <outline>
    <component base="dvN"/>
    <component base="dvTh" xOffset="304"/>
    <component base="dvVa" xOffset="705"/>
    <contour>
      <point x="1150" y="650" type="move" name="candrabindu"/>
    </contour>
    <contour>
      <point x="1395" y="650" type="move" name="candrabinduCXT"/>
    </contour>
    <contour>
      <point x="1168" y="650" type="move" name="bindu"/>
    </contour>
    <contour>
      <point x="1165" y="472" type="move" name="top"/>
    </contour>
    <contour>
      <point x="1088" y="3" type="move" name="bottom"/>
    </contour>
  </outline>
</glyph>
<glyph name="dvNThYa" format="1">
  <advance width="1345"/>
  <outline>
    <component base="dvN"/>
    <component base="dvTh" xOffset="304"/>
    <component base="dvYa" xOffset="711"/>
    <contour>
      <point x="1080" y="650" type="move" name="candrabindu"/>
    </contour>
    <contour>
      <point x="1420" y="650" type="move" name="candrabinduCXT"/>
    </contour>
    <contour>
      <point x="1053" y="650" type="move" name="bindu"/>
    </contour>
    <contour>
      <point x="1190" y="472" type="move" name="top"/>
    </contour>
    <contour>
      <point x="1113" y="3" type="move" name="bottom"/>
    </contour>
  </outline>
</glyph>
<glyph name="dvOne.ss05" format="1">
  <advance width="466"/>
  <outline>
    <contour>
      <point x="238" y="367" type="line"/>
      <point x="173" y="395"/>
      <point x="137" y="434"/>
      <point x="137" y="482" type="curve" smooth="yes"/>
      <point x="137" y="537"/>
      <point x="184" y="573"/>
      <point x="231" y="555" type="curve"/>
      <point x="252" y="534"/>
      <point x="258" y="490"/>
      <point x="258" y="448" type="curve" smooth="yes"/>
      <point x="258" y="9" type="line"/>
      <point x="346" y="-39" type="line"/>
      <point x="385" y="-22" type="line"/>
      <point x="385" y="399" type="line" smooth="yes"/>
      <point x="385" y="529"/>
      <point x="290" y="663"/>
      <point x="162" y="663" type="curve" smooth="yes"/>
      <point x="70" y="663"/>
      <point x="4" y="593"/>
      <point x="4" y="511" type="curve" smooth="yes"/>
      <point x="4" y="422"/>
      <point x="82" y="348"/>
      <point x="207" y="297" type="curve"/>
    </contour>
  </outline>
</glyph>
